{
.appVersion = "3180";
.formatVersion = 3;
DisplayStrings = (
"I/IJacute/IJacute.alt1/IJacute.alt2/IJacute.alt3/IJacute.alt4/IJacute.alt5/IJacute.alt6/ijacute/ijacute.alt1/ijacute.alt2/ijacute.alt3/ijacute.alt4/ijacute.alt5/ijacute.alt6",
"/f_f",
"ẵ/caron.alt ď/dcaron.alt1/dcaron.alt2/dcaron.alt3/dcaron.alt4/dcaron.alt5/dcaron.alt6 ğĝġľ/lcaron.alt1/lcaron.alt2/lcaron.alt3/lcaron.alt4/lcaron.alt5/lcaron.alt6 ŀ/ldot.alt1/ldot.alt2/ldot.alt3/ldot.alt4 ·/ldot.alt5 ·/l.alt6 ·/ldot.alt6 ̷łóŏǒôöòőōọ̃ộọơ/ohorn.alt1/ohorn.alt2/ohorn.alt3/ohorn.alt4/ohorn.alt5/ohorn.alt6/tcaron.alt1 ư/uhorn.alt1/uhorn.alt2/uhorn.alt3/uhorn.alt4/uhorn.alt5/uhorn.alt6/caron.alt/lcaron.ss01/l.ss01.alt1/l.ss01.alt1/l.ss01.alt1/lcaron.ss01.alt1/l.ss01.alt2/caron.alt/l.ss01.alt2/l.ss01.alt2/lcaron.ss01.alt2/l.ss01.alt3/lcaron.ss01.alt3/l.ss01.alt4/lcaron.ss01.alt4/lcaron.ss01.alt5/l.ss01.alt6/lcaron.ss01.alt6/ldot.ss01 l·/l.ss01.alt1/ldot.ss01.alt1/ldot.ss01.alt2/ldot.ss01.alt3/ldot.ss01.alt4/ldot.ss01.alt5/ldot.ss01.alt6",
"ď",
"̈/dieresiscomb.case Ǚ",
"ẵd/caron.alt ď/dcaron.alt1/dcaron.alt2/dcaron.alt3/dcaron.alt4/dcaron.alt5/dcaron.alt6 ğĝġľ/lcaron.alt1/lcaron.alt2/lcaron.alt3/lcaron.alt4/lcaron.alt5/lcaron.alt6 ŀ/ldot.alt1/ldot.alt2/ldot.alt3/ldot.alt4/ldot.alt5/ldot.alt6 łóŏǒôöòőōõộọơ/ohorn.alt1/ohorn.alt2/ohorn.alt3/ohorn.alt4/ohorn.alt5/ohorn.alt6/tcaron.alt1 ư/uhorn.alt1/uhorn.alt2/uhorn.alt3/uhorn.alt4/uhorn.alt5/uhorn.alt6/lcaron.ss01/lcaron.ss01.alt1/lcaron.ss01.alt2/lcaron.ss01.alt3/lcaron.ss01.alt4/lcaron.ss01.alt5/lcaron.ss01.alt6/ldot.ss01/ldot.ss01.alt1/ldot.ss01.alt2/ldot.ss01.alt3/ldot.ss01.alt4/ldot.ss01.alt5/ldot.ss01.alt6",

glyphs = (
{
glyphname = .notdef;
lastChange = "2023-03-20 17:32:17 +0000";
layers = (
{
background = {
shapes = (
{
closed = 1;
nodes = (
(326,688,o),
(429,699,o),
(508,697,c),
(499,486,o),
(495,292,o),
(494,80,c),
(360,79,o),
(245,78,o),
(175,74,c),
(176,271,o),
(183,545,o),
(190,688,c)
);
},
{
closed = 1;
nodes = (
(95,7,o),
(113,-7,o),
(134,-7,cs),
(136,-7,ls),
(144,-7,o),
(151,-7,o),
(157,-6,cs),
(306,4,o),
(423,5,o),
(535,4,cs),
(555,4,o),
(575,17,o),
(575,43,cs),
(575,230,o),
(581,544,o),
(593,736,cs),
(594,758,o),
(575,774,o),
(552,774,cs),
(393,773,o),
(258,772,o),
(152,766,cs),
(131,766,o),
(111,753,o),
(111,727,cs),
(99,489,o),
(95,271,o),
(95,32,cs)
);
},
{
closed = 1;
nodes = (
(299,512,o),
(295,437,o),
(291,200,cs),
(291,175,o),
(309,162,o),
(332,162,cs),
(352,162,o),
(372,174,o),
(372,201,cs),
(376,437,o),
(381,511,o),
(387,571,cs),
(388,597,o),
(369,611,o),
(347,611,cs),
(328,611,o),
(308,597,o),
(306,571,cs)
);
}
);
};
layerId = m01;
shapes = (
{
closed = 1;
nodes = (
(262,1,o),
(396,5,o),
(543,4,cs),
(566,4,o),
(583,20,o),
(583,43,cs),
(583,269,o),
(591,572,o),
(601,736,cs),
(602,757,o),
(584,774,o),
(560,774,cs),
(342,773,o),
(244,771,o),
(160,766,cs),
(136,766,o),
(119,750,o),
(119,727,cs),
(108,507,o),
(103,292,o),
(103,32,cs),
(103,8,o),
(120,-9,o),
(142,-7,cs)
);
},
{
closed = 1;
nodes = (
(184,256,o),
(191,533,o),
(198,688,c),
(334,688,o),
(437,699,o),
(516,697,c),
(507,505,o),
(503,313,o),
(502,80,c),
(336,79,o),
(245,77,o),
(183,74,c)
);
},
{
closed = 1;
nodes = (
(364,162,o),
(380,178,o),
(380,201,cs),
(379,268,o),
(389,503,o),
(395,571,cs),
(396,595,o),
(380,611,o),
(355,611,cs),
(333,611,o),
(316,594,o),
(314,571,cs),
(307,518,o),
(298,285,o),
(299,200,cs),
(299,177,o),
(315,162,o),
(340,162,cs)
);
}
);
userData = {
com.hugojourdan.ColorFlow = {
"0" = 0;
"1" = 0;
"10" = 0;
"11" = 0;
"2" = 0;
"3" = 0;
"4" = 0;
"5" = 0;
"6" = 0;
"7" = 0;
"8" = 0;
"9" = 0;
};
};
width = 694;
},
{
background = {
shapes = (
{
closed = 1;
nodes = (
(326,688,o),
(429,699,o),
(508,697,c),
(499,486,o),
(495,292,o),
(494,80,c),
(360,79,o),
(245,78,o),
(175,74,c),
(176,271,o),
(183,545,o),
(190,688,c)
);
},
{
closed = 1;
nodes = (
(95,7,o),
(113,-7,o),
(134,-7,cs),
(136,-7,ls),
(144,-7,o),
(151,-7,o),
(157,-6,cs),
(306,4,o),
(423,5,o),
(535,4,cs),
(555,4,o),
(575,17,o),
(575,43,cs),
(575,230,o),
(581,544,o),
(593,736,cs),
(594,758,o),
(575,774,o),
(552,774,cs),
(393,773,o),
(258,772,o),
(152,766,cs),
(131,766,o),
(111,753,o),
(111,727,cs),
(99,489,o),
(95,271,o),
(95,32,cs)
);
},
{
closed = 1;
nodes = (
(299,512,o),
(295,437,o),
(291,200,cs),
(291,175,o),
(309,162,o),
(332,162,cs),
(352,162,o),
(372,174,o),
(372,201,cs),
(376,437,o),
(381,511,o),
(387,571,cs),
(388,597,o),
(369,611,o),
(347,611,cs),
(328,611,o),
(308,597,o),
(306,571,cs)
);
}
);
};
layerId = m002;
shapes = (
{
closed = 1;
nodes = (
(257,1,o),
(391,5,o),
(538,4,cs),
(561,4,o),
(578,20,o),
(578,43,cs),
(578,269,o),
(586,572,o),
(596,736,cs),
(597,757,o),
(579,774,o),
(555,774,cs),
(337,773,o),
(239,771,o),
(155,766,cs),
(131,766,o),
(114,750,o),
(114,727,cs),
(103,507,o),
(98,292,o),
(98,32,cs),
(98,8,o),
(115,-9,o),
(137,-7,cs)
);
},
{
closed = 1;
nodes = (
(179,256,o),
(186,533,o),
(193,688,c),
(329,688,o),
(432,699,o),
(511,697,c),
(502,505,o),
(498,313,o),
(497,80,c),
(331,79,o),
(240,77,o),
(178,74,c)
);
},
{
closed = 1;
nodes = (
(359,162,o),
(375,178,o),
(375,201,cs),
(374,268,o),
(384,503,o),
(390,571,cs),
(391,595,o),
(375,611,o),
(350,611,cs),
(328,611,o),
(311,594,o),
(309,571,cs),
(302,518,o),
(293,285,o),
(294,200,cs),
(294,177,o),
(310,162,o),
(335,162,cs)
);
}
);
userData = {
com.hugojourdan.ColorFlow = {
"0" = 0;
"1" = 0;
"10" = 0;
"11" = 0;
"2" = 0;
"3" = 0;
"4" = 0;
"5" = 0;
"6" = 0;
"7" = 0;
"8" = 0;
"9" = 0;
};
};
width = 684;
},
{
background = {
shapes = (
{
closed = 1;
nodes = (
(326,688,o),
(429,699,o),
(508,697,c),
(499,486,o),
(495,292,o),
(494,80,c),
(360,79,o),
(245,78,o),
(175,74,c),
(176,271,o),
(183,545,o),
(190,688,c)
);
},
{
closed = 1;
nodes = (
(95,7,o),
(113,-7,o),
(134,-7,cs),
(136,-7,ls),
(144,-7,o),
(151,-7,o),
(157,-6,cs),
(306,4,o),
(423,5,o),
(535,4,cs),
(555,4,o),
(575,17,o),
(575,43,cs),
(575,230,o),
(581,544,o),
(593,736,cs),
(594,758,o),
(575,774,o),
(552,774,cs),
(393,773,o),
(258,772,o),
(152,766,cs),
(131,766,o),
(111,753,o),
(111,727,cs),
(99,489,o),
(95,271,o),
(95,32,cs)
);
},
{
closed = 1;
nodes = (
(299,512,o),
(295,437,o),
(291,200,cs),
(291,175,o),
(309,162,o),
(332,162,cs),
(352,162,o),
(372,174,o),
(372,201,cs),
(376,437,o),
(381,511,o),
(387,571,cs),
(388,597,o),
(369,611,o),
(347,611,cs),
(328,611,o),
(308,597,o),
(306,571,cs)
);
}
);
};
layerId = m003;
shapes = (
{
closed = 1;
nodes = (
(254,1,o),
(388,5,o),
(535,4,cs),
(558,4,o),
(575,20,o),
(575,43,cs),
(575,269,o),
(583,572,o),
(593,736,cs),
(594,757,o),
(576,774,o),
(552,774,cs),
(334,773,o),
(236,771,o),
(152,766,cs),
(128,766,o),
(111,750,o),
(111,727,cs),
(100,507,o),
(95,292,o),
(95,32,cs),
(95,8,o),
(112,-9,o),
(134,-7,cs)
);
},
{
closed = 1;
nodes = (
(176,256,o),
(183,533,o),
(190,688,c),
(326,688,o),
(429,699,o),
(508,697,c),
(499,505,o),
(495,313,o),
(494,80,c),
(328,79,o),
(237,77,o),
(175,74,c)
);
},
{
closed = 1;
nodes = (
(356,162,o),
(372,178,o),
(372,201,cs),
(371,268,o),
(381,503,o),
(387,571,cs),
(388,595,o),
(372,611,o),
(347,611,cs),
(325,611,o),
(308,594,o),
(306,571,cs),
(299,518,o),
(290,285,o),
(291,200,cs),
(291,177,o),
(307,162,o),
(332,162,cs)
);
}
);
userData = {
com.hugojourdan.ColorFlow = {
"0" = 0;
"1" = 0;
"10" = 0;
"11" = 0;
"2" = 0;
"3" = 0;
"4" = 0;
"5" = 0;
"6" = 0;
"7" = 0;
"8" = 0;
"9" = 0;
};
};
width = 678;
}
);
},
{
glyphname = A;
lastChange = "2023-03-15 08:03:48 +0000";
layers = (
{
anchors = (
{
name = bottom;
pos = (366,0);
},
{
name = ogonek;
pos = (701,-9);
},
{
name = top;
pos = (392,764);
}
);
layerId = m01;
shapes = (
{
closed = 1;
nodes = (
(170,253,o),
(294,513,o),
(393,737,c),
(450,591,o),
(571,276,o),
(670,5,cs),
(673,-4,o),
(678,-17,o),
(690,-17,cs),
(699,-17,o),
(711,-12,o),
(711,-3,cs),
(711,8,o),
(693,41,o),
(688,55,cs),
(612,260,o),
(435,712,o),
(413,768,cs),
(408,782,o),
(404,789,o),
(396,788,cs),
(381,787,o),
(379,776,o),
(374,765,cs),
(250,476,o),
(156,287,o),
(56,55,cs),
(45,29,o),
(41,21,o),
(38,13,cs),
(32,-3,o),
(41,-10,o),
(47,-12,cs),
(59,-15,o),
(66,-8,o),
(69,0,cs)
);
},
{
closed = 1;
nodes = (
(170,305,o),
(170,297,cs),
(170,290,o),
(178,287,o),
(183,288,cs),
(294,302,o),
(449,304,o),
(564,304,cs),
(585,304,o),
(614,302,o),
(614,319,cs),
(614,331,o),
(606,341,o),
(592,339,cs),
(563,335,o),
(541,332,o),
(484,332,cs),
(362,332,o),
(239,325,o),
(196,316,cs),
(174,311,o)
);
}
);
userData = {
com.hugojourdan.ColorFlow = {
"0" = 0;
"1" = 0;
"10" = 0;
"11" = 0;
"2" = 0;
"3" = 0;
"4" = 0;
"5" = 0;
"6" = 0;
"7" = 0;
"8" = 0;
"9" = 0;
};
};
width = 750;
},
{
anchors = (
{
name = bottom;
pos = (370,0);
},
{
name = ogonek;
pos = (701,10);
},
{
name = top;
pos = (396,764);
}
);
layerId = m002;
shapes = (
{
closed = 1;
nodes = (
(188,230,o),
(296,438,o),
(395,657,c),
(452,511,o),
(559,226,o),
(650,2,cs),
(657,-15,o),
(676,-19,o),
(687,-19,cs),
(706,-19,o),
(725,-4,o),
(725,26,cs),
(725,37,o),
(716,55,o),
(710,69,cs),
(640,243,o),
(457,708,o),
(437,760,cs),
(430,778,o),
(414,789,o),
(397,789,cs),
(384,789,o),
(369,782,o),
(363,769,cs),
(247,524,o),
(126,290,o),
(35,58,cs),
(25,32,o),
(25,28,o),
(25,25,cs),
(25,1,o),
(47,-15,o),
(68,-15,cs),
(84,-15,o),
(98,-6,o),
(105,14,cs)
);
},
{
closed = 1;
nodes = (
(143,312,o),
(143,289,cs),
(143,266,o),
(174,243,o),
(194,245,cs),
(305,259,o),
(431,259,o),
(546,259,cs),
(584,259,o),
(642,262,o),
(642,302,cs),
(642,325,o),
(623,348,o),
(597,344,cs),
(568,339,o),
(520,336,o),
(465,338,cs),
(343,343,o),
(238,335,o),
(195,326,cs),
(173,321,o)
);
}
);
userData = {
com.hugojourdan.ColorFlow = {
"0" = 0;
"1" = 0;
"10" = 0;
"11" = 0;
"2" = 0;
"3" = 0;
"4" = 0;
"5" = 0;
"6" = 0;
"7" = 0;
"8" = 0;
"9" = 0;
};
};
width = 758;
},
{
anchors = (
{
name = bottom;
pos = (377,0);
},
{
name = ogonek;
pos = (721,10);
},
{
name = top;
pos = (403,764);
}
);
layerId = m003;
shapes = (
{
closed = 1;
nodes = (
(245,190,o),
(299,382,o),
(398,591,c),
(455,445,o),
(501,176,o),
(581,24,cs),
(601,-15,o),
(633,-19,o),
(676,-19,cs),
(737,-19,o),
(775,13,o),
(775,43,cs),
(775,54,o),
(768,75,o),
(760,89,cs),
(690,213,o),
(542,691,o),
(531,719,cs),
(515,761,o),
(467,789,o),
(400,789,cs),
(347,789,o),
(308,764,o),
(279,707,cs),
(196,546,o),
(110,356,o),
(19,124,cs),
(9,98,o),
(-3,67,o),
(-3,38,cs),
(-3,14,o),
(16,-15,o),
(77,-15,cs),
(153,-15,o),
(183,4,o),
(198,49,cs)
);
},
{
closed = 1;
nodes = (
(171,315,o),
(171,262,cs),
(171,219,o),
(196,177,o),
(216,179,cs),
(327,193,o),
(394,189,o),
(509,189,cs),
(581,189,o),
(726,215,o),
(726,301,cs),
(726,346,o),
(698,368,o),
(658,364,cs),
(629,361,o),
(483,346,o),
(468,348,cs),
(347,364,o),
(291,350,o),
(248,341,cs),
(226,336,o)
);
}
);
userData = {
com.hugojourdan.ColorFlow = {
"0" = 0;
"1" = 0;
"10" = 0;
"11" = 0;
"2" = 0;
"3" = 0;
"4" = 0;
"5" = 0;
"6" = 0;
"7" = 0;
"8" = 0;
"9" = 0;
};
};
width = 788;
}
);
unicode = 65;
},
{
glyphname = A.alt1;
lastChange = "2023-03-03 12:56:39 +0000";
layers = (
{
anchors = (
{
name = bottom;
pos = (347,0);
},
{
name = ogonek;
pos = (652,-5);
},
{
name = top;
pos = (386,773);
}
);
layerId = m01;
shapes = (
{
closed = 1;
nodes = (
(649,-19,o),
(659,-13,o),
(659,-5,cs),
(659,4,o),
(648,28,o),
(647,32,cs),
(615,119,o),
(499,445,o),
(450,602,cs),
(433,656,o),
(418,710,o),
(404,764,cs),
(400,783,o),
(398,790,o),
(388,790,cs),
(378,790,o),
(376,790,o),
(366,771,cs),
(285,620,o),
(212,399,o),
(139,224,cs),
(101,136,o),
(68,68,o),
(40,17,cs),
(31,1,o),
(36,-12,o),
(54,-12,cs),
(64,-12,o),
(69,-6,o),
(76,8,cs),
(184,223,o),
(268,504,o),
(380,726,c),
(429,531,o),
(579,125,o),
(624,-2,cs),
(628,-13,o),
(631,-19,o),
(641,-19,cs)
);
},
{
closed = 1;
nodes = (
(307,290,o),
(423,289,o),
(579,286,cs),
(587,286,o),
(592,295,o),
(592,306,cs),
(592,318,o),
(584,320,o),
(573,320,cs),
(436,316,o),
(304,329,o),
(189,312,cs),
(179,311,o),
(174,305,o),
(174,295,cs),
(174,287,o),
(177,278,o),
(189,279,cs)
);
}
);
userData = {
com.hugojourdan.ColorFlow = {
"0" = 0;
"1" = 0;
"10" = 0;
"11" = 0;
"2" = 0;
"3" = 0;
"4" = 0;
"5" = 0;
"6" = 0;
"7" = 0;
"8" = 0;
"9" = 0;
};
};
width = 698;
},
{
anchors = (
{
name = bottom;
pos = (339,-3);
},
{
name = ogonek;
pos = (632,10);
},
{
name = top;
pos = (385,740);
}
);
layerId = m002;
shapes = (
{
closed = 1;
nodes = (
(661,-19,o),
(681,-1,o),
(681,20,cs),
(681,24,o),
(680,28,o),
(679,32,cs),
(647,119,o),
(520,442,o),
(471,599,cs),
(454,653,o),
(439,707,o),
(425,761,cs),
(421,780,o),
(403,790,o),
(386,790,cs),
(367,790,o),
(358,783,o),
(347,764,cs),
(263,616,o),
(184,399,o),
(111,224,cs),
(73,136,o),
(40,68,o),
(30,49,cs),
(14,20,o),
(35,-12,o),
(67,-12,cs),
(80,-12,o),
(93,-6,o),
(100,8,cs),
(205,218,o),
(274,437,o),
(374,640,c),
(407,511,o),
(561,123,o),
(601,11,cs),
(610,-10,o),
(623,-19,o),
(640,-19,cs)
);
},
{
closed = 1;
nodes = (
(309,258,o),
(425,257,o),
(556,254,cs),
(584,253,o),
(609,260,o),
(609,292,cs),
(609,313,o),
(591,333,o),
(569,332,cs),
(438,326,o),
(306,339,o),
(176,320,cs),
(155,317,o),
(146,302,o),
(146,288,cs),
(146,265,o),
(155,243,o),
(203,248,cs)
);
}
);
userData = {
com.hugojourdan.ColorFlow = {
"0" = 0;
"1" = 0;
"10" = 0;
"11" = 0;
"2" = 0;
"3" = 0;
"4" = 0;
"5" = 0;
"6" = 0;
"7" = 0;
"8" = 0;
"9" = 0;
};
};
width = 715;
},
{
anchors = (
{
name = bottom;
pos = (354,0);
},
{
name = ogonek;
pos = (702,10);
},
{
name = top;
pos = (398,765);
}
);
guides = (
{
pos = (614,591);
}
);
layerId = m003;
shapes = (
{
closed = 1;
nodes = (
(726,-19,o),
(746,16,o),
(746,37,cs),
(746,41,o),
(745,45,o),
(744,49,cs),
(712,136,o),
(585,442,o),
(536,599,cs),
(519,653,o),
(504,707,o),
(501,721,cs),
(486,780,o),
(444,790,o),
(391,790,cs),
(349,790,o),
(323,783,o),
(294,732,cs),
(228,616,o),
(149,399,o),
(76,224,cs),
(38,136,o),
(13,82,o),
(6,69,cs),
(-21,20,o),
(19,-12,o),
(72,-12,cs),
(130,-12,o),
(168,-6,o),
(189,36,cs),
(280,218,o),
(297,374,o),
(386,562,c),
(419,448,o),
(506,123,o),
(535,44,cs),
(555,-10,o),
(589,-19,o),
(645,-19,cs)
);
},
{
closed = 1;
nodes = (
(314,185,o),
(530,184,o),
(661,181,cs),
(689,180,o),
(714,215,o),
(714,271,cs),
(714,317,o),
(696,350,o),
(659,348,cs),
(543,343,o),
(311,356,o),
(181,337,cs),
(160,334,o),
(151,299,o),
(151,285,cs),
(151,211,o),
(160,170,o),
(208,175,cs)
);
}
);
userData = {
com.hugojourdan.ColorFlow = {
"0" = 0;
"1" = 0;
"10" = 0;
"11" = 0;
"2" = 0;
"3" = 0;
"4" = 0;
"5" = 0;
"6" = 0;
"7" = 0;
"8" = 0;
"9" = 0;
};
};
width = 759;
}
);
metricLeft = A;
metricRight = A;
},
{
glyphname = A.alt2;
lastChange = "2023-03-03 15:40:55 +0000";
layers = (
{
anchors = (
{
name = bottom;
pos = (353,0);
},
{
name = ogonek;
pos = (692,-7);
},
{
name = top;
pos = (404,770);
}
);
background = {
shapes = (
{
closed = 1;
nodes = (
(171,203,o),
(271,423,o),
(396,729,c),
(460,536,o),
(499,410,o),
(542,289,cs),
(577,188,o),
(616,90,o),
(663,-10,cs),
(667,-18,o),
(670,-24,o),
(680,-24,cs),
(688,-24,o),
(695,-19,o),
(695,-10,cs),
(695,-1,o),
(692,11,o),
(687,23,cs),
(681,40,o),
(673,57,o),
(667,68,cs),
(638,123,o),
(605,208,o),
(573,297,cs),
(530,418,o),
(443,713,o),
(416,764,cs),
(414,769,o),
(407,784,o),
(397,784,cs),
(385,784,o),
(381,774,o),
(377,764,cs),
(266,503,o),
(139,221,o),
(26,0,cs),
(18,-16,o),
(28,-28,o),
(42,-28,cs),
(49,-28,o),
(55,-22,o),
(63,-8,cs)
);
},
{
closed = 1;
nodes = (
(313,282,o),
(464,285,o),
(546,284,cs),
(554,284,o),
(561,289,o),
(561,301,cs),
(561,312,o),
(552,316,o),
(541,316,cs),
(466,319,o),
(313,315,o),
(205,304,cs),
(183,302,o),
(177,297,o),
(177,286,cs),
(177,274,o),
(182,270,o),
(194,271,cs)
);
}
);
};
layerId = m01;
shapes = (
{
closed = 1;
nodes = (
(184,213,o),
(279,423,o),
(404,729,c),
(468,536,o),
(507,410,o),
(550,289,cs),
(585,188,o),
(621,96,o),
(668,-4,cs),
(672,-12,o),
(675,-18,o),
(685,-18,cs),
(693,-18,o),
(700,-13,o),
(700,-4,cs),
(700,5,o),
(697,15,o),
(691,27,cs),
(651,108,o),
(613,208,o),
(581,297,cs),
(538,418,o),
(451,713,o),
(424,764,cs),
(419,776,o),
(411,784,o),
(405,784,cs),
(396,784,o),
(391,779,o),
(385,764,cs),
(274,503,o),
(152,231,o),
(39,10,cs),
(31,-6,o),
(41,-18,o),
(55,-18,cs),
(62,-18,o),
(68,-12,o),
(76,2,cs)
);
},
{
closed = 1;
nodes = (
(321,282,o),
(472,285,o),
(554,284,cs),
(562,284,o),
(569,289,o),
(569,301,cs),
(569,312,o),
(560,316,o),
(549,316,cs),
(474,319,o),
(321,315,o),
(213,304,cs),
(191,302,o),
(185,297,o),
(185,286,cs),
(185,274,o),
(190,270,o),
(202,271,cs)
);
}
);
userData = {
com.hugojourdan.ColorFlow = {
"0" = 0;
"1" = 0;
"10" = 0;
"11" = 0;
"2" = 0;
"3" = 0;
"4" = 0;
"5" = 0;
"6" = 0;
"7" = 0;
"8" = 0;
"9" = 0;
};
};
width = 739;
},
{
anchors = (
{
name = bottom;
pos = (364,16);
},
{
name = ogonek;
pos = (683,0);
},
{
name = top;
pos = (404,777);
}
);
layerId = m002;
shapes = (
{
closed = 1;
nodes = (
(207,202,o),
(307,417,o),
(401,646,c),
(441,524,o),
(478,405,o),
(519,289,cs),
(554,188,o),
(593,90,o),
(638,-5,cs),
(644,-18,o),
(659,-24,o),
(673,-24,cs),
(699,-24,o),
(711,-5,o),
(711,16,cs),
(711,32,o),
(704,48,o),
(694,68,cs),
(665,123,o),
(632,208,o),
(600,297,cs),
(557,418,o),
(464,713,o),
(447,746,cs),
(435,769,o),
(422,784,o),
(404,784,cs),
(390,784,o),
(374,774,o),
(366,756,cs),
(259,503,o),
(126,221,o),
(30,33,cs),
(12,1,o),
(39,-28,o),
(68,-28,cs),
(80,-28,o),
(92,-22,o),
(100,-8,cs)
);
},
{
closed = 1;
nodes = (
(331,248,o),
(482,251,o),
(548,248,cs),
(575,248,o),
(588,265,o),
(588,285,cs),
(588,306,o),
(575,326,o),
(548,326,cs),
(473,329,o),
(320,325,o),
(212,314,cs),
(190,312,o),
(171,296,o),
(171,274,cs),
(172,254,o),
(189,234,o),
(212,236,cs)
);
}
);
userData = {
com.hugojourdan.ColorFlow = {
"0" = 0;
"1" = 0;
"10" = 0;
"11" = 0;
"2" = 0;
"3" = 0;
"4" = 0;
"5" = 0;
"6" = 0;
"7" = 0;
"8" = 0;
"9" = 0;
};
};
width = 745;
},
{
anchors = (
{
name = bottom;
pos = (382,10);
},
{
name = ogonek;
pos = (728,10);
},
{
name = top;
pos = (414,768);
}
);
guides = (
{
pos = (785,596);
}
);
layerId = m003;
shapes = (
{
closed = 1;
nodes = (
(269,159,o),
(334,398,o),
(407,566,c),
(429,500,o),
(450,354,o),
(473,289,cs),
(508,188,o),
(547,90,o),
(574,32,cs),
(598,-18,o),
(642,-24,o),
(687,-24,cs),
(757,-24,o),
(777,9,o),
(777,30,cs),
(777,46,o),
(770,62,o),
(760,82,cs),
(731,137,o),
(706,208,o),
(674,297,cs),
(631,418,o),
(551,675,o),
(536,709,cs),
(509,769,o),
(480,784,o),
(418,784,cs),
(368,784,o),
(326,774,o),
(300,713,cs),
(211,503,o),
(90,221,o),
(5,58,cs),
(-24,1,o),
(22,-28,o),
(82,-28,cs),
(137,-28,o),
(176,-22,o),
(196,18,cs)
);
},
{
closed = 1;
nodes = (
(345,181,o),
(496,184,o),
(562,181,cs),
(589,181,o),
(622,205,o),
(622,271,cs),
(622,328,o),
(589,346,o),
(562,346,cs),
(487,349,o),
(334,345,o),
(226,334,cs),
(204,332,o),
(165,318,o),
(165,251,cs),
(165,194,o),
(203,167,o),
(226,169,cs)
);
}
);
userData = {
com.hugojourdan.ColorFlow = {
"0" = 0;
"1" = 0;
"10" = 0;
"11" = 0;
"2" = 0;
"3" = 0;
"4" = 0;
"5" = 0;
"6" = 0;
"7" = 0;
"8" = 0;
"9" = 0;
};
};
width = 791;
}
);
metricLeft = A;
metricRight = A;
},
{
glyphname = A.alt3;
lastChange = "2023-03-03 12:56:52 +0000";
layers = (
{
anchors = (
{
name = bottom;
pos = (377,0);
},
{
name = ogonek;
pos = (726,-8);
},
{
name = top;
pos = (380,771);
}
);
background = {
shapes = (
{
closed = 1;
nodes = (
(158,210,o),
(253,430,o),
(371,728,c),
(474,419,o),
(588,175,o),
(692,-11,cs),
(696,-18,o),
(700,-20,o),
(704,-20,cs),
(714,-20,o),
(726,-14,o),
(726,-5,cs),
(726,-1,o),
(719,12,o),
(716,18,cs),
(581,257,o),
(480,509,o),
(392,764,cs),
(386,782,o),
(380,785,o),
(372,785,cs),
(365,785,o),
(359,782,o),
(354,769,cs),
(319,686,o),
(119,207,o),
(30,6,cs),
(27,-1,o),
(24,-7,o),
(24,-14,cs),
(24,-23,o),
(35,-28,o),
(43,-28,cs),
(50,-28,o),
(54,-23,o),
(61,-8,cs)
);
},
{
closed = 1;
nodes = (
(271,284,o),
(304,286,o),
(338,286,cs),
(403,286,o),
(465,282,o),
(534,274,cs),
(560,271,o),
(568,275,o),
(568,287,cs),
(568,297,o),
(560,300,o),
(534,304,cs),
(495,310,o),
(405,319,o),
(321,319,cs),
(207,319,o),
(188,313,o),
(188,299,cs),
(188,287,o),
(200,281,o),
(223,282,cs)
);
}
);
};
layerId = m01;
shapes = (
{
closed = 1;
nodes = (
(170,219,o),
(261,430,o),
(379,728,c),
(482,419,o),
(596,175,o),
(700,-11,cs),
(704,-18,o),
(708,-20,o),
(712,-20,cs),
(722,-20,o),
(734,-14,o),
(734,-5,cs),
(734,-1,o),
(727,12,o),
(724,18,cs),
(589,257,o),
(488,509,o),
(400,764,cs),
(394,782,o),
(388,785,o),
(380,785,cs),
(373,785,o),
(367,782,o),
(362,769,cs),
(327,686,o),
(131,216,o),
(42,15,cs),
(39,8,o),
(36,2,o),
(36,-5,cs),
(36,-14,o),
(47,-19,o),
(55,-19,cs),
(62,-19,o),
(66,-14,o),
(73,1,cs)
);
},
{
closed = 1;
nodes = (
(279,284,o),
(312,286,o),
(346,286,cs),
(411,286,o),
(473,282,o),
(542,274,cs),
(568,271,o),
(576,275,o),
(576,287,cs),
(576,297,o),
(568,300,o),
(542,304,cs),
(503,310,o),
(413,319,o),
(329,319,cs),
(215,319,o),
(196,313,o),
(196,299,cs),
(196,287,o),
(208,281,o),
(231,282,cs)
);
}
);
userData = {
com.hugojourdan.ColorFlow = {
"0" = 0;
"1" = 0;
"10" = 0;
"11" = 0;
"2" = 0;
"3" = 0;
"4" = 0;
"5" = 0;
"6" = 0;
"7" = 0;
"8" = 0;
"9" = 0;
};
};
width = 773;
},
{
anchors = (
{
name = bottom;
pos = (388,-10);
},
{
name = ogonek;
pos = (685,10);
},
{
name = top;
pos = (373,775);
}
);
layerId = m002;
shapes = (
{
closed = 1;
nodes = (
(197,209,o),
(290,428,o),
(376,648,c),
(456,411,o),
(568,172,o),
(665,0,cs),
(672,-12,o),
(686,-20,o),
(700,-20,cs),
(722,-20,o),
(740,-1,o),
(740,21,cs),
(740,28,o),
(738,35,o),
(735,41,cs),
(609,256,o),
(504,509,o),
(430,724,cs),
(420,754,o),
(409,785,o),
(381,785,cs),
(363,785,o),
(349,775,o),
(341,755,cs),
(312,686,o),
(108,207,o),
(30,32,cs),
(27,25,o),
(24,18,o),
(24,12,cs),
(24,-11,o),
(46,-28,o),
(68,-28,cs),
(80,-28,o),
(93,-23,o),
(100,-8,cs)
);
},
{
closed = 1;
nodes = (
(280,249,o),
(313,251,o),
(347,251,cs),
(412,251,o),
(474,247,o),
(543,239,cs),
(569,236,o),
(582,259,o),
(582,280,cs),
(582,300,o),
(569,310,o),
(543,314,cs),
(504,320,o),
(414,329,o),
(330,329,cs),
(259,329,o),
(205,320,o),
(205,288,cs),
(205,267,o),
(223,246,o),
(246,247,cs)
);
}
);
userData = {
com.hugojourdan.ColorFlow = {
"0" = 0;
"1" = 0;
"10" = 0;
"11" = 0;
"2" = 0;
"3" = 0;
"4" = 0;
"5" = 0;
"6" = 0;
"7" = 0;
"8" = 0;
"9" = 0;
};
};
width = 774;
},
{
anchors = (
{
name = bottom;
pos = (391,6);
},
{
name = ogonek;
pos = (739,4);
},
{
name = top;
pos = (396,768);
}
);
layerId = m003;
shapes = (
{
closed = 1;
nodes = (
(260,162,o),
(323,401,o),
(387,556,c),
(453,385,o),
(528,136,o),
(588,29,cs),
(611,-12,o),
(652,-20,o),
(704,-20,cs),
(748,-20,o),
(795,-5,o),
(795,38,cs),
(795,45,o),
(793,52,o),
(790,58,cs),
(664,273,o),
(578,509,o),
(514,694,cs),
(494,754,o),
(457,785,o),
(385,785,cs),
(331,785,o),
(305,775,o),
(283,723,cs),
(268,686,o),
(81,232,o),
(3,57,cs),
(0,50,o),
(-3,43,o),
(-3,30,cs),
(-3,14,o),
(6,-28,o),
(72,-28,cs),
(134,-28,o),
(177,-23,o),
(205,39,cs)
);
},
{
closed = 1;
nodes = (
(342,178,o),
(375,181,o),
(409,181,cs),
(445,181,o),
(478,177,o),
(547,169,cs),
(573,166,o),
(607,190,o),
(608,249,cs),
(608,304,o),
(588,328,o),
(547,334,cs),
(508,340,o),
(437,349,o),
(353,349,cs),
(282,349,o),
(238,330,o),
(238,262,cs),
(238,200,o),
(288,178,o),
(320,178,cs)
);
}
);
userData = {
com.hugojourdan.ColorFlow = {
"0" = 0;
"1" = 0;
"10" = 0;
"11" = 0;
"2" = 0;
"3" = 0;
"4" = 0;
"5" = 0;
"6" = 0;
"7" = 0;
"8" = 0;
"9" = 0;
};
};
width = 808;
}
);
metricLeft = A;
metricRight = A;
},
{
glyphname = A.alt4;
lastChange = "2023-03-03 12:57:01 +0000";
layers = (
{
anchors = (
{
name = bottom;
pos = (390,0);
},
{
name = ogonek;
pos = (743,-7);
},
{
name = top;
pos = (383,777);
}
);
layerId = m01;
shapes = (
{
closed = 1;
nodes = (
(176,218,o),
(267,433,o),
(380,729,c),
(490,432,o),
(613,172,o),
(713,1,cs),
(720,-12,o),
(725,-20,o),
(734,-20,cs),
(745,-20,o),
(752,-13,o),
(752,-7,cs),
(752,0,o),
(749,6,o),
(743,18,cs),
(646,193,o),
(470,542,o),
(400,774,cs),
(397,785,o),
(394,795,o),
(382,795,cs),
(372,795,o),
(368,790,o),
(362,773,cs),
(264,509,o),
(123,186,o),
(42,25,cs),
(37,16,o),
(36,11,o),
(36,5,cs),
(36,-2,o),
(42,-10,o),
(53,-10,cs),
(65,-10,o),
(70,-5,o),
(77,10,cs)
);
},
{
closed = 1;
nodes = (
(354,279,o),
(557,286,o),
(572,287,cs),
(597,290,o),
(612,295,o),
(612,309,cs),
(612,321,o),
(605,323,o),
(580,323,cs),
(495,323,o),
(402,313,o),
(213,313,cs),
(202,313,o),
(189,311,o),
(189,298,cs),
(189,287,o),
(207,279,o),
(217,279,cs)
);
}
);
userData = {
com.hugojourdan.ColorFlow = {
"0" = 0;
"1" = 0;
"10" = 0;
"11" = 0;
"2" = 0;
"3" = 0;
"4" = 0;
"5" = 0;
"6" = 0;
"7" = 0;
"8" = 0;
"9" = 0;
};
};
width = 791;
},
{
anchors = (
{
name = bottom;
pos = (378,-3);
},
{
name = ogonek;
pos = (697,10);
},
{
name = top;
pos = (387,777);
}
);
layerId = m002;
shapes = (
{
closed = 1;
nodes = (
(200,216,o),
(290,429,o),
(375,652,c),
(457,427,o),
(578,170,o),
(678,1,cs),
(685,-12,o),
(699,-20,o),
(714,-20,cs),
(733,-20,o),
(753,-1,o),
(753,22,cs),
(753,28,o),
(752,35,o),
(748,41,cs),
(661,193,o),
(483,542,o),
(416,766,c),
(411,785,o),
(394,795,o),
(377,795,cs),
(360,795,o),
(344,785,o),
(337,766,cs),
(241,509,o),
(96,187,o),
(31,51,cs),
(27,44,o),
(25,37,o),
(25,31,cs),
(25,8,o),
(47,-10,o),
(69,-10,cs),
(81,-10,o),
(93,-4,o),
(101,10,c)
);
},
{
closed = 1;
nodes = (
(349,245,o),
(552,252,o),
(576,254,cs),
(601,256,o),
(624,264,o),
(624,294,cs),
(624,315,o),
(607,334,o),
(584,333,cs),
(490,327,o),
(397,323,o),
(223,323,cs),
(197,323,o),
(184,303,o),
(184,283,cs),
(184,262,o),
(197,245,o),
(223,245,cs)
);
}
);
userData = {
com.hugojourdan.ColorFlow = {
"0" = 0;
"1" = 0;
"10" = 0;
"11" = 0;
"2" = 0;
"3" = 0;
"4" = 0;
"5" = 0;
"6" = 0;
"7" = 0;
"8" = 0;
"9" = 0;
};
};
width = 787;
},
{
anchors = (
{
name = bottom;
pos = (385,5);
},
{
name = ogonek;
pos = (732,6);
},
{
name = top;
pos = (383,783);
}
);
layerId = m003;
shapes = (
{
closed = 1;
nodes = (
(259,170,o),
(315,432,o),
(378,589,c),
(449,419,o),
(530,138,o),
(586,43,cs),
(618,-12,o),
(649,-20,o),
(711,-20,cs),
(768,-20,o),
(796,18,o),
(796,41,cs),
(796,47,o),
(795,58,o),
(785,75,cs),
(704,216,o),
(565,542,o),
(517,702,cs),
(492,785,o),
(436,795,o),
(380,795,cs),
(340,795,o),
(280,785,o),
(252,711,cs),
(177,509,o),
(68,207,o),
(3,71,cs),
(-1,64,o),
(-3,57,o),
(-3,47,cs),
(-3,18,o),
(30,-10,o),
(77,-10,cs),
(137,-10,o),
(175,-5,o),
(200,46,cs)
);
},
{
closed = 1;
nodes = (
(352,177,o),
(555,184,o),
(579,186,cs),
(604,188,o),
(641,208,o),
(641,265,cs),
(641,323,o),
(610,354,o),
(587,353,cs),
(493,347,o),
(400,343,o),
(226,343,cs),
(200,343,o),
(161,315,o),
(161,255,cs),
(161,208,o),
(200,177,o),
(226,177,cs)
);
}
);
userData = {
com.hugojourdan.ColorFlow = {
"0" = 0;
"1" = 0;
"10" = 0;
"11" = 0;
"2" = 0;
"3" = 0;
"4" = 0;
"5" = 0;
"6" = 0;
"7" = 0;
"8" = 0;
"9" = 0;
};
};
width = 809;
}
);
metricLeft = A;
metricRight = A;
},
{
glyphname = A.alt5;
lastChange = "2023-03-03 12:57:11 +0000";
layers = (
{
anchors = (
{
name = bottom;
pos = (398,0);
},
{
name = ogonek;
pos = (761,1);
},
{
name = top;
pos = (408,787);
}
);
layerId = m01;
shapes = (
{
closed = 1;
nodes = (
(175,218,o),
(277,438,o),
(406,731,c),
(500,491,o),
(633,210,o),
(734,2,cs),
(740,-10,o),
(742,-15,o),
(752,-15,cs),
(763,-15,o),
(771,-7,o),
(771,0,cs),
(771,6,o),
(766,19,o),
(763,26,cs),
(661,237,o),
(500,560,o),
(429,763,cs),
(423,779,o),
(418,787,o),
(408,787,cs),
(399,787,o),
(396,785,o),
(390,771,cs),
(346,672,o),
(303,578,o),
(42,16,cs),
(39,9,o),
(36,2,o),
(36,-5,cs),
(36,-11,o),
(42,-17,o),
(50,-17,cs),
(61,-17,o),
(67,-12,o),
(74,3,cs)
);
},
{
closed = 1;
nodes = (
(343,288,o),
(467,294,o),
(606,294,cs),
(638,294,o),
(657,299,o),
(657,315,cs),
(657,324,o),
(652,330,o),
(633,330,cs),
(524,329,o),
(244,315,o),
(210,312,cs),
(189,310,o),
(183,306,o),
(183,292,cs),
(183,284,o),
(186,276,o),
(198,277,cs)
);
}
);
userData = {
com.hugojourdan.ColorFlow = {
"0" = 0;
"1" = 0;
"10" = 0;
"11" = 0;
"2" = 0;
"3" = 0;
"4" = 0;
"5" = 0;
"6" = 0;
"7" = 0;
"8" = 0;
"9" = 0;
};
};
width = 810;
},
{
anchors = (
{
name = bottom;
pos = (402,26);
},
{
name = ogonek;
pos = (718,10);
},
{
name = top;
pos = (399,780);
}
);
layerId = m002;
shapes = (
{
closed = 1;
nodes = (
(200,216,o),
(302,431,o),
(402,655,c),
(472,478,o),
(608,206,o),
(697,11,cs),
(705,-7,o),
(720,-15,o),
(736,-15,cs),
(758,-15,o),
(776,1,o),
(776,23,cs),
(776,29,o),
(774,35,o),
(771,42,cs),
(685,237,o),
(515,560,o),
(450,744,cs),
(441,769,o),
(424,787,o),
(406,787,cs),
(389,787,o),
(376,780,o),
(370,766,cs),
(326,672,o),
(281,578,o),
(30,43,cs),
(27,36,o),
(24,30,o),
(24,23,cs),
(24,1,o),
(46,-17,o),
(68,-17,cs),
(80,-17,o),
(93,-12,o),
(100,3,cs)
);
},
{
closed = 1;
nodes = (
(341,254,o),
(465,260,o),
(609,260,cs),
(641,260,o),
(673,267,o),
(673,299,cs),
(673,321,o),
(655,340,o),
(632,340,cs),
(522,339,o),
(242,325,o),
(218,323,cs),
(187,320,o),
(168,313,o),
(168,281,cs),
(168,259,o),
(184,242,o),
(208,243,cs)
);
}
);
userData = {
com.hugojourdan.ColorFlow = {
"0" = 0;
"1" = 0;
"10" = 0;
"11" = 0;
"2" = 0;
"3" = 0;
"4" = 0;
"5" = 0;
"6" = 0;
"7" = 0;
"8" = 0;
"9" = 0;
};
};
width = 810;
},
{
anchors = (
{
name = bottom;
pos = (395,0);
},
{
name = ogonek;
pos = (761,6);
},
{
name = top;
pos = (411,762);
}
);
layerId = m003;
shapes = (
{
closed = 1;
nodes = (
(265,174,o),
(332,427,o),
(409,595,c),
(480,437,o),
(561,154,o),
(600,68,cs),
(624,14,o),
(648,-15,o),
(725,-15,cs),
(799,-15,o),
(825,11,o),
(825,39,cs),
(825,48,o),
(823,58,o),
(820,65,cs),
(734,260,o),
(596,560,o),
(547,698,cs),
(522,769,o),
(474,787,o),
(405,787,cs),
(356,787,o),
(315,780,o),
(290,726,cs),
(265,672,o),
(254,609,o),
(3,74,cs),
(0,67,o),
(-3,61,o),
(-3,45,cs),
(-3,32,o),
(8,-17,o),
(77,-17,cs),
(146,-17,o),
(182,-3,o),
(209,54,cs)
);
},
{
closed = 1;
nodes = (
(340,186,o),
(554,192,o),
(698,192,cs),
(730,192,o),
(779,212,o),
(779,281,cs),
(779,340,o),
(744,360,o),
(711,360,cs),
(611,359,o),
(241,345,o),
(217,343,cs),
(186,340,o),
(151,319,o),
(151,247,cs),
(151,199,o),
(183,174,o),
(207,175,cs)
);
}
);
userData = {
com.hugojourdan.ColorFlow = {
"0" = 0;
"1" = 0;
"10" = 0;
"11" = 0;
"2" = 0;
"3" = 0;
"4" = 0;
"5" = 0;
"6" = 0;
"7" = 0;
"8" = 0;
"9" = 0;
};
};
width = 838;
}
);
metricLeft = A;
metricRight = A;
},
{
glyphname = A.alt6;
lastChange = "2023-03-03 12:57:27 +0000";
layers = (
{
anchors = (
{
name = bottom;
pos = (371,0);
},
{
name = ogonek;
pos = (707,-4);
},
{
name = top;
pos = (421,761);
}
);
layerId = m01;
shapes = (
{
closed = 1;
nodes = (
(190,211,o),
(292,413,o),
(421,720,c),
(506,426,o),
(589,210,o),
(677,8,cs),
(684,-7,o),
(686,-11,o),
(697,-11,cs),
(704,-11,o),
(715,-6,o),
(715,2,cs),
(715,6,o),
(714,10,o),
(709,22,cs),
(602,262,o),
(494,567,o),
(439,757,cs),
(435,772,o),
(432,777,o),
(424,777,cs),
(417,777,o),
(414,775,o),
(407,758,cs),
(294,498,o),
(183,269,o),
(43,17,cs),
(39,10,o),
(36,3,o),
(36,-1,cs),
(36,-9,o),
(44,-16,o),
(54,-16,cs),
(62,-16,o),
(66,-10,o),
(74,4,cs)
);
},
{
closed = 1;
nodes = (
(296,292,o),
(355,295,o),
(415,295,cs),
(461,295,o),
(594,289,o),
(622,288,cs),
(635,288,o),
(643,290,o),
(643,302,cs),
(643,310,o),
(637,316,o),
(623,317,cs),
(567,322,o),
(483,327,o),
(405,327,cs),
(378,327,o),
(290,325,o),
(232,321,cs),
(221,320,o),
(206,315,o),
(205,303,cs),
(205,291,o),
(214,287,o),
(221,287,cs)
);
}
);
userData = {
com.hugojourdan.ColorFlow = {
"0" = 0;
"1" = 0;
"10" = 0;
"11" = 0;
"2" = 0;
"3" = 0;
"4" = 0;
"5" = 0;
"6" = 0;
"7" = 0;
"8" = 0;
"9" = 0;
};
};
width = 754;
},
{
anchors = (
{
name = bottom;
pos = (380,0);
},
{
name = ogonek;
pos = (666,10);
},
{
name = top;
pos = (418,768);
}
);
layerId = m002;
shapes = (
{
closed = 1;
nodes = (
(216,208,o),
(316,408,o),
(413,637,c),
(477,417,o),
(558,206,o),
(644,8,cs),
(651,-7,o),
(665,-11,o),
(678,-11,cs),
(696,-11,o),
(719,4,o),
(719,21,cs),
(719,34,o),
(717,43,o),
(712,55,cs),
(605,295,o),
(511,567,o),
(458,748,cs),
(453,767,o),
(435,777,o),
(417,777,cs),
(404,777,o),
(390,771,o),
(384,758,cs),
(271,498,o),
(171,297,o),
(31,45,cs),
(27,38,o),
(25,31,o),
(25,25,cs),
(25,2,o),
(47,-16,o),
(69,-16,cs),
(81,-16,o),
(93,-10,o),
(101,4,cs)
);
},
{
closed = 1;
nodes = (
(293,255,o),
(352,257,o),
(412,257,cs),
(458,257,o),
(578,254,o),
(624,249,cs),
(651,246,o),
(676,257,o),
(676,286,cs),
(676,309,o),
(658,324,o),
(635,326,cs),
(558,332,o),
(480,335,o),
(402,335,cs),
(375,335,o),
(287,333,o),
(243,330,cs),
(218,328,o),
(193,313,o),
(193,289,cs),
(193,268,o),
(211,250,o),
(234,252,cs)
);
}
);
userData = {
com.hugojourdan.ColorFlow = {
"0" = 0;
"1" = 0;
"10" = 0;
"11" = 0;
"2" = 0;
"3" = 0;
"4" = 0;
"5" = 0;
"6" = 0;
"7" = 0;
"8" = 0;
"9" = 0;
};
};
width = 753;
},
{
anchors = (
{
name = bottom;
pos = (391,5);
},
{
name = ogonek;
pos = (725,10);
},
{
name = top;
pos = (435,768);
}
);
layerId = m003;
shapes = (
{
closed = 1;
nodes = (
(278,162,o),
(348,423,o),
(418,576,c),
(469,426,o),
(523,165,o),
(570,58,cs),
(594,2,o),
(626,-11,o),
(685,-11,cs),
(758,-11,o),
(786,24,o),
(786,44,cs),
(786,54,o),
(784,63,o),
(779,75,cs),
(672,315,o),
(593,567,o),
(554,701,cs),
(535,767,o),
(487,777,o),
(438,777,cs),
(374,777,o),
(329,771,o),
(299,702,cs),
(210,498,o),
(143,319,o),
(3,67,cs),
(-1,60,o),
(-3,53,o),
(-3,47,cs),
(-3,24,o),
(13,-16,o),
(92,-16,cs),
(147,-16,o),
(181,-10,o),
(211,42,cs)
);
},
{
closed = 1;
nodes = (
(300,189,o),
(359,191,o),
(419,191,cs),
(465,191,o),
(685,188,o),
(704,186,cs),
(758,180,o),
(783,215,o),
(783,265,cs),
(783,313,o),
(753,345,o),
(708,349,cs),
(665,352,o),
(487,355,o),
(409,355,cs),
(382,355,o),
(294,353,o),
(250,350,cs),
(225,348,o),
(177,327,o),
(177,263,cs),
(177,203,o),
(218,184,o),
(241,186,cs)
);
}
);
userData = {
com.hugojourdan.ColorFlow = {
"0" = 0;
"1" = 0;
"10" = 0;
"11" = 0;
"2" = 0;
"3" = 0;
"4" = 0;
"5" = 0;
"6" = 0;
"7" = 0;
"8" = 0;
"9" = 0;
};
};
width = 799;
}
);
metricLeft = A;
metricRight = A;
},
{
glyphname = B;
lastChange = "2023-03-07 11:14:42 +0000";
layers = (
{
anchors = (
{
name = bottom;
pos = (314,0);
},
{
name = center;
pos = (327,382);
},
{
name = top;
pos = (304,764);
}
);
layerId = m01;
shapes = (
{
closed = 1;
nodes = (
(106,495,o),
(114,249,o),
(100,14,cs),
(99,-1,o),
(101,-11,o),
(117,-10,cs),
(133,-9,o),
(134,6,o),
(135,32,cs),
(149,266,o),
(141,500,o),
(151,735,c),
(150,761,o),
(148,774,o),
(130,771,cs),
(116,769,o),
(115,760,o),
(117,729,c)
);
},
{
closed = 1;
nodes = (
(186,739,o),
(247,745,o),
(289,745,cs),
(419,745,o),
(515,707,o),
(515,601,cs),
(515,490,o),
(353,422,o),
(198,422,cs),
(177,422,o),
(159,424,o),
(137,427,cs),
(124,429,o),
(121,418,o),
(121,411,cs),
(121,392,o),
(152,389,o),
(194,389,cs),
(220,389,o),
(248,391,o),
(287,398,c),
(419,397,o),
(549,354,o),
(549,242,cs),
(549,111,o),
(383,32,o),
(214,32,cs),
(176,32,o),
(156,33,o),
(125,38,c),
(114,5,l),
(136,3,o),
(180,-1,o),
(216,-1,cs),
(383,-1,o),
(584,84,o),
(584,240,cs),
(584,318,o),
(520,399,o),
(379,423,c),
(490,460,o),
(549,532,o),
(549,606,cs),
(549,745,o),
(404,778,o),
(284,778,cs),
(222,778,o),
(187,772,o),
(141,764,c),
(141,732,l)
);
}
);
userData = {
com.hugojourdan.ColorFlow = {
"0" = 0;
"1" = 0;
"10" = 0;
"11" = 0;
"2" = 0;
"3" = 0;
"4" = 0;
"5" = 0;
"6" = 0;
"7" = 0;
"8" = 0;
"9" = 0;
};
};
width = 655;
},
{
anchors = (
{
name = bottom;
pos = (321,0);
},
{
name = center;
pos = (334,382);
},
{
name = top;
pos = (318,761);
}
);
background = {
shapes = (
{
closed = 1;
nodes = (
(101,493,o),
(107,246,o),
(78,25,cs),
(75,-1,o),
(98,-14,o),
(119,-14,cs),
(139,-14,o),
(156,-1,o),
(159,25,cs),
(189,258,o),
(182,493,o),
(209,726,c),
(209,752,o),
(189,765,o),
(168,765,cs),
(148,765,o),
(128,752,o),
(128,726,c)
);
},
{
closed = 1;
nodes = (
(190,690,o),
(261,700,o),
(303,700,cs),
(378,700,o),
(483,677,o),
(483,601,cs),
(483,488,o),
(306,447,o),
(207,447,cs),
(183,447,o),
(163,449,o),
(141,451,cs),
(120,452,o),
(114,434,o),
(115,413,cs),
(115,377,o),
(145,367,o),
(198,367,cs),
(224,367,o),
(252,370,o),
(291,376,c),
(375,375,o),
(517,337,o),
(517,242,cs),
(517,132,o),
(345,77,o),
(218,77,cs),
(190,77,o),
(160,79,o),
(129,84,c),
(118,5,l),
(140,3,o),
(179,-1,o),
(220,-1,cs),
(397,-1,o),
(598,84,o),
(598,240,cs),
(598,318,o),
(537,393,o),
(426,423,c),
(521,464,o),
(563,539,o),
(563,606,cs),
(563,745,o),
(409,778,o),
(295,778,cs),
(227,778,o),
(191,772,o),
(164,764,c),
(164,686,l)
);
}
);
};
layerId = m002;
shapes = (
{
closed = 1;
nodes = (
(103,495,o),
(111,249,o),
(98,26,cs),
(96,0,o),
(120,-11,o),
(141,-10,cs),
(161,-8,o),
(177,6,o),
(178,32,cs),
(192,266,o),
(184,500,o),
(194,735,c),
(193,761,o),
(172,772,o),
(151,771,cs),
(131,769,o),
(112,755,o),
(114,729,c)
);
},
{
closed = 1;
nodes = (
(193,690,o),
(264,700,o),
(306,700,cs),
(381,700,o),
(486,677,o),
(486,601,cs),
(486,488,o),
(309,447,o),
(210,447,cs),
(186,447,o),
(166,449,o),
(144,451,cs),
(123,452,o),
(117,434,o),
(118,413,cs),
(118,377,o),
(148,367,o),
(201,367,cs),
(227,367,o),
(255,370,o),
(294,376,c),
(378,375,o),
(520,337,o),
(520,242,cs),
(520,132,o),
(348,77,o),
(221,77,cs),
(193,77,o),
(163,79,o),
(132,84,c),
(121,5,l),
(143,3,o),
(182,-1,o),
(223,-1,cs),
(400,-1,o),
(601,84,o),
(601,240,cs),
(601,318,o),
(540,393,o),
(429,423,c),
(524,464,o),
(566,539,o),
(566,606,cs),
(566,745,o),
(412,778,o),
(298,778,cs),
(230,778,o),
(194,772,o),
(167,764,c),
(167,686,l)
);
}
);
userData = {
com.hugojourdan.ColorFlow = {
"0" = 0;
"1" = 0;
"10" = 0;
"11" = 0;
"2" = 0;
"3" = 0;
"4" = 0;
"5" = 0;
"6" = 0;
"7" = 0;
"8" = 0;
"9" = 0;
};
};
width = 662;
},
{
anchors = (
{
name = bottom;
pos = (352,0);
},
{
name = center;
pos = (365,382);
},
{
name = top;
pos = (378,764);
}
);
background = {
shapes = (
{
closed = 1;
nodes = (
(135,493,o),
(141,246,o),
(112,25,cs),
(109,-1,o),
(132,-14,o),
(153,-14,cs),
(173,-14,o),
(190,-1,o),
(193,25,cs),
(223,258,o),
(216,493,o),
(243,726,c),
(243,752,o),
(223,765,o),
(202,765,cs),
(182,765,o),
(162,752,o),
(162,726,c)
);
},
{
closed = 1;
nodes = (
(224,690,o),
(295,700,o),
(337,700,cs),
(412,700,o),
(517,677,o),
(517,601,cs),
(517,488,o),
(340,447,o),
(241,447,cs),
(217,447,o),
(197,449,o),
(175,451,cs),
(154,452,o),
(148,434,o),
(149,413,cs),
(149,377,o),
(179,367,o),
(232,367,cs),
(258,367,o),
(286,370,o),
(325,376,c),
(409,375,o),
(551,337,o),
(551,242,cs),
(551,132,o),
(379,77,o),
(252,77,cs),
(224,77,o),
(194,79,o),
(163,84,c),
(152,5,l),
(174,3,o),
(213,-1,o),
(254,-1,cs),
(431,-1,o),
(632,84,o),
(632,240,cs),
(632,318,o),
(571,393,o),
(460,423,c),
(555,464,o),
(597,539,o),
(597,606,cs),
(597,745,o),
(443,778,o),
(329,778,cs),
(261,778,o),
(225,772,o),
(198,764,c),
(198,686,l)
);
}
);
};
layerId = m003;
shapes = (
{
closed = 1;
nodes = (
(66,495,o),
(74,249,o),
(61,39,cs),
(59,0,o),
(91,-13,o),
(162,-13,cs),
(202,-13,o),
(248,6,o),
(249,32,cs),
(263,266,o),
(255,506,o),
(265,735,c),
(264,761,o),
(213,778,o),
(172,777,cs),
(102,775,o),
(78,755,o),
(76,716,cs)
);
},
{
closed = 1;
nodes = (
(224,634,o),
(295,644,o),
(337,644,cs),
(402,644,o),
(435,625,o),
(435,589,cs),
(435,518,o),
(340,483,o),
(241,483,cs),
(217,483,o),
(197,485,o),
(175,487,cs),
(154,488,o),
(149,434,o),
(149,413,cs),
(149,342,o),
(179,332,o),
(232,332,cs),
(258,332,o),
(286,335,o),
(325,341,c),
(399,340,o),
(458,307,o),
(458,254,cs),
(458,182,o),
(377,147,o),
(263,147,cs),
(235,147,o),
(194,149,o),
(163,154,c),
(152,10,l),
(174,5,o),
(232,-1,o),
(286,-1,cs),
(451,-1,o),
(652,89,o),
(652,245,cs),
(652,323,o),
(601,393,o),
(470,423,c),
(581,466,o),
(617,539,o),
(617,606,cs),
(617,745,o),
(463,778,o),
(354,778,cs),
(274,778,o),
(225,765,o),
(198,757,c),
(198,630,l)
);
}
);
userData = {
com.hugojourdan.ColorFlow = {
"0" = 0;
"1" = 0;
"10" = 0;
"11" = 0;
"2" = 0;
"3" = 0;
"4" = 0;
"5" = 0;
"6" = 0;
"7" = 0;
"8" = 0;
"9" = 0;
};
};
width = 693;
}
);
unicode = 66;
},
{
glyphname = B.alt1;
lastChange = "2023-03-07 15:48:50 +0000";
layers = (
{
anchors = (
{
name = bottom;
pos = (294,10);
},
{
name = center;
pos = (317,382);
},
{
name = top;
pos = (320,763);
}
);
layerId = m01;
shapes = (
{
closed = 1;
nodes = (
(97,0,o),
(101,-5,o),
(114,-6,cs),
(163,-9,o),
(211,-11,o),
(265,-11,cs),
(431,-11,o),
(567,65,o),
(567,211,cs),
(567,290,o),
(527,369,o),
(386,400,c),
(544,431,o),
(572,517,o),
(572,592,cs),
(572,687,o),
(504,776,o),
(347,777,cs),
(283,777,o),
(236,774,o),
(145,766,cs),
(134,765,o),
(126,757,o),
(126,746,cs),
(120,524,o),
(96,326,o),
(96,125,cs),
(96,92,o),
(95,59,o),
(97,9,cs)
);
},
{
closed = 1;
nodes = (
(203,18,o),
(158,22,o),
(129,23,c),
(128,157,o),
(132,281,o),
(139,383,c),
(364,398,o),
(534,357,o),
(534,216,cs),
(534,77,o),
(406,18,o),
(262,18,cs)
);
},
{
closed = 1;
nodes = (
(149,522,o),
(155,653,o),
(159,736,c),
(206,741,o),
(267,747,o),
(334,747,cs),
(478,747,o),
(539,682,o),
(539,592,cs),
(539,435,o),
(395,411,o),
(141,415,c)
);
}
);
userData = {
com.hugojourdan.ColorFlow = {
"0" = 0;
"1" = 0;
"10" = 0;
"11" = 0;
"2" = 0;
"3" = 0;
"4" = 0;
"5" = 0;
"6" = 0;
"7" = 0;
"8" = 0;
"9" = 0;
};
};
width = 639;
},
{
anchors = (
{
name = bottom;
pos = (314,-10);
},
{
name = center;
pos = (327,382);
},
{
name = top;
pos = (343,756);
}
);
layerId = m002;
shapes = (
{
closed = 1;
nodes = (
(97,0,o),
(111,-5,o),
(140,-7,cs),
(173,-9,o),
(241,-11,o),
(295,-11,cs),
(451,-11,o),
(587,65,o),
(587,211,cs),
(587,290,o),
(551,364,o),
(446,398,c),
(549,428,o),
(592,517,o),
(592,592,cs),
(592,687,o),
(524,776,o),
(377,777,cs),
(313,780,o),
(246,775,o),
(183,769,cs),
(155,766,o),
(126,757,o),
(126,724,cs),
(120,524,o),
(95,326,o),
(95,125,cs),
(95,92,o),
(95,59,o),
(97,26,cs)
);
},
{
closed = 1;
nodes = (
(233,67,o),
(205,68,o),
(176,69,c),
(176,203,o),
(180,280,o),
(185,357,c),
(322,369,o),
(505,344,o),
(505,216,cs),
(505,93,o),
(381,67,o),
(282,67,cs)
);
},
{
closed = 1;
nodes = (
(196,523,o),
(202,607,o),
(206,690,c),
(253,695,o),
(297,699,o),
(354,699,cs),
(467,699,o),
(509,660,o),
(509,593,cs),
(509,445,o),
(325,438,o),
(190,441,c)
);
}
);
userData = {
com.hugojourdan.ColorFlow = {
"0" = 0;
"1" = 0;
"10" = 0;
"11" = 0;
"2" = 0;
"3" = 0;
"4" = 0;
"5" = 0;
"6" = 0;
"7" = 0;
"8" = 0;
"9" = 0;
};
};
width = 649;
},
{
anchors = (
{
name = bottom;
pos = (310,0);
},
{
name = center;
pos = (323,382);
},
{
name = top;
pos = (336,764);
}
);
layerId = m003;
shapes = (
{
closed = 1;
nodes = (
(58,0,o),
(107,-5,o),
(136,-7,cs),
(169,-9,o),
(237,-11,o),
(291,-11,cs),
(497,-11,o),
(638,65,o),
(638,211,cs),
(638,290,o),
(597,364,o),
(482,398,c),
(595,428,o),
(643,517,o),
(643,592,cs),
(643,687,o),
(570,776,o),
(373,777,cs),
(309,777,o),
(242,775,o),
(179,769,cs),
(139,765,o),
(87,757,o),
(85,693,cs),
(81,524,o),
(56,326,o),
(56,125,cs),
(56,92,o),
(56,68,o),
(56,53,cs)
);
},
{
closed = 1;
nodes = (
(277,137,o),
(260,138,o),
(242,138,c),
(242,221,o),
(244,269,o),
(248,316,c),
(333,324,o),
(445,308,o),
(445,230,cs),
(445,153,o),
(369,137,o),
(307,137,cs)
);
},
{
closed = 1;
nodes = (
(260,525,o),
(263,581,o),
(266,635,c),
(295,639,o),
(322,642,o),
(359,642,cs),
(428,642,o),
(455,615,o),
(455,570,cs),
(455,472,o),
(340,468,o),
(256,470,c)
);
}
);
userData = {
com.hugojourdan.ColorFlow = {
"0" = 0;
"1" = 0;
"10" = 0;
"11" = 0;
"2" = 0;
"3" = 0;
"4" = 0;
"5" = 0;
"6" = 0;
"7" = 0;
"8" = 0;
"9" = 0;
};
};
width = 680;
}
);
metricLeft = B;
metricRight = B;
},
{
glyphname = B.alt2;
lastChange = "2023-03-07 15:48:50 +0000";
layers = (
{
anchors = (
{
name = bottom;
pos = (333,0);
},
{
name = center;
pos = (346,382);
},
{
name = top;
pos = (357,754);
}
);
layerId = m01;
shapes = (
{
closed = 1;
nodes = (
(154,33,l),
(143,34,o),
(131,35,o),
(108,37,cs),
(97,38,o),
(91,34,o),
(91,24,cs),
(91,17,o),
(92,9,o),
(120,6,cs),
(159,2,o),
(257,-8,o),
(308,-8,cs),
(512,-8,o),
(634,101,o),
(634,215,cs),
(634,278,o),
(593,353,o),
(480,394,c),
(561,419,o),
(618,475,o),
(618,557,cs),
(618,680,o),
(493,773,o),
(323,773,cs),
(284,773,o),
(225,770,o),
(213,761,c),
(211,769,o),
(204,773,o),
(195,773,cs),
(184,773,o),
(180,766,o),
(180,757,cs)
);
},
{
closed = 1;
nodes = (
(213,749,l),
(216,744,o),
(222,738,o),
(237,738,cs),
(250,738,o),
(279,744,o),
(319,744,cs),
(478,744,o),
(585,661,o),
(585,555,cs),
(585,497,o),
(545,439,o),
(444,410,c),
(419,416,o),
(366,418,o),
(351,418,cs),
(318,418,o),
(295,412,o),
(295,395,cs),
(295,380,o),
(318,374,o),
(360,374,cs),
(373,374,o),
(414,376,o),
(431,380,c),
(545,349,o),
(601,284,o),
(601,213,cs),
(601,111,o),
(480,22,o),
(308,22,cs),
(274,22,o),
(230,26,o),
(188,30,c)
);
}
);
userData = {
com.hugojourdan.ColorFlow = {
"0" = 0;
"1" = 0;
"10" = 0;
"11" = 0;
"2" = 0;
"3" = 0;
"4" = 0;
"5" = 0;
"6" = 0;
"7" = 0;
"8" = 0;
"9" = 0;
};
};
width = 706;
},
{
anchors = (
{
name = bottom;
pos = (329,11);
},
{
name = center;
pos = (365,382);
},
{
name = top;
pos = (389,764);
}
);
layerId = m002;
shapes = (
{
closed = 1;
nodes = (
(163,82,l),
(152,83,o),
(140,84,o),
(129,85,cs),
(103,86,o),
(90,67,o),
(90,47,cs),
(90,27,o),
(101,9,o),
(129,6,cs),
(168,2,o),
(292,-8,o),
(331,-8,cs),
(541,-8,o),
(663,101,o),
(663,215,cs),
(663,278,o),
(622,347,o),
(538,391,c),
(607,424,o),
(647,475,o),
(647,547,cs),
(647,680,o),
(522,773,o),
(342,773,cs),
(302,773,o),
(276,770,o),
(259,761,c),
(251,769,o),
(240,773,o),
(229,773,cs),
(209,773,o),
(189,760,o),
(188,734,cs)
);
},
{
closed = 1;
nodes = (
(267,692,l),
(271,691,o),
(275,691,o),
(279,691,cs),
(297,692,o),
(310,693,o),
(328,693,cs),
(483,693,o),
(566,642,o),
(566,545,cs),
(566,497,o),
(526,451,o),
(442,431,c),
(417,438,o),
(389,440,o),
(370,440,cs),
(335,440,o),
(274,430,o),
(274,395,cs),
(274,358,o),
(307,352,o),
(379,352,cs),
(396,352,o),
(413,353,o),
(430,358,c),
(518,337,o),
(581,276,o),
(581,213,cs),
(581,133,o),
(469,70,o),
(337,70,cs),
(306,70,o),
(275,72,o),
(244,75,c)
);
}
);
userData = {
com.hugojourdan.ColorFlow = {
"0" = 0;
"1" = 0;
"10" = 0;
"11" = 0;
"2" = 0;
"3" = 0;
"4" = 0;
"5" = 0;
"6" = 0;
"7" = 0;
"8" = 0;
"9" = 0;
};
};
width = 725;
},
{
anchors = (
{
name = bottom;
pos = (359,0);
},
{
name = center;
pos = (372,382);
},
{
name = top;
pos = (385,764);
}
);
layerId = m003;
shapes = (
{
closed = 1;
nodes = (
(136,154,l),
(125,155,o),
(113,156,o),
(102,157,cs),
(76,158,o),
(53,127,o),
(53,83,cs),
(53,31,o),
(74,12,o),
(102,8,cs),
(141,2,o),
(260,-8,o),
(338,-8,cs),
(599,-8,o),
(724,101,o),
(724,215,cs),
(724,280,o),
(677,355,o),
(585,391,c),
(655,432,o),
(708,485,o),
(708,557,cs),
(708,680,o),
(583,773,o),
(407,773,cs),
(377,773,o),
(352,765,o),
(336,751,c),
(310,767,o),
(275,773,o),
(245,773,cs),
(205,773,o),
(162,760,o),
(160,712,cs)
);
},
{
closed = 1;
nodes = (
(344,632,l),
(348,630,o),
(355,629,o),
(359,629,cs),
(377,630,o),
(387,633,o),
(405,633,cs),
(459,633,o),
(523,601,o),
(523,548,cs),
(523,510,o),
(501,460,o),
(469,448,c),
(442,463,o),
(421,470,o),
(402,470,cs),
(371,470,o),
(351,439,o),
(351,395,cs),
(351,347,o),
(368,312,o),
(402,312,cs),
(419,312,o),
(436,316,o),
(457,328,c),
(509,313,o),
(528,276,o),
(528,235,cs),
(528,187,o),
(478,140,o),
(387,140,cs),
(368,140,o),
(342,142,o),
(321,145,c)
);
}
);
userData = {
com.hugojourdan.ColorFlow = {
"0" = 0;
"1" = 0;
"10" = 0;
"11" = 0;
"2" = 0;
"3" = 0;
"4" = 0;
"5" = 0;
"6" = 0;
"7" = 0;
"8" = 0;
"9" = 0;
};
};
width = 766;
}
);
metricLeft = B;
metricRight = B;
},
{
glyphname = B.alt3;
lastChange = "2023-03-07 15:48:50 +0000";
layers = (
{
anchors = (
{
name = bottom;
pos = (304,-10);
},
{
name = center;
pos = (337,382);
},
{
name = top;
pos = (350,764);
}
);
layerId = m01;
shapes = (
{
closed = 1;
nodes = (
(240,760,o),
(296,767,o),
(340,767,cs),
(497,767,o),
(554,681,o),
(554,613,cs),
(554,536,o),
(494,471,o),
(351,440,c),
(326,445,o),
(287,447,o),
(227,447,cs),
(205,447,o),
(182,446,o),
(137,440,cs),
(109,436,o),
(104,428,o),
(104,420,cs),
(104,409,o),
(109,406,o),
(136,400,cs),
(159,395,o),
(185,394,o),
(215,394,cs),
(252,394,o),
(317,400,o),
(351,409,c),
(513,386,o),
(574,306,o),
(574,231,cs),
(574,132,o),
(465,5,o),
(270,5,cs),
(227,5,o),
(178,8,o),
(124,16,cs),
(107,18,o),
(98,15,o),
(98,4,cs),
(98,-6,o),
(104,-12,o),
(128,-15,cs),
(182,-22,o),
(217,-24,o),
(271,-24,cs),
(498,-24,o),
(607,117,o),
(607,231,cs),
(607,308,o),
(555,396,o),
(415,427,c),
(550,471,o),
(587,549,o),
(587,616,cs),
(587,704,o),
(512,794,o),
(352,797,cs),
(291,798,o),
(230,788,o),
(170,774,cs),
(150,768,o),
(147,759,o),
(147,751,cs),
(147,740,o),
(159,738,o),
(166,740,cs)
);
},
{
closed = 1;
nodes = (
(125,560,o),
(115,388,o),
(115,210,cs),
(115,155,o),
(115,98,o),
(117,16,cs),
(117,1,o),
(127,-6,o),
(136,-6,cs),
(146,-6,o),
(151,2,o),
(151,12,cs),
(148,95,o),
(149,157,o),
(149,212,cs),
(149,431,o),
(161,609,o),
(176,747,cs),
(178,768,o),
(180,783,o),
(162,783,cs),
(149,783,o),
(143,773,o),
(142,756,cs)
);
}
);
userData = {
com.hugojourdan.ColorFlow = {
"0" = 0;
"1" = 0;
"10" = 0;
"11" = 0;
"2" = 0;
"3" = 0;
"4" = 0;
"5" = 0;
"6" = 0;
"7" = 0;
"8" = 0;
"9" = 0;
};
};
width = 678;
},
{
anchors = (
{
name = bottom;
pos = (305,-12);
},
{
name = center;
pos = (346,382);
},
{
name = top;
pos = (359,783);
}
);
layerId = m002;
shapes = (
{
closed = 1;
nodes = (
(249,712,o),
(305,719,o),
(349,719,cs),
(462,719,o),
(525,671,o),
(525,613,cs),
(525,548,o),
(455,482,o),
(363,456,c),
(340,462,o),
(309,464,o),
(284,464,cs),
(245,464,o),
(206,462,o),
(161,454,cs),
(125,448,o),
(103,435,o),
(103,410,cs),
(103,386,o),
(122,375,o),
(143,371,cs),
(187,364,o),
(214,362,o),
(247,362,cs),
(291,362,o),
(332,367,o),
(369,377,c),
(478,363,o),
(544,308,o),
(544,231,cs),
(544,139,o),
(439,54,o),
(299,54,cs),
(237,54,o),
(187,60,o),
(137,66,cs),
(122,67,o),
(97,55,o),
(97,28,cs),
(97,7,o),
(113,-12,o),
(137,-15,cs),
(191,-22,o),
(246,-25,o),
(300,-24,cs),
(511,-17,o),
(626,108,o),
(626,231,cs),
(626,308,o),
(568,397,o),
(469,427,c),
(563,472,o),
(606,549,o),
(606,616,cs),
(606,704,o),
(531,794,o),
(361,797,cs),
(300,798,o),
(239,788,o),
(179,774,cs),
(159,768,o),
(150,753,o),
(150,737,cs),
(150,708,o),
(173,691,o),
(201,699,cs)
);
},
{
closed = 1;
nodes = (
(125,560,o),
(114,388,o),
(114,210,cs),
(114,155,o),
(114,101,o),
(116,47,cs),
(116,21,o),
(137,8,o),
(157,8,cs),
(177,8,o),
(198,21,o),
(197,47,cs),
(195,102,o),
(195,156,o),
(195,211,cs),
(195,430,o),
(207,608,o),
(220,728,cs),
(224,760,o),
(210,783,o),
(181,783,cs),
(160,783,o),
(142,767,o),
(140,743,cs)
);
}
);
userData = {
com.hugojourdan.ColorFlow = {
"0" = 0;
"1" = 0;
"10" = 0;
"11" = 0;
"2" = 0;
"3" = 0;
"4" = 0;
"5" = 0;
"6" = 0;
"7" = 0;
"8" = 0;
"9" = 0;
};
};
width = 687;
},
{
anchors = (
{
name = bottom;
pos = (348,0);
},
{
name = center;
pos = (361,382);
},
{
name = top;
pos = (374,764);
}
);
layerId = m003;
shapes = (
{
closed = 1;
nodes = (
(264,652,o),
(320,659,o),
(364,659,cs),
(447,659,o),
(494,647,o),
(494,597,cs),
(494,548,o),
(470,507,o),
(378,481,c),
(355,487,o),
(320,496,o),
(295,496,cs),
(256,496,o),
(191,492,o),
(146,484,cs),
(110,478,o),
(64,455,o),
(64,400,cs),
(64,346,o),
(107,335,o),
(128,331,cs),
(172,324,o),
(229,320,o),
(262,320,cs),
(301,320,o),
(347,336,o),
(384,346,c),
(471,335,o),
(501,308,o),
(501,245,cs),
(501,180,o),
(454,134,o),
(314,134,cs),
(252,134,o),
(182,140,o),
(132,146,cs),
(103,149,o),
(72,106,o),
(75,60,cs),
(78,7,o),
(117,-10,o),
(152,-15,cs),
(206,-22,o),
(261,-25,o),
(315,-24,cs),
(580,-17,o),
(695,108,o),
(695,231,cs),
(695,308,o),
(637,397,o),
(524,427,c),
(632,472,o),
(675,549,o),
(675,616,cs),
(675,704,o),
(600,794,o),
(376,797,cs),
(315,798,o),
(254,788,o),
(194,774,cs),
(174,768,o),
(165,753,o),
(165,737,cs),
(165,708,o),
(188,631,o),
(216,639,cs)
);
},
{
closed = 1;
nodes = (
(106,560,o),
(95,388,o),
(95,210,cs),
(95,155,o),
(95,101,o),
(97,47,cs),
(97,21,o),
(152,8,o),
(172,8,cs),
(192,8,o),
(283,21,o),
(282,47,cs),
(280,102,o),
(280,156,o),
(280,211,cs),
(280,430,o),
(292,608,o),
(303,709,cs),
(309,760,o),
(225,783,o),
(196,783,cs),
(147,783,o),
(123,767,o),
(120,736,cs)
);
}
);
userData = {
com.hugojourdan.ColorFlow = {
"0" = 0;
"1" = 0;
"10" = 0;
"11" = 0;
"2" = 0;
"3" = 0;
"4" = 0;
"5" = 0;
"6" = 0;
"7" = 0;
"8" = 0;
"9" = 0;
};
};
width = 737;
}
);
metricLeft = B;
metricRight = B;
},
{
glyphname = B.alt4;
lastChange = "2023-03-14 13:57:29 +0000";
layers = (
{
anchors = (
{
name = bottom;
pos = (320,-5);
},
{
name = center;
pos = (333,382);
},
{
name = top;
pos = (349,769);
}
);
layerId = m01;
shapes = (
{
closed = 1;
nodes = (
(167,-16,o),
(168,-6,o),
(168,2,cs),
(168,270,o),
(173,490,o),
(184,735,cs),
(184,745,o),
(179,753,o),
(169,753,cs),
(157,753,o),
(151,745,o),
(150,729,cs),
(140,490,o),
(134,270,o),
(134,2,cs),
(134,-10,o),
(136,-18,o),
(155,-17,cs)
);
},
{
closed = 1;
nodes = (
(394,-28,o),
(596,33,o),
(596,238,cs),
(596,319,o),
(549,391,o),
(421,409,c),
(564,456,o),
(602,540,o),
(602,610,cs),
(602,725,o),
(491,787,o),
(353,785,cs),
(284,784,o),
(227,774,o),
(137,753,cs),
(124,750,o),
(115,744,o),
(115,732,cs),
(115,719,o),
(128,718,o),
(150,723,cs),
(225,743,o),
(290,756,o),
(350,756,cs),
(506,756,o),
(569,682,o),
(569,610,cs),
(569,483,o),
(439,419,o),
(168,388,cs),
(157,387,o),
(147,379,o),
(147,369,cs),
(147,353,o),
(159,352,o),
(170,354,cs),
(258,371,o),
(318,381,o),
(362,381,cs),
(499,382,o),
(563,330,o),
(563,237,cs),
(563,73,o),
(407,2,o),
(233,2,cs),
(185,2,o),
(164,5,o),
(118,10,cs),
(107,11,o),
(102,7,o),
(102,0,cs),
(102,-8,o),
(106,-14,o),
(122,-18,cs),
(157,-26,o),
(189,-28,o),
(227,-28,cs)
);
}
);
userData = {
com.hugojourdan.ColorFlow = {
"0" = 0;
"1" = 0;
"10" = 0;
"11" = 0;
"2" = 0;
"3" = 0;
"4" = 0;
"5" = 0;
"6" = 0;
"7" = 0;
"8" = 0;
"9" = 0;
};
};
width = 667;
},
{
anchors = (
{
name = bottom;
pos = (288,-12);
},
{
name = center;
pos = (339,382);
},
{
name = top;
pos = (375,777);
}
);
layerId = m002;
shapes = (
{
closed = 1;
nodes = (
(193,2,o),
(211,19,o),
(211,41,cs),
(211,270,o),
(217,490,o),
(227,717,cs),
(228,745,o),
(208,758,o),
(187,758,cs),
(167,758,o),
(147,745,o),
(146,717,cs),
(136,490,o),
(130,270,o),
(130,41,cs),
(130,20,o),
(149,0,o),
(171,1,cs)
);
},
{
closed = 1;
nodes = (
(403,-28,o),
(612,33,o),
(612,233,cs),
(612,330,o),
(556,384,o),
(477,411,c),
(574,452,o),
(624,534,o),
(624,610,cs),
(624,725,o),
(499,785,o),
(369,785,cs),
(300,785,o),
(233,771,o),
(165,758,cs),
(141,753,o),
(114,739,o),
(114,717,cs),
(114,691,o),
(139,671,o),
(165,677,cs),
(231,693,o),
(306,707,o),
(366,707,cs),
(474,707,o),
(543,669,o),
(543,610,cs),
(543,514,o),
(446,443,o),
(188,414,cs),
(156,410,o),
(144,389,o),
(144,371,cs),
(144,339,o),
(171,328,o),
(200,333,cs),
(264,346,o),
(324,357,o),
(368,357,cs),
(477,357,o),
(531,306,o),
(531,238,cs),
(531,110,o),
(404,50,o),
(239,50,cs),
(205,50,o),
(170,52,o),
(136,55,cs),
(115,56,o),
(99,40,o),
(99,18,cs),
(99,-2,o),
(110,-14,o),
(139,-21,cs),
(163,-26,o),
(195,-28,o),
(233,-28,cs)
);
}
);
userData = {
com.hugojourdan.ColorFlow = {
"0" = 0;
"1" = 0;
"10" = 0;
"11" = 0;
"2" = 0;
"3" = 0;
"4" = 0;
"5" = 0;
"6" = 0;
"7" = 0;
"8" = 0;
"9" = 0;
};
};
width = 673;
},
{
anchors = (
{
name = bottom;
pos = (330,0);
},
{
name = center;
pos = (343,382);
},
{
name = top;
pos = (356,764);
}
);
layerId = m003;
shapes = (
{
closed = 1;
nodes = (
(197,2,o),
(285,19,o),
(285,41,cs),
(285,270,o),
(291,490,o),
(300,700,cs),
(302,745,o),
(247,758,o),
(204,758,cs),
(156,758,o),
(117,737,o),
(115,700,cs),
(106,490,o),
(100,270,o),
(100,41,cs),
(100,20,o),
(153,0,o),
(175,1,cs)
);
},
{
closed = 1;
nodes = (
(461,-28,o),
(670,50,o),
(670,233,cs),
(670,330,o),
(614,384,o),
(521,411,c),
(632,452,o),
(682,534,o),
(682,610,cs),
(682,725,o),
(541,785,o),
(373,785,cs),
(318,785,o),
(237,774,o),
(182,763,cs),
(123,751,o),
(74,732,o),
(74,680,cs),
(74,630,o),
(109,611,o),
(169,617,cs),
(236,624,o),
(310,647,o),
(370,647,cs),
(438,647,o),
(497,639,o),
(497,580,cs),
(497,514,o),
(410,471,o),
(192,444,cs),
(160,440,o),
(148,389,o),
(148,371,cs),
(148,339,o),
(175,288,o),
(204,293,cs),
(268,306,o),
(328,317,o),
(372,317,cs),
(441,317,o),
(475,306,o),
(475,238,cs),
(475,144,o),
(368,120,o),
(243,120,cs),
(209,120,o),
(174,124,o),
(140,125,cs),
(85,126,o),
(59,89,o),
(59,58,cs),
(59,19,o),
(79,-12,o),
(128,-20,cs),
(167,-26,o),
(210,-28,o),
(241,-28,cs)
);
}
);
userData = {
com.hugojourdan.ColorFlow = {
"0" = 0;
"1" = 0;
"10" = 0;
"11" = 0;
"2" = 0;
"3" = 0;
"4" = 0;
"5" = 0;
"6" = 0;
"7" = 0;
"8" = 0;
"9" = 0;
};
};
width = 712;
}
);
metricLeft = B;
metricRight = B;
},
{
color = 6;
glyphname = B.alt5;
lastChange = "2023-03-22 14:50:42 +0000";
layers = (
{
anchors = (
{
name = bottom;
pos = (341,10);
},
{
name = center;
pos = (354,382);
},
{
name = top;
pos = (367,747);
}
);
layerId = m01;
shapes = (
{
closed = 1;
nodes = (
(504,-5,o),
(639,77,o),
(639,241,cs),
(639,324,o),
(597,391,o),
(483,425,c),
(572,457,o),
(600,514,o),
(600,576,cs),
(600,696,o),
(453,772,o),
(230,772,cs),
(149,772,o),
(116,766,o),
(116,747,cs),
(116,737,o),
(120,733,o),
(147,736,cs),
(179,740,o),
(211,742,o),
(244,742,cs),
(445,742,o),
(567,667,o),
(567,576,cs),
(567,488,o),
(506,443,o),
(388,430,c),
(305,431,o),
(234,420,o),
(185,409,cs),
(166,405,o),
(162,399,o),
(162,391,cs),
(162,382,o),
(172,376,o),
(186,379,cs),
(237,390,o),
(345,405,o),
(390,405,cs),
(530,405,o),
(606,341,o),
(606,236,cs),
(606,91,o),
(475,25,o),
(131,25,cs),
(107,25,o),
(98,22,o),
(98,10,cs),
(98,-2,o),
(106,-5,o),
(129,-5,cs)
);
},
{
closed = 1;
nodes = (
(166,-2,o),
(166,10,o),
(167,21,cs),
(182,262,o),
(191,482,o),
(206,746,cs),
(206,755,o),
(205,766,o),
(188,766,cs),
(180,766,o),
(173,759,o),
(173,746,cs),
(158,482,o),
(151,261,o),
(134,21,cs),
(133,11,o),
(136,-2,o),
(148,-2,cs)
);
}
);
userData = {
com.hugojourdan.ColorFlow = {
"0" = 0;
"1" = 0;
"10" = 0;
"11" = 0;
"2" = 0;
"3" = 0;
"4" = 0;
"5" = 0;
"6" = 0;
"7" = 0;
"8" = 0;
"9" = 0;
};
};
width = 710;
},
{
anchors = (
{
name = bottom;
pos = (349,15);
},
{
name = center;
pos = (362,382);
},
{
name = top;
pos = (387,746);
}
);
layerId = m002;
shapes = (
{
closed = 1;
nodes = (
(511,3,o),
(657,74,o),
(657,241,cs),
(657,324,o),
(608,392,o),
(524,426,c),
(583,458,o),
(618,514,o),
(618,576,cs),
(618,696,o),
(471,772,o),
(238,772,cs),
(155,772,o),
(111,755,o),
(114,724,cs),
(114,703,o),
(133,687,o),
(155,688,cs),
(187,692,o),
(219,694,o),
(252,694,cs),
(413,694,o),
(537,643,o),
(537,576,cs),
(537,509,o),
(487,466,o),
(396,453,c),
(313,454,o),
(278,450,o),
(235,433,cs),
(216,426,o),
(203,409,o),
(203,392,cs),
(203,367,o),
(225,353,o),
(254,359,cs),
(305,370,o),
(353,376,o),
(398,376,cs),
(503,376,o),
(575,320,o),
(575,240,cs),
(575,126,o),
(446,75,o),
(149,72,cs),
(114,72,o),
(93,57,o),
(93,32,cs),
(93,9,o),
(115,-7,o),
(147,-6,cs)
);
},
{
closed = 1;
nodes = (
(193,2,o),
(211,15,o),
(213,41,cs),
(226,262,o),
(235,482,o),
(248,703,cs),
(250,729,o),
(228,742,o),
(208,742,cs),
(187,742,o),
(169,729,o),
(167,703,cs),
(154,482,o),
(150,261,o),
(132,41,cs),
(131,15,o),
(152,2,o),
(172,2,cs)
);
}
);
userData = {
com.hugojourdan.ColorFlow = {
"0" = 0;
"1" = 0;
"10" = 0;
"11" = 0;
"2" = 0;
"3" = 0;
"4" = 0;
"5" = 0;
"6" = 0;
"7" = 0;
"8" = 0;
"9" = 0;
};
};
width = 718;
},
{
anchors = (
{
name = bottom;
pos = (360,0);
},
{
name = center;
pos = (373,382);
},
{
name = top;
pos = (386,764);
}
);
layerId = m003;
shapes = (
{
closed = 1;
nodes = (
(555,-5,o),
(722,74,o),
(722,241,cs),
(722,324,o),
(673,392,o),
(575,426,c),
(648,458,o),
(683,514,o),
(683,576,cs),
(683,696,o),
(536,772,o),
(249,772,cs),
(132,772,o),
(68,755,o),
(75,685,cs),
(77,663,o),
(90,627,o),
(132,628,cs),
(164,629,o),
(230,634,o),
(263,634,cs),
(424,634,o),
(503,609,o),
(503,555,cs),
(503,509,o),
(468,492,o),
(407,483,c),
(341,491,o),
(284,479,o),
(246,458,cs),
(228,448,o),
(204,437,o),
(204,392,cs),
(204,339,o),
(281,306,o),
(340,326,cs),
(364,334,o),
(388,339,o),
(409,339,cs),
(484,339,o),
(526,305,o),
(526,248,cs),
(526,166,o),
(423,142,o),
(126,142,cs),
(81,142,o),
(60,121,o),
(60,73,cs),
(60,21,o),
(103,-5,o),
(204,-5,cs)
);
},
{
closed = 1;
nodes = (
(249,2,o),
(292,15,o),
(295,64,cs),
(307,262,o),
(316,482,o),
(328,685,cs),
(331,729,o),
(278,742,o),
(232,742,cs),
(178,742,o),
(146,729,o),
(144,703,cs),
(131,482,o),
(127,261,o),
(112,61,cs),
(109,26,o),
(144,2,o),
(183,2,cs)
);
}
);
userData = {
com.hugojourdan.ColorFlow = {
"0" = 0;
"1" = 0;
"10" = 0;
"11" = 0;
"2" = 0;
"3" = 0;
"4" = 0;
"5" = 0;
"6" = 0;
"7" = 0;
"8" = 0;
"9" = 0;
};
};
width = 763;
}
);
metricLeft = B;
metricRight = B;
},
{
glyphname = C;
lastChange = "2023-03-03 13:12:05 +0000";
layers = (
{
anchors = (
{
name = bottom;
pos = (404,-9);
},
{
name = top;
pos = (404,774);
}
);
layerId = m01;
name = Regular;
shapes = (
{
closed = 1;
nodes = (
(596,739,o),
(503,780,o),
(405,780,cs),
(211,780,o),
(74,619,o),
(74,367,cs),
(74,120,o),
(190,-22,o),
(384,-22,cs),
(491,-22,o),
(595,22,o),
(665,96,cs),
(674,106,o),
(677,112,o),
(677,118,cs),
(677,124,o),
(670,131,o),
(662,131,cs),
(656,131,o),
(651,126,o),
(641,114,cs),
(582,43,o),
(472,8,o),
(383,8,cs),
(210,8,o),
(107,138,o),
(107,362,cs),
(107,598,o),
(229,750,o),
(397,750,cs),
(486,750,o),
(546,728,o),
(622,680,cs),
(633,673,o),
(637,671,o),
(642,671,cs),
(647,671,o),
(653,678,o),
(653,685,cs),
(653,690,o),
(652,694,o),
(638,705,cs)
);
}
);
userData = {
com.hugojourdan.ColorFlow = {
"0" = 0;
"1" = 0;
"10" = 0;
"11" = 0;
"2" = 0;
"3" = 0;
"4" = 0;
"5" = 0;
"6" = 0;
"7" = 0;
"8" = 0;
"9" = 0;
};
};
width = 755;
},
{
anchors = (
{
name = bottom;
pos = (399,0);
},
{
name = top;
pos = (419,755);
}
);
layerId = m002;
name = Regular;
shapes = (
{
closed = 1;
nodes = (
(606,743,o),
(511,780,o),
(413,780,cs),
(209,780,o),
(72,619,o),
(72,367,cs),
(72,120,o),
(188,-22,o),
(392,-22,cs),
(499,-22,o),
(603,22,o),
(673,96,cs),
(695,119,o),
(705,136,o),
(705,152,cs),
(705,174,o),
(690,190,o),
(670,190,cs),
(656,190,o),
(645,185,o),
(635,173,cs),
(576,102,o),
(480,56,o),
(391,56,cs),
(252,56,o),
(154,182,o),
(154,362,cs),
(154,573,o),
(253,702,o),
(405,702,cs),
(494,702,o),
(542,684,o),
(621,629,cs),
(632,622,o),
(641,612,o),
(655,612,cs),
(675,611,o),
(694,631,o),
(694,654,cs),
(694,663,o),
(690,673,o),
(682,679,cs)
);
}
);
userData = {
com.hugojourdan.ColorFlow = {
"0" = 0;
"1" = 0;
"10" = 0;
"11" = 0;
"2" = 0;
"3" = 0;
"4" = 0;
"5" = 0;
"6" = 0;
"7" = 0;
"8" = 0;
"9" = 0;
};
};
width = 781;
},
{
anchors = (
{
name = bottom;
pos = (381,0);
},
{
name = top;
pos = (408,764);
}
);
layerId = m003;
name = Regular;
shapes = (
{
closed = 1;
nodes = (
(603,760,o),
(508,780,o),
(430,780,cs),
(206,780,o),
(39,619,o),
(39,367,cs),
(39,120,o),
(185,-22,o),
(397,-22,cs),
(496,-22,o),
(603,9,o),
(673,77,cs),
(696,99,o),
(712,123,o),
(712,148,cs),
(712,196,o),
(652,240,o),
(621,240,cs),
(607,240,o),
(597,232,o),
(585,221,cs),
(528,171,o),
(482,146,o),
(408,146,cs),
(283,146,o),
(231,244,o),
(231,376,cs),
(231,544,o),
(317,623,o),
(430,623,cs),
(482,623,o),
(525,608,o),
(587,570,cs),
(598,563,o),
(614,553,o),
(632,553,cs),
(656,553,o),
(707,600,o),
(707,652,cs),
(707,679,o),
(684,697,o),
(676,703,cs)
);
}
);
userData = {
com.hugojourdan.ColorFlow = {
"0" = 0;
"1" = 0;
"10" = 0;
"11" = 0;
"2" = 0;
"3" = 0;
"4" = 0;
"5" = 0;
"6" = 0;
"7" = 0;
"8" = 0;
"9" = 0;
};
};
width = 746;
}
);
unicode = 67;
},
{
glyphname = C.alt1;
lastChange = "2023-03-03 13:12:16 +0000";
layers = (
{
anchors = (
{
name = bottom;
pos = (435,-2);
},
{
name = top;
pos = (437,774);
}
);
layerId = m01;
shapes = (
{
closed = 1;
nodes = (
(510,-14,o),
(585,17,o),
(654,84,cs),
(661,90,o),
(663,94,o),
(663,99,cs),
(663,109,o),
(655,116,o),
(648,116,cs),
(644,116,o),
(640,112,o),
(630,102,cs),
(571,43,o),
(491,16,o),
(422,16,cs),
(209,16,o),
(107,207,o),
(107,368,cs),
(107,566,o),
(264,742,o),
(432,742,cs),
(493,742,o),
(550,726,o),
(616,671,cs),
(626,662,o),
(629,662,o),
(633,662,cs),
(639,662,o),
(647,668,o),
(647,676,cs),
(647,682,o),
(645,686,o),
(637,693,cs),
(579,742,o),
(506,772,o),
(432,772,cs),
(240,772,o),
(74,577,o),
(74,369,cs),
(74,150,o),
(220,-14,o),
(422,-14,cs)
);
}
);
userData = {
com.hugojourdan.ColorFlow = {
"0" = 0;
"1" = 0;
"10" = 0;
"11" = 0;
"2" = 0;
"3" = 0;
"4" = 0;
"5" = 0;
"6" = 0;
"7" = 0;
"8" = 0;
"9" = 0;
};
};
width = 742;
},
{
anchors = (
{
name = bottom;
pos = (454,4);
},
{
name = top;
pos = (428,752);
}
);
layerId = m002;
shapes = (
{
closed = 1;
nodes = (
(522,-14,o),
(590,17,o),
(644,63,cs),
(686,99,o),
(694,117,o),
(694,136,cs),
(694,158,o),
(678,174,o),
(658,174,cs),
(648,174,o),
(632,170,o),
(617,152,cs),
(568,93,o),
(499,64,o),
(430,64,cs),
(233,64,o),
(154,240,o),
(154,368,cs),
(154,535,o),
(285,694,o),
(440,694,cs),
(501,694,o),
(557,669,o),
(609,622,cs),
(617,614,o),
(627,610,o),
(636,610,cs),
(658,610,o),
(678,630,o),
(678,652,cs),
(678,661,o),
(675,670,o),
(666,679,cs),
(596,744,o),
(520,772,o),
(446,772,cs),
(251,772,o),
(72,580,o),
(72,369,cs),
(72,150,o),
(222,-14,o),
(434,-14,cs)
);
}
);
userData = {
com.hugojourdan.ColorFlow = {
"0" = 0;
"1" = 0;
"10" = 0;
"11" = 0;
"2" = 0;
"3" = 0;
"4" = 0;
"5" = 0;
"6" = 0;
"7" = 0;
"8" = 0;
"9" = 0;
};
};
width = 771;
},
{
anchors = (
{
name = bottom;
pos = (424,0);
},
{
name = top;
pos = (431,768);
}
);
layerId = m003;
shapes = (
{
closed = 1;
nodes = (
(523,-14,o),
(607,17,o),
(661,63,cs),
(703,99,o),
(711,117,o),
(711,141,cs),
(711,175,o),
(680,234,o),
(634,234,cs),
(617,234,o),
(605,232,o),
(585,212,cs),
(544,171,o),
(484,154,o),
(427,154,cs),
(310,154,o),
(231,240,o),
(231,368,cs),
(231,535,o),
(362,614,o),
(443,614,cs),
(501,614,o),
(539,600,o),
(596,559,cs),
(609,549,o),
(623,546,o),
(631,546,cs),
(662,546,o),
(705,602,o),
(705,643,cs),
(705,660,o),
(702,673,o),
(687,686,cs),
(613,748,o),
(530,772,o),
(443,772,cs),
(218,772,o),
(39,580,o),
(39,369,cs),
(39,150,o),
(189,-14,o),
(431,-14,cs)
);
}
);
userData = {
com.hugojourdan.ColorFlow = {
"0" = 0;
"1" = 0;
"10" = 0;
"11" = 0;
"2" = 0;
"3" = 0;
"4" = 0;
"5" = 0;
"6" = 0;
"7" = 0;
"8" = 0;
"9" = 0;
};
};
width = 746;
}
);
metricLeft = C;
metricRight = C;
},
{
glyphname = C.alt2;
lastChange = "2023-03-03 13:12:25 +0000";
layers = (
{
anchors = (
{
name = bottom;
pos = (394,0);
},
{
name = top;
pos = (443,774);
}
);
layerId = m01;
shapes = (
{
closed = 1;
nodes = (
(610,732,o),
(526,769,o),
(435,769,cs),
(275,769,o),
(73,664,o),
(73,345,cs),
(73,101,o),
(220,-20,o),
(404,-20,cs),
(496,-20,o),
(595,18,o),
(661,87,cs),
(670,96,o),
(671,100,o),
(671,106,cs),
(671,111,o),
(665,119,o),
(656,119,cs),
(652,119,o),
(650,118,o),
(639,107,cs),
(580,53,o),
(506,10,o),
(404,10,cs),
(230,10,o),
(106,129,o),
(106,345,cs),
(106,596,o),
(243,739,o),
(435,739,cs),
(532,739,o),
(611,688,o),
(629,672,cs),
(635,667,o),
(639,664,o),
(643,664,cs),
(651,664,o),
(658,672,o),
(658,679,cs),
(658,684,o),
(656,688,o),
(648,695,cs)
);
}
);
userData = {
com.hugojourdan.ColorFlow = {
"0" = 0;
"1" = 0;
"10" = 0;
"11" = 0;
"2" = 0;
"3" = 0;
"4" = 0;
"5" = 0;
"6" = 0;
"7" = 0;
"8" = 0;
"9" = 0;
};
};
width = 750;
},
{
anchors = (
{
name = bottom;
pos = (397,0);
},
{
name = top;
pos = (418,750);
}
);
layerId = m002;
shapes = (
{
closed = 1;
nodes = (
(618,741,o),
(534,769,o),
(449,769,cs),
(279,769,o),
(71,664,o),
(71,345,cs),
(71,101,o),
(224,-20,o),
(418,-20,cs),
(510,-20,o),
(603,12,o),
(669,81,cs),
(691,104,o),
(703,121,o),
(703,139,cs),
(703,161,o),
(688,177,o),
(667,177,cs),
(657,177,o),
(645,176,o),
(636,165,cs),
(594,111,o),
(518,58,o),
(414,58,cs),
(265,58,o),
(153,151,o),
(153,345,cs),
(153,579,o),
(276,691,o),
(452,691,cs),
(549,691,o),
(607,639,o),
(625,623,cs),
(633,615,o),
(643,611,o),
(652,611,cs),
(674,611,o),
(694,631,o),
(694,653,cs),
(694,662,o),
(691,671,o),
(682,680,cs)
);
}
);
userData = {
com.hugojourdan.ColorFlow = {
"0" = 0;
"1" = 0;
"10" = 0;
"11" = 0;
"2" = 0;
"3" = 0;
"4" = 0;
"5" = 0;
"6" = 0;
"7" = 0;
"8" = 0;
"9" = 0;
};
};
width = 780;
},
{
anchors = (
{
name = bottom;
pos = (398,-4);
},
{
name = top;
pos = (424,754);
}
);
layerId = m003;
shapes = (
{
closed = 1;
nodes = (
(632,737,o),
(531,769,o),
(446,769,cs),
(246,769,o),
(38,664,o),
(38,345,cs),
(38,118,o),
(191,-20,o),
(415,-20,cs),
(516,-20,o),
(598,5,o),
(677,64,cs),
(702,83,o),
(720,110,o),
(720,135,cs),
(720,183,o),
(660,227,o),
(632,227,cs),
(615,227,o),
(605,219,o),
(586,201,cs),
(547,166,o),
(491,148,o),
(421,148,cs),
(332,148,o),
(220,201,o),
(220,345,cs),
(220,529,o),
(343,611,o),
(449,611,cs),
(536,611,o),
(574,587,o),
(603,566,cs),
(610,560,o),
(619,553,o),
(632,553,cs),
(664,553,o),
(711,600,o),
(711,651,cs),
(711,672,o),
(691,689,o),
(680,698,cs)
);
}
);
userData = {
com.hugojourdan.ColorFlow = {
"0" = 0;
"1" = 0;
"10" = 0;
"11" = 0;
"2" = 0;
"3" = 0;
"4" = 0;
"5" = 0;
"6" = 0;
"7" = 0;
"8" = 0;
"9" = 0;
};
};
width = 755;
}
);
metricLeft = C;
metricRight = C;
},
{
glyphname = C.alt3;
lastChange = "2023-03-03 13:12:33 +0000";
layers = (
{
anchors = (
{
name = bottom;
pos = (394,-5);
},
{
name = top;
pos = (433,774);
}
);
layerId = m01;
shapes = (
{
closed = 1;
nodes = (
(605,737,o),
(531,771,o),
(442,771,cs),
(235,771,o),
(74,594,o),
(74,365,cs),
(74,167,o),
(198,-20,o),
(382,-20,cs),
(499,-20,o),
(608,39,o),
(660,111,cs),
(664,117,o),
(666,120,o),
(666,125,cs),
(666,132,o),
(657,137,o),
(649,137,cs),
(644,137,o),
(641,134,o),
(635,127,cs),
(565,43,o),
(469,10,o),
(382,10,cs),
(219,10,o),
(107,179,o),
(107,365,cs),
(107,613,o),
(289,741,o),
(442,741,cs),
(517,741,o),
(592,708,o),
(634,668,cs),
(642,660,o),
(645,660,o),
(648,660,cs),
(655,660,o),
(663,667,o),
(663,676,cs),
(663,680,o),
(662,683,o),
(658,687,cs)
);
}
);
userData = {
com.hugojourdan.ColorFlow = {
"0" = 0;
"1" = 0;
"10" = 0;
"11" = 0;
"2" = 0;
"3" = 0;
"4" = 0;
"5" = 0;
"6" = 0;
"7" = 0;
"8" = 0;
"9" = 0;
};
};
width = 744;
},
{
anchors = (
{
name = bottom;
pos = (417,-9);
},
{
name = top;
pos = (450,780);
}
);
layerId = m002;
shapes = (
{
closed = 1;
nodes = (
(627,735,o),
(539,771,o),
(450,771,cs),
(233,771,o),
(72,594,o),
(72,365,cs),
(72,167,o),
(196,-20,o),
(390,-20,cs),
(507,-20,o),
(628,39,o),
(693,130,cs),
(698,137,o),
(699,145,o),
(699,152,cs),
(699,174,o),
(679,190,o),
(657,190,cs),
(643,190,o),
(634,183,o),
(621,166,cs),
(573,103,o),
(478,58,o),
(391,58,cs),
(243,58,o),
(153,215,o),
(153,379,cs),
(153,605,o),
(330,693,o),
(452,693,cs),
(527,693,o),
(591,655,o),
(629,609,cs),
(637,600,o),
(647,597,o),
(656,597,cs),
(678,597,o),
(698,617,o),
(698,640,cs),
(698,649,o),
(694,658,o),
(686,667,cs)
);
}
);
userData = {
com.hugojourdan.ColorFlow = {
"0" = 0;
"1" = 0;
"10" = 0;
"11" = 0;
"2" = 0;
"3" = 0;
"4" = 0;
"5" = 0;
"6" = 0;
"7" = 0;
"8" = 0;
"9" = 0;
};
};
width = 775;
},
{
anchors = (
{
name = bottom;
pos = (376,0);
},
{
name = top;
pos = (412,762);
}
);
layerId = m003;
shapes = (
{
closed = 1;
nodes = (
(656,725,o),
(540,771,o),
(422,771,cs),
(200,771,o),
(39,594,o),
(39,365,cs),
(39,167,o),
(163,-20,o),
(387,-20,cs),
(515,-20,o),
(641,39,o),
(705,124,cs),
(716,139,o),
(719,156,o),
(719,168,cs),
(719,212,o),
(669,253,o),
(627,253,cs),
(605,253,o),
(589,242,o),
(573,225,cs),
(523,172,o),
(472,148,o),
(409,148,cs),
(274,148,o),
(230,255,o),
(230,379,cs),
(230,555,o),
(363,613,o),
(442,613,cs),
(493,613,o),
(545,598,o),
(587,556,cs),
(595,549,o),
(611,535,o),
(631,535,cs),
(666,535,o),
(716,580,o),
(716,619,cs),
(716,631,o),
(712,645,o),
(705,656,cs)
);
}
);
userData = {
com.hugojourdan.ColorFlow = {
"0" = 0;
"1" = 0;
"10" = 0;
"11" = 0;
"2" = 0;
"3" = 0;
"4" = 0;
"5" = 0;
"6" = 0;
"7" = 0;
"8" = 0;
"9" = 0;
};
};
width = 753;
}
);
metricLeft = C;
metricRight = C;
},
{
glyphname = C.alt4;
lastChange = "2023-03-03 13:12:39 +0000";
layers = (
{
anchors = (
{
name = bottom;
pos = (414,0);
},
{
name = top;
pos = (421,778);
}
);
layerId = m01;
shapes = (
{
closed = 1;
nodes = (
(591,730,o),
(509,773,o),
(428,773,cs),
(260,773,o),
(73,594,o),
(73,350,cs),
(73,164,o),
(190,-15,o),
(380,-15,cs),
(466,-15,o),
(557,20,o),
(646,97,cs),
(654,104,o),
(659,109,o),
(659,114,cs),
(659,122,o),
(651,130,o),
(643,130,cs),
(637,130,o),
(634,128,o),
(624,118,cs),
(567,61,o),
(468,15,o),
(379,15,cs),
(214,15,o),
(105,174,o),
(105,356,cs),
(105,579,o),
(283,743,o),
(429,743,cs),
(492,743,o),
(567,709,o),
(608,674,cs),
(617,666,o),
(621,664,o),
(624,664,cs),
(630,664,o),
(639,671,o),
(639,679,cs),
(639,684,o),
(636,690,o),
(630,695,cs)
);
}
);
userData = {
com.hugojourdan.ColorFlow = {
"0" = 0;
"1" = 0;
"10" = 0;
"11" = 0;
"2" = 0;
"3" = 0;
"4" = 0;
"5" = 0;
"6" = 0;
"7" = 0;
"8" = 0;
"9" = 0;
};
};
width = 737;
},
{
anchors = (
{
name = bottom;
pos = (399,0);
},
{
name = top;
pos = (432,755);
}
);
layerId = m002;
shapes = (
{
closed = 1;
nodes = (
(591,743,o),
(511,773,o),
(436,773,cs),
(238,773,o),
(71,569,o),
(71,350,cs),
(71,164,o),
(188,-15,o),
(388,-15,cs),
(474,-15,o),
(565,20,o),
(654,97,cs),
(672,112,o),
(684,129,o),
(684,148,cs),
(684,169,o),
(669,184,o),
(648,184,cs),
(638,184,o),
(626,181,o),
(616,171,cs),
(559,114,o),
(476,63,o),
(387,63,cs),
(239,63,o),
(154,198,o),
(154,356,cs),
(154,593,o),
(326,695,o),
(437,695,cs),
(500,695,o),
(572,659,o),
(611,618,cs),
(619,609,o),
(629,606,o),
(638,606,cs),
(660,606,o),
(680,624,o),
(680,646,cs),
(680,655,o),
(676,665,o),
(668,673,cs)
);
}
);
userData = {
com.hugojourdan.ColorFlow = {
"0" = 0;
"1" = 0;
"10" = 0;
"11" = 0;
"2" = 0;
"3" = 0;
"4" = 0;
"5" = 0;
"6" = 0;
"7" = 0;
"8" = 0;
"9" = 0;
};
};
width = 760;
},
{
anchors = (
{
name = bottom;
pos = (378,3);
},
{
name = top;
pos = (434,771);
}
);
layerId = m003;
shapes = (
{
closed = 1;
nodes = (
(606,745,o),
(521,773,o),
(433,773,cs),
(205,773,o),
(38,569,o),
(38,350,cs),
(38,164,o),
(155,-15,o),
(385,-15,cs),
(491,-15,o),
(582,20,o),
(671,97,cs),
(689,112,o),
(701,129,o),
(701,158,cs),
(701,191,o),
(655,253,o),
(614,253,cs),
(604,253,o),
(592,250,o),
(582,240,cs),
(525,183,o),
(470,153,o),
(398,153,cs),
(316,153,o),
(231,198,o),
(231,356,cs),
(231,536,o),
(357,615,o),
(447,615,cs),
(516,615,o),
(555,589,o),
(574,574,cs),
(600,554,o),
(613,545,o),
(629,545,cs),
(663,545,o),
(703,601,o),
(703,641,cs),
(703,653,o),
(700,672,o),
(668,697,cs)
);
}
);
userData = {
com.hugojourdan.ColorFlow = {
"0" = 0;
"1" = 0;
"10" = 0;
"11" = 0;
"2" = 0;
"3" = 0;
"4" = 0;
"5" = 0;
"6" = 0;
"7" = 0;
"8" = 0;
"9" = 0;
};
};
width = 735;
}
);
metricLeft = C;
metricRight = C;
},
{
glyphname = D;
lastChange = "2023-03-03 13:13:17 +0000";
layers = (
{
anchors = (
{
name = bottom;
pos = (316,0);
},
{
name = center;
pos = (196,392);
},
{
name = top;
pos = (370,767);
}
);
layerId = m01;
shapes = (
{
closed = 1;
nodes = (
(90,-8,o),
(93,-19,o),
(105,-19,cs),
(112,-19,o),
(116,-17,o),
(124,-12,c),
(169,-21,o),
(234,-25,o),
(274,-25,cs),
(553,-25,o),
(706,189,o),
(706,394,cs),
(706,583,o),
(577,764,o),
(316,764,cs),
(266,764,o),
(211,757,o),
(151,744,cs),
(133,740,o),
(131,722,o),
(131,705,cs),
(129,616,o),
(124,528,o),
(118,440,cs),
(109,300,o),
(98,160,o),
(91,20,cs)
);
},
{
closed = 1;
nodes = (
(137,221,o),
(157,514,o),
(163,716,c),
(194,725,o),
(287,735,o),
(329,735,cs),
(497,735,o),
(673,619,o),
(673,397,cs),
(673,159,o),
(491,4,o),
(271,4,cs),
(245,4,o),
(148,12,o),
(125,19,c)
);
}
);
userData = {
com.hugojourdan.ColorFlow = {
"0" = 0;
"1" = 0;
"10" = 0;
"11" = 0;
"2" = 0;
"3" = 0;
"4" = 0;
"5" = 0;
"6" = 0;
"7" = 0;
"8" = 0;
"9" = 0;
};
};
width = 775;
},
{
anchors = (
{
name = bottom;
pos = (324,0);
},
{
name = center;
pos = (204,392);
},
{
name = top;
pos = (368,764);
}
);
layerId = m002;
shapes = (
{
closed = 1;
nodes = (
(89,-6,o),
(109,-19,o),
(129,-19,cs),
(136,-19,o),
(146,-17,o),
(154,-12,c),
(199,-21,o),
(242,-25,o),
(282,-25,cs),
(571,-25,o),
(724,189,o),
(724,394,cs),
(724,583,o),
(595,764,o),
(324,764,cs),
(274,764,o),
(219,757,o),
(159,744,cs),
(141,740,o),
(129,722,o),
(129,705,cs),
(127,616,o),
(122,528,o),
(116,440,cs),
(107,300,o),
(96,160,o),
(89,20,cs)
);
},
{
closed = 1;
nodes = (
(184,267,o),
(201,473,o),
(207,675,c),
(238,681,o),
(295,686,o),
(337,686,cs),
(476,686,o),
(645,600,o),
(645,397,cs),
(645,181,o),
(475,53,o),
(282,53,cs),
(256,53,o),
(195,58,o),
(172,65,c)
);
}
);
userData = {
com.hugojourdan.ColorFlow = {
"0" = 0;
"1" = 0;
"10" = 0;
"11" = 0;
"2" = 0;
"3" = 0;
"4" = 0;
"5" = 0;
"6" = 0;
"7" = 0;
"8" = 0;
"9" = 0;
};
};
width = 792;
},
{
anchors = (
{
name = bottom;
pos = (364,0);
},
{
name = center;
pos = (205,382);
},
{
name = top;
pos = (383,764);
}
);
layerId = m003;
shapes = (
{
closed = 1;
nodes = (
(50,-6,o),
(86,-19,o),
(129,-19,cs),
(163,-19,o),
(186,-13,o),
(210,-3,c),
(244,-16,o),
(285,-25,o),
(333,-25,cs),
(594,-25,o),
(756,189,o),
(755,394,cs),
(754,595,o),
(618,766,o),
(347,766,cs),
(297,766,o),
(180,759,o),
(137,750,cs),
(102,742,o),
(90,722,o),
(89,694,cs),
(88,616,o),
(83,528,o),
(77,440,cs),
(68,300,o),
(57,160,o),
(52,35,cs)
);
},
{
closed = 1;
nodes = (
(251,351,o),
(260,396,o),
(266,598,c),
(297,604,o),
(327,609,o),
(364,609,cs),
(444,609,o),
(556,556,o),
(556,396,cs),
(556,213,o),
(421,137,o),
(327,137,cs),
(289,137,o),
(262,142,o),
(239,149,c)
);
}
);
userData = {
com.hugojourdan.ColorFlow = {
"0" = 0;
"1" = 0;
"10" = 0;
"11" = 0;
"2" = 0;
"3" = 0;
"4" = 0;
"5" = 0;
"6" = 0;
"7" = 0;
"8" = 0;
"9" = 0;
};
};
width = 796;
}
);
unicode = 68;
},
{
glyphname = D.alt1;
lastChange = "2023-03-03 13:13:27 +0000";
layers = (
{
anchors = (
{
name = bottom;
pos = (400,0);
},
{
name = center;
pos = (226,392);
},
{
name = top;
pos = (370,774);
}
);
layerId = m01;
shapes = (
{
closed = 1;
nodes = (
(115,722,o),
(121,720,o),
(155,721,c),
(147,599,o),
(165,303,o),
(165,184,cs),
(165,153,o),
(164,73,o),
(162,38,c),
(152,40,o),
(132,42,o),
(115,44,cs),
(97,46,o),
(92,43,o),
(92,33,cs),
(92,25,o),
(100,17,o),
(117,14,cs),
(157,6,o),
(209,-1,o),
(260,-1,cs),
(484,-1,o),
(734,117,o),
(749,371,cs),
(756,647,o),
(612,764,o),
(346,764,cs),
(300,764,o),
(254,761,o),
(164,751,cs),
(119,746,o),
(115,744,o),
(115,733,cs)
);
},
{
closed = 1;
nodes = (
(195,427,o),
(177,486,o),
(189,724,c),
(225,728,o),
(299,734,o),
(334,734,cs),
(588,734,o),
(716,635,o),
(716,396,cs),
(716,124,o),
(428,10,o),
(194,33,c),
(196,72,o),
(195,152,o),
(195,188,cs)
);
}
);
userData = {
com.hugojourdan.ColorFlow = {
"0" = 0;
"1" = 0;
"10" = 0;
"11" = 0;
"2" = 0;
"3" = 0;
"4" = 0;
"5" = 0;
"6" = 0;
"7" = 0;
"8" = 0;
"9" = 0;
};
};
width = 818;
},
{
anchors = (
{
name = bottom;
pos = (409,0);
},
{
name = center;
pos = (244,402);
},
{
name = top;
pos = (371,753);
}
);
layerId = m002;
shapes = (
{
closed = 1;
nodes = (
(114,688,o),
(128,669,o),
(154,670,c),
(146,548,o),
(164,303,o),
(164,184,cs),
(164,153,o),
(163,122,o),
(161,87,c),
(151,89,o),
(141,91,o),
(131,92,cs),
(102,94,o),
(91,76,o),
(91,56,cs),
(91,38,o),
(100,19,o),
(126,14,cs),
(166,6,o),
(218,-1,o),
(269,-1,cs),
(503,-1,o),
(753,117,o),
(768,371,cs),
(775,647,o),
(631,764,o),
(355,764,cs),
(309,764,o),
(263,761,o),
(173,751,cs),
(137,748,o),
(114,740,o),
(114,709,cs)
);
},
{
closed = 1;
nodes = (
(245,427,o),
(225,443,o),
(237,681,c),
(273,684,o),
(308,686,o),
(343,686,cs),
(566,686,o),
(688,612,o),
(688,396,cs),
(688,169,o),
(459,68,o),
(242,78,c),
(244,117,o),
(245,152,o),
(245,188,cs)
);
}
);
userData = {
com.hugojourdan.ColorFlow = {
"0" = 0;
"1" = 0;
"10" = 0;
"11" = 0;
"2" = 0;
"3" = 0;
"4" = 0;
"5" = 0;
"6" = 0;
"7" = 0;
"8" = 0;
"9" = 0;
};
};
width = 836;
},
{
anchors = (
{
name = bottom;
pos = (415,4);
},
{
name = center;
pos = (245,382);
},
{
name = top;
pos = (406,766);
}
);
background = {
shapes = (
{
closed = 1;
nodes = (
(109,-6,o),
(145,-19,o),
(188,-19,cs),
(222,-19,o),
(245,-13,o),
(269,-3,c),
(303,-16,o),
(344,-25,o),
(392,-25,cs),
(653,-25,o),
(815,189,o),
(814,394,cs),
(813,595,o),
(677,766,o),
(406,766,cs),
(356,766,o),
(239,759,o),
(196,750,cs),
(161,742,o),
(149,722,o),
(148,694,cs),
(147,616,o),
(142,528,o),
(136,440,cs),
(127,300,o),
(116,160,o),
(111,35,cs)
);
},
{
closed = 1;
nodes = (
(310,351,o),
(319,396,o),
(325,598,c),
(356,604,o),
(386,609,o),
(423,609,cs),
(503,609,o),
(615,556,o),
(615,396,cs),
(615,213,o),
(480,137,o),
(386,137,cs),
(348,137,o),
(321,142,o),
(298,149,c)
);
}
);
};
layerId = m003;
shapes = (
{
closed = 1;
nodes = (
(80,618,o),
(98,587,o),
(130,590,c),
(122,506,o),
(140,336,o),
(140,254,cs),
(140,223,o),
(139,192,o),
(137,157,c),
(127,159,o),
(117,162,o),
(107,162,cs),
(71,162,o),
(54,131,o),
(54,88,cs),
(54,57,o),
(68,21,o),
(122,10,cs),
(142,6,o),
(226,-1,o),
(295,-1,cs),
(533,-1,o),
(789,117,o),
(804,371,cs),
(811,647,o),
(663,764,o),
(381,764,cs),
(335,764,o),
(289,761,o),
(199,751,cs),
(126,745,o),
(80,721,o),
(80,668,cs)
);
},
{
closed = 1;
nodes = (
(321,435,o),
(301,445,o),
(313,601,c),
(339,604,o),
(364,606,o),
(389,606,cs),
(531,606,o),
(609,552,o),
(609,396,cs),
(609,226,o),
(460,151,o),
(318,158,c),
(320,201,o),
(321,239,o),
(321,278,cs)
);
}
);
userData = {
com.hugojourdan.ColorFlow = {
"0" = 0;
"1" = 0;
"10" = 0;
"11" = 0;
"2" = 0;
"3" = 0;
"4" = 0;
"5" = 0;
"6" = 0;
"7" = 0;
"8" = 0;
"9" = 0;
};
};
width = 846;
}
);
metricLeft = D;
metricRight = D;
},
{
glyphname = D.alt2;
lastChange = "2023-03-03 13:13:39 +0000";
layers = (
{
anchors = (
{
name = bottom;
pos = (328,10);
},
{
name = center;
pos = (206,402);
},
{
name = top;
pos = (361,769);
}
);
layerId = m01;
shapes = (
{
closed = 1;
nodes = (
(104,48,o),
(96,47,o),
(96,36,cs),
(96,25,o),
(102,21,o),
(116,18,cs),
(161,7,o),
(210,3,o),
(299,3,cs),
(534,3,o),
(706,146,o),
(706,391,cs),
(706,624,o),
(531,774,o),
(278,774,cs),
(231,774,o),
(186,768,o),
(133,757,cs),
(114,753,o),
(114,735,o),
(115,710,cs),
(121,471,o),
(132,331,o),
(126,78,cs),
(125,53,o),
(126,37,o),
(142,37,cs),
(156,37,o),
(158,46,o),
(159,78,cs),
(165,238,o),
(153,620,o),
(150,732,c),
(189,738,o),
(255,744,o),
(284,744,cs),
(514,744,o),
(673,604,o),
(673,387,cs),
(673,189,o),
(541,33,o),
(297,33,cs),
(241,33,o),
(189,37,o),
(126,45,cs)
);
}
);
userData = {
com.hugojourdan.ColorFlow = {
"0" = 0;
"1" = 0;
"10" = 0;
"11" = 0;
"2" = 0;
"3" = 0;
"4" = 0;
"5" = 0;
"6" = 0;
"7" = 0;
"8" = 0;
"9" = 0;
};
};
width = 775;
},
{
anchors = (
{
name = bottom;
pos = (353,24);
},
{
name = center;
pos = (224,399);
},
{
name = top;
pos = (307,764);
}
);
layerId = m002;
shapes = (
{
closed = 1;
nodes = (
(114,95,o),
(95,78,o),
(95,55,cs),
(95,37,o),
(111,24,o),
(138,16,cs),
(170,6,o),
(219,3,o),
(308,3,cs),
(553,3,o),
(725,146,o),
(725,391,cs),
(725,624,o),
(550,774,o),
(287,774,cs),
(240,774,o),
(194,769,o),
(150,759,cs),
(123,753,o),
(113,735,o),
(114,710,cs),
(120,471,o),
(131,331,o),
(125,128,cs),
(124,103,o),
(142,87,o),
(163,87,cs),
(182,87,o),
(204,96,o),
(206,128,cs),
(211,238,o),
(199,574,o),
(196,686,c),
(235,691,o),
(264,693,o),
(293,693,cs),
(502,693,o),
(643,586,o),
(643,387,cs),
(643,209,o),
(532,81,o),
(306,81,cs),
(250,81,o),
(198,87,o),
(135,93,cs)
);
}
);
userData = {
com.hugojourdan.ColorFlow = {
"0" = 0;
"1" = 0;
"10" = 0;
"11" = 0;
"2" = 0;
"3" = 0;
"4" = 0;
"5" = 0;
"6" = 0;
"7" = 0;
"8" = 0;
"9" = 0;
};
};
width = 793;
},
{
anchors = (
{
name = bottom;
pos = (387,-4);
},
{
name = center;
pos = (218,394);
},
{
name = top;
pos = (358,768);
}
);
layerId = m003;
shapes = (
{
closed = 1;
nodes = (
(82,176,o),
(54,143,o),
(54,95,cs),
(54,59,o),
(76,28,o),
(117,16,cs),
(149,6,o),
(217,3,o),
(327,3,cs),
(584,3,o),
(764,146,o),
(764,391,cs),
(764,624,o),
(581,774,o),
(306,774,cs),
(259,774,o),
(213,769,o),
(169,759,cs),
(107,745,o),
(82,735,o),
(83,690,cs),
(90,449,o),
(100,423,o),
(95,244,cs),
(93,179,o),
(133,163,o),
(182,163,cs),
(223,163,o),
(273,172,o),
(275,224,cs),
(279,307,o),
(268,499,o),
(265,606,c),
(304,613,o),
(333,613,o),
(372,613,cs),
(494,613,o),
(569,534,o),
(569,387,cs),
(569,256,o),
(488,161,o),
(325,161,cs),
(256,161,o),
(192,166,o),
(134,171,cs)
);
}
);
userData = {
com.hugojourdan.ColorFlow = {
"0" = 0;
"1" = 0;
"10" = 0;
"11" = 0;
"2" = 0;
"3" = 0;
"4" = 0;
"5" = 0;
"6" = 0;
"7" = 0;
"8" = 0;
"9" = 0;
};
};
width = 805;
}
);
metricLeft = D;
metricRight = D;
},
{
glyphname = D.alt3;
lastChange = "2023-03-03 13:13:52 +0000";
layers = (
{
anchors = (
{
name = bottom;
pos = (317,10);
},
{
name = center;
pos = (190,382);
},
{
name = top;
pos = (363,744);
}
);
layerId = m01;
shapes = (
{
closed = 1;
nodes = (
(113,483,o),
(107,248,o),
(95,1,cs),
(94,-18,o),
(99,-26,o),
(113,-26,cs),
(128,-26,o),
(128,-13,o),
(128,13,cs),
(140,248,o),
(146,483,o),
(148,718,cs),
(149,744,o),
(151,757,o),
(132,757,cs),
(118,757,o),
(115,747,o),
(115,730,cs)
);
},
{
closed = 1;
nodes = (
(190,722,o),
(222,724,o),
(254,724,cs),
(536,724,o),
(648,544,o),
(648,366,cs),
(648,170,o),
(519,21,o),
(247,21,cs),
(205,21,o),
(174,24,o),
(128,27,cs),
(112,28,o),
(104,27,o),
(103,16,cs),
(103,3,o),
(109,-1,o),
(125,-3,cs),
(176,-9,o),
(210,-10,o),
(271,-10,cs),
(499,-10,o),
(681,124,o),
(681,367,cs),
(681,578,o),
(541,755,o),
(251,755,cs),
(219,755,o),
(188,754,o),
(144,747,cs),
(132,745,o),
(119,741,o),
(119,727,cs),
(119,716,o),
(132,715,o),
(144,716,cs)
);
}
);
userData = {
com.hugojourdan.ColorFlow = {
"0" = 0;
"1" = 0;
"10" = 0;
"11" = 0;
"2" = 0;
"3" = 0;
"4" = 0;
"5" = 0;
"6" = 0;
"7" = 0;
"8" = 0;
"9" = 0;
};
};
width = 751;
},
{
anchors = (
{
name = bottom;
pos = (346,-20);
},
{
name = center;
pos = (210,397);
},
{
name = top;
pos = (340,754);
}
);
layerId = m002;
shapes = (
{
closed = 1;
nodes = (
(112,483,o),
(106,248,o),
(94,13,cs),
(93,-13,o),
(114,-26,o),
(134,-26,cs),
(155,-26,o),
(175,-13,o),
(175,13,cs),
(187,248,o),
(193,483,o),
(195,718,cs),
(196,744,o),
(175,757,o),
(155,757,cs),
(135,757,o),
(114,744,o),
(114,718,cs)
);
},
{
closed = 1;
nodes = (
(199,675,o),
(231,677,o),
(263,677,cs),
(533,677,o),
(619,525,o),
(619,366,cs),
(619,195,o),
(504,68,o),
(256,68,cs),
(214,68,o),
(183,71,o),
(142,74,cs),
(127,75,o),
(102,65,o),
(102,38,cs),
(102,17,o),
(118,-1,o),
(142,-4,cs),
(185,-9,o),
(219,-10,o),
(280,-10,cs),
(518,-10,o),
(700,124,o),
(700,367,cs),
(700,578,o),
(560,755,o),
(260,755,cs),
(228,755,o),
(197,754,o),
(167,749,cs),
(141,745,o),
(128,729,o),
(128,708,cs),
(128,688,o),
(141,668,o),
(167,671,cs)
);
}
);
userData = {
com.hugojourdan.ColorFlow = {
"0" = 0;
"1" = 0;
"10" = 0;
"11" = 0;
"2" = 0;
"3" = 0;
"4" = 0;
"5" = 0;
"6" = 0;
"7" = 0;
"8" = 0;
"9" = 0;
};
};
width = 769;
},
{
anchors = (
{
name = bottom;
pos = (355,9);
},
{
name = center;
pos = (201,379);
},
{
name = top;
pos = (378,764);
}
);
layerId = m003;
shapes = (
{
closed = 1;
nodes = (
(73,483,o),
(67,248,o),
(57,43,cs),
(54,-21,o),
(100,-36,o),
(145,-36,cs),
(192,-36,o),
(236,-21,o),
(238,33,cs),
(248,248,o),
(254,483,o),
(256,698,cs),
(257,752,o),
(211,767,o),
(166,767,cs),
(122,767,o),
(75,752,o),
(75,698,cs)
);
},
{
closed = 1;
nodes = (
(210,595,o),
(242,597,o),
(274,597,cs),
(472,597,o),
(535,484,o),
(535,366,cs),
(535,241,o),
(450,148,o),
(267,148,cs),
(225,148,o),
(194,151,o),
(173,153,cs),
(138,155,o),
(113,135,o),
(113,78,cs),
(113,38,o),
(129,-1,o),
(173,-6,cs),
(196,-9,o),
(230,-10,o),
(291,-10,cs),
(540,-10,o),
(731,124,o),
(731,367,cs),
(731,578,o),
(585,755,o),
(271,755,cs),
(239,755,o),
(208,754,o),
(198,752,cs),
(152,745,o),
(139,709,o),
(139,668,cs),
(139,626,o),
(152,588,o),
(198,594,cs)
);
}
);
userData = {
com.hugojourdan.ColorFlow = {
"0" = 0;
"1" = 0;
"10" = 0;
"11" = 0;
"2" = 0;
"3" = 0;
"4" = 0;
"5" = 0;
"6" = 0;
"7" = 0;
"8" = 0;
"9" = 0;
};
};
width = 773;
}
);
metricLeft = D;
metricRight = D;
},
{
glyphname = D.alt4;
lastChange = "2023-03-03 13:13:59 +0000";
layers = (
{
anchors = (
{
name = bottom;
pos = (415,0);
},
{
name = center;
pos = (246,392);
},
{
name = top;
pos = (411,774);
}
);
layerId = m01;
shapes = (
{
closed = 1;
nodes = (
(185,728,l),
(171,646,o),
(168,514,o),
(168,432,cs),
(168,334,o),
(174,121,o),
(162,26,cs),
(157,-12,o),
(161,-22,o),
(177,-21,cs),
(214,-18,o),
(294,-17,o),
(358,-17,cs),
(661,-17,o),
(779,232,o),
(779,386,cs),
(779,665,o),
(538,768,o),
(300,768,cs),
(232,768,o),
(189,763,o),
(135,752,cs),
(122,749,o),
(115,746,o),
(115,735,cs),
(115,722,o),
(124,722,o),
(143,724,cs)
);
},
{
closed = 1;
nodes = (
(202,128,o),
(201,310,o),
(201,425,cs),
(201,516,o),
(203,653,o),
(220,735,c),
(235,736,o),
(288,737,o),
(298,737,cs),
(612,737,o),
(746,580,o),
(746,380,cs),
(746,226,o),
(617,14,o),
(370,14,cs),
(336,14,o),
(207,13,o),
(193,11,c)
);
}
);
userData = {
com.hugojourdan.ColorFlow = {
"0" = 0;
"1" = 0;
"10" = 0;
"11" = 0;
"2" = 0;
"3" = 0;
"4" = 0;
"5" = 0;
"6" = 0;
"7" = 0;
"8" = 0;
"9" = 0;
};
};
width = 848;
},
{
anchors = (
{
name = bottom;
pos = (394,-3);
},
{
name = center;
pos = (244,378);
},
{
name = top;
pos = (430,746);
}
);
layerId = m002;
shapes = (
{
closed = 1;
nodes = (
(184,681,l),
(170,599,o),
(167,514,o),
(167,432,cs),
(167,334,o),
(173,121,o),
(161,26,cs),
(156,-12,o),
(181,-24,o),
(216,-21,cs),
(253,-18,o),
(303,-17,o),
(367,-17,cs),
(680,-17,o),
(798,232,o),
(798,386,cs),
(798,665,o),
(557,768,o),
(309,768,cs),
(241,768,o),
(198,763,o),
(165,756,cs),
(135,750,o),
(114,743,o),
(114,715,cs),
(114,685,o),
(136,673,o),
(165,678,cs)
);
},
{
closed = 1;
nodes = (
(254,175,o),
(248,310,o),
(248,425,cs),
(248,516,o),
(251,606,o),
(268,688,c),
(283,689,o),
(297,690,o),
(307,690,cs),
(595,690,o),
(718,550,o),
(718,380,cs),
(718,263,o),
(603,61,o),
(379,61,cs),
(345,61,o),
(259,60,o),
(245,58,c)
);
}
);
userData = {
com.hugojourdan.ColorFlow = {
"0" = 0;
"1" = 0;
"10" = 0;
"11" = 0;
"2" = 0;
"3" = 0;
"4" = 0;
"5" = 0;
"6" = 0;
"7" = 0;
"8" = 0;
"9" = 0;
};
};
width = 866;
},
{
anchors = (
{
name = bottom;
pos = (431,2);
},
{
name = center;
pos = (275,382);
},
{
name = top;
pos = (439,750);
}
);
layerId = m003;
shapes = (
{
closed = 1;
nodes = (
(161,599,l),
(147,543,o),
(144,488,o),
(144,432,cs),
(144,334,o),
(150,121,o),
(143,66,cs),
(133,-12,o),
(176,-27,o),
(243,-21,cs),
(280,-18,o),
(330,-17,o),
(394,-17,cs),
(714,-17,o),
(835,232,o),
(835,386,cs),
(835,665,o),
(619,768,o),
(366,768,cs),
(274,768,o),
(175,763,o),
(142,756,cs),
(103,748,o),
(74,734,o),
(74,679,cs),
(74,615,o),
(104,596,o),
(142,598,cs)
);
},
{
closed = 1;
nodes = (
(331,229,o),
(325,335,o),
(325,425,cs),
(325,487,o),
(328,553,o),
(345,609,c),
(367,612,o),
(391,612,o),
(434,608,cs),
(578,595,o),
(640,506,o),
(640,380,cs),
(640,272,o),
(561,141,o),
(406,141,cs),
(385,141,o),
(331,140,o),
(322,138,c)
);
}
);
userData = {
com.hugojourdan.ColorFlow = {
"0" = 0;
"1" = 0;
"10" = 0;
"11" = 0;
"2" = 0;
"3" = 0;
"4" = 0;
"5" = 0;
"6" = 0;
"7" = 0;
"8" = 0;
"9" = 0;
};
};
width = 876;
}
);
metricLeft = D;
metricRight = D;
},
{
glyphname = D.alt5;
lastChange = "2023-03-03 13:14:12 +0000";
layers = (
{
anchors = (
{
name = bottom;
pos = (363,4);
},
{
name = center;
pos = (188,387);
},
{
name = top;
pos = (360,768);
}
);
layerId = m01;
shapes = (
{
closed = 1;
nodes = (
(121,534,o),
(109,232,o),
(91,25,cs),
(89,3,o),
(96,-6,o),
(112,-6,cs),
(119,-6,ls),
(392,-6,o),
(694,32,o),
(694,398,cs),
(694,634,o),
(485,762,o),
(282,762,cs),
(256,762,o),
(187,759,o),
(147,752,c),
(143,758,o),
(138,759,o),
(131,759,cs),
(121,759,o),
(116,751,o),
(116,734,cs)
);
},
{
closed = 1;
nodes = (
(141,211,o),
(155,550,o),
(152,724,c),
(184,730,o),
(249,732,o),
(278,732,cs),
(506,732,o),
(661,585,o),
(661,394,cs),
(661,146,o),
(514,23,o),
(125,25,c)
);
}
);
userData = {
com.hugojourdan.ColorFlow = {
"0" = 0;
"1" = 0;
"10" = 0;
"11" = 0;
"2" = 0;
"3" = 0;
"4" = 0;
"5" = 0;
"6" = 0;
"7" = 0;
"8" = 0;
"9" = 0;
};
};
width = 763;
},
{
anchors = (
{
name = bottom;
pos = (372,-3);
},
{
name = center;
pos = (214,378);
},
{
name = top;
pos = (315,765);
}
);
layerId = m002;
shapes = (
{
closed = 1;
nodes = (
(121,534,o),
(109,240,o),
(90,33,cs),
(88,12,o),
(105,-6,o),
(127,-6,cs),
(134,-6,ls),
(411,-6,o),
(713,32,o),
(713,398,cs),
(713,634,o),
(504,762,o),
(291,762,cs),
(265,762,o),
(217,759,o),
(181,752,c),
(173,757,o),
(165,759,o),
(156,759,cs),
(136,759,o),
(116,746,o),
(116,720,cs)
);
},
{
closed = 1;
nodes = (
(190,258,o),
(200,502,o),
(198,676,c),
(230,682,o),
(258,684,o),
(287,684,cs),
(491,684,o),
(630,563,o),
(630,394,cs),
(630,161,o),
(496,79,o),
(175,72,c)
);
}
);
userData = {
com.hugojourdan.ColorFlow = {
"0" = 0;
"1" = 0;
"10" = 0;
"11" = 0;
"2" = 0;
"3" = 0;
"4" = 0;
"5" = 0;
"6" = 0;
"7" = 0;
"8" = 0;
"9" = 0;
};
};
width = 781;
},
{
anchors = (
{
name = bottom;
pos = (356,-4);
},
{
name = center;
pos = (200,392);
},
{
name = top;
pos = (374,760);
}
);
layerId = m003;
shapes = (
{
closed = 1;
nodes = (
(81,524,o),
(69,240,o),
(53,63,cs),
(48,12,o),
(85,-6,o),
(137,-6,cs),
(146,-6,ls),
(426,-6,o),
(733,32,o),
(733,398,cs),
(733,634,o),
(549,762,o),
(341,762,cs),
(297,762,o),
(261,759,o),
(241,752,c),
(211,769,o),
(190,772,o),
(156,772,cs),
(111,772,o),
(76,744,o),
(77,680,cs)
);
},
{
closed = 1;
nodes = (
(253,292,o),
(262,475,o),
(260,606,c),
(292,612,o),
(318,614,o),
(347,614,cs),
(460,614,o),
(537,522,o),
(537,394,cs),
(537,219,o),
(450,157,o),
(242,152,c)
);
}
);
userData = {
com.hugojourdan.ColorFlow = {
"0" = 0;
"1" = 0;
"10" = 0;
"11" = 0;
"2" = 0;
"3" = 0;
"4" = 0;
"5" = 0;
"6" = 0;
"7" = 0;
"8" = 0;
"9" = 0;
};
};
width = 774;
}
);
metricLeft = D;
metricRight = D;
},
{
glyphname = E;
lastChange = "2023-03-06 08:23:06 +0000";
layers = (
{
anchors = (
{
name = bottom;
pos = (333,10);
},
{
name = ogonek;
pos = (529,10);
},
{
name = top;
pos = (383,765);
},
{
name = topleft;
pos = (45,764);
}
);
layerId = m01;
shapes = (
{
closed = 1;
nodes = (
(249,-5,o),
(342,2,o),
(436,5,cs),
(463,6,o),
(490,6,o),
(521,6,cs),
(532,6,o),
(540,12,o),
(540,23,cs),
(540,32,o),
(534,37,o),
(521,37,cs),
(419,36,o),
(253,26,o),
(154,16,c),
(162,133,o),
(170,259,o),
(177,378,c),
(287,392,o),
(424,394,o),
(482,391,cs),
(493,391,o),
(499,397,o),
(499,406,cs),
(499,415,o),
(493,421,o),
(482,421,cs),
(411,424,o),
(274,420,o),
(178,409,c),
(184,510,o),
(190,635,o),
(194,736,c),
(295,743,o),
(397,746,o),
(539,746,cs),
(552,746,o),
(558,753,o),
(558,762,cs),
(558,770,o),
(552,777,o),
(539,777,cs),
(395,777,o),
(289,773,o),
(186,765,cs),
(169,764,o),
(163,756,o),
(162,740,cs),
(151,505,o),
(138,257,o),
(120,5,cs),
(119,-13,o),
(133,-17,o),
(154,-15,cs)
);
}
);
userData = {
com.hugojourdan.ColorFlow = {
"0" = 0;
"1" = 0;
"10" = 0;
"11" = 0;
"2" = 0;
"3" = 0;
"4" = 0;
"5" = 0;
"6" = 0;
"7" = 0;
"8" = 0;
"9" = 0;
};
};
width = 633;
},
{
anchors = (
{
name = bottom;
pos = (325,10);
},
{
name = ogonek;
pos = (510,10);
},
{
name = top;
pos = (353,764);
},
{
name = topleft;
pos = (40,764);
}
);
layerId = m002;
shapes = (
{
closed = 1;
nodes = (
(244,-5,o),
(337,2,o),
(431,5,cs),
(458,6,o),
(485,6,o),
(512,6,cs),
(538,6,o),
(551,25,o),
(551,46,cs),
(551,66,o),
(538,84,o),
(512,84,cs),
(420,83,o),
(266,73,o),
(174,67,c),
(181,160,o),
(187,260,o),
(193,354,c),
(296,368,o),
(423,370,o),
(474,367,cs),
(495,367,o),
(516,384,o),
(515,406,cs),
(514,428,o),
(497,445,o),
(474,445,cs),
(412,448,o),
(285,444,o),
(198,433,c),
(203,512,o),
(207,610,o),
(211,689,c),
(306,696,o),
(401,699,o),
(530,699,cs),
(562,699,o),
(574,717,o),
(574,738,cs),
(574,760,o),
(562,777,o),
(530,777,cs),
(390,777,o),
(284,773,o),
(179,765,cs),
(146,763,o),
(134,745,o),
(132,714,cs),
(121,489,o),
(107,250,o),
(90,25,cs),
(89,-13,o),
(129,-16,o),
(151,-15,cs)
);
}
);
userData = {
com.hugojourdan.ColorFlow = {
"0" = 0;
"1" = 0;
"10" = 0;
"11" = 0;
"2" = 0;
"3" = 0;
"4" = 0;
"5" = 0;
"6" = 0;
"7" = 0;
"8" = 0;
"9" = 0;
};
};
width = 632;
},
{
anchors = (
{
name = bottom;
pos = (317,0);
},
{
name = ogonek;
pos = (502,10);
},
{
name = top;
pos = (343,764);
},
{
name = topleft;
pos = (50,764);
}
);
layerId = m003;
shapes = (
{
closed = 1;
nodes = (
(207,-5,o),
(347,2,o),
(441,5,cs),
(468,6,o),
(495,6,o),
(522,6,cs),
(548,6,o),
(567,25,o),
(570,93,cs),
(572,146,o),
(552,164,o),
(519,164,cs),
(434,163,o),
(340,153,o),
(248,147,c),
(253,200,o),
(256,244,o),
(261,304,c),
(364,318,o),
(433,320,o),
(484,317,cs),
(505,317,o),
(534,334,o),
(534,406,cs),
(534,458,o),
(508,475,o),
(485,475,cs),
(423,478,o),
(356,474,o),
(269,463,c),
(274,526,o),
(274,544,o),
(279,609,c),
(374,616,o),
(411,619,o),
(534,619,cs),
(572,619,o),
(592,637,o),
(592,714,cs),
(592,760,o),
(572,777,o),
(529,777,cs),
(400,777,o),
(247,773,o),
(155,766,cs),
(109,763,o),
(97,745,o),
(95,703,cs),
(84,489,o),
(68,250,o),
(52,40,cs),
(48,-13,o),
(92,-16,o),
(114,-15,cs)
);
}
);
userData = {
com.hugojourdan.ColorFlow = {
"0" = 0;
"1" = 0;
"10" = 0;
"11" = 0;
"2" = 0;
"3" = 0;
"4" = 0;
"5" = 0;
"6" = 0;
"7" = 0;
"8" = 0;
"9" = 0;
};
};
width = 622;
}
);
unicode = 69;
},
{
glyphname = E.alt1;
lastChange = "2023-03-06 08:23:20 +0000";
layers = (
{
anchors = (
{
name = bottom;
pos = (325,3);
},
{
name = ogonek;
pos = (518,10);
},
{
name = top;
pos = (372,760);
},
{
name = topleft;
pos = (45,764);
}
);
layerId = m01;
shapes = (
{
closed = 1;
nodes = (
(281,-9,o),
(392,-6,o),
(505,-2,cs),
(519,-2,o),
(524,6,o),
(524,14,cs),
(524,21,o),
(519,28,o),
(505,28,cs),
(389,24,o),
(273,22,o),
(159,21,c),
(157,135,o),
(159,253,o),
(166,367,c),
(258,376,o),
(383,380,o),
(448,378,cs),
(463,377,o),
(469,384,o),
(469,391,cs),
(469,398,o),
(466,407,o),
(448,408,cs),
(382,410,o),
(260,406,o),
(168,397,c),
(171,501,o),
(185,632,o),
(194,736,c),
(317,744,o),
(421,744,o),
(543,741,cs),
(559,741,o),
(564,748,o),
(564,756,cs),
(564,766,o),
(559,771,o),
(543,771,cs),
(422,774,o),
(318,774,o),
(193,766,c),
(189,771,o),
(184,773,o),
(179,773,cs),
(172,773,o),
(165,768,o),
(164,759,cs),
(138,507,o),
(125,274,o),
(125,15,cs),
(125,-5,o),
(137,-9,o),
(148,-9,cs)
);
}
);
userData = {
com.hugojourdan.ColorFlow = {
"0" = 0;
"1" = 0;
"10" = 0;
"11" = 0;
"2" = 0;
"3" = 0;
"4" = 0;
"5" = 0;
"6" = 0;
"7" = 0;
"8" = 0;
"9" = 0;
};
};
width = 632;
},
{
anchors = (
{
name = bottom;
pos = (304,3);
},
{
name = ogonek;
pos = (566,10);
},
{
name = top;
pos = (358,762);
},
{
name = topleft;
pos = (40,764);
}
);
layerId = m002;
shapes = (
{
closed = 1;
nodes = (
(275,-9,o),
(386,-6,o),
(498,-3,cs),
(519,-3,o),
(539,15,o),
(538,37,cs),
(537,59,o),
(520,75,o),
(498,75,cs),
(390,72,o),
(282,70,o),
(175,69,c),
(176,159,o),
(178,253,o),
(183,343,c),
(268,352,o),
(382,356,o),
(444,353,cs),
(470,353,o),
(483,370,o),
(483,391,cs),
(483,408,o),
(470,431,o),
(444,431,cs),
(382,434,o),
(272,430,o),
(187,421,c),
(191,503,o),
(198,607,o),
(205,689,c),
(322,697,o),
(421,697,o),
(537,694,cs),
(569,693,o),
(584,707,o),
(584,731,cs),
(584,755,o),
(569,770,o),
(537,771,cs),
(421,774,o),
(322,774,o),
(202,766,c),
(195,775,o),
(183,779,o),
(172,779,cs),
(151,779,o),
(131,766,o),
(131,739,c),
(107,507,o),
(94,274,o),
(94,40,cs),
(94,15,o),
(107,-9,o),
(138,-9,cs)
);
}
);
userData = {
com.hugojourdan.ColorFlow = {
"0" = 0;
"1" = 0;
"10" = 0;
"11" = 0;
"2" = 0;
"3" = 0;
"4" = 0;
"5" = 0;
"6" = 0;
"7" = 0;
"8" = 0;
"9" = 0;
};
};
width = 641;
},
{
anchors = (
{
name = bottom;
pos = (292,-3);
},
{
name = ogonek;
pos = (482,10);
},
{
name = top;
pos = (354,770);
},
{
name = topleft;
pos = (52,764);
}
);
layerId = m003;
shapes = (
{
closed = 1;
nodes = (
(287,-9,o),
(398,-6,o),
(490,-4,cs),
(531,-3,o),
(552,38,o),
(550,86,cs),
(548,126,o),
(532,155,o),
(490,154,cs),
(419,152,o),
(327,150,o),
(237,149,c),
(238,200,o),
(242,252,o),
(247,303,c),
(320,312,o),
(416,315,o),
(446,314,cs),
(492,313,o),
(505,349,o),
(505,394,cs),
(505,427,o),
(492,471,o),
(446,472,cs),
(416,473,o),
(326,471,o),
(254,462,c),
(258,507,o),
(260,564,o),
(267,609,c),
(366,617,o),
(450,617,o),
(529,615,cs),
(583,613,o),
(598,644,o),
(598,701,cs),
(598,743,o),
(583,770,o),
(529,771,cs),
(442,774,o),
(353,774,o),
(244,766,c),
(227,777,o),
(199,782,o),
(173,782,cs),
(132,782,o),
(93,768,o),
(93,719,c),
(69,507,o),
(56,274,o),
(56,60,cs),
(56,15,o),
(84,-9,o),
(150,-9,cs)
);
}
);
userData = {
com.hugojourdan.ColorFlow = {
"0" = 0;
"1" = 0;
"10" = 0;
"11" = 0;
"2" = 0;
"3" = 0;
"4" = 0;
"5" = 0;
"6" = 0;
"7" = 0;
"8" = 0;
"9" = 0;
};
};
width = 628;
}
);
metricLeft = E;
metricRight = E;
},
{
glyphname = E.alt2;
lastChange = "2023-03-06 08:23:20 +0000";
layers = (
{
anchors = (
{
name = bottom;
pos = (344,7);
},
{
name = ogonek;
pos = (535,7);
},
{
name = top;
pos = (379,784);
},
{
name = topleft;
pos = (45,764);
}
);
layerId = m01;
shapes = (
{
closed = 1;
nodes = (
(155,511,o),
(136,274,o),
(120,16,cs),
(118,-11,o),
(126,-19,o),
(152,-15,cs),
(254,-3,o),
(347,4,o),
(519,-3,cs),
(537,-4,o),
(542,4,o),
(542,12,cs),
(542,19,o),
(538,26,o),
(519,27,cs),
(418,32,o),
(258,30,o),
(153,16,c),
(161,141,o),
(170,266,o),
(179,390,c),
(267,397,o),
(379,398,o),
(482,387,cs),
(500,384,o),
(507,388,o),
(507,399,cs),
(507,407,o),
(503,412,o),
(491,414,cs),
(404,430,o),
(252,425,o),
(182,421,c),
(211,745,l),
(274,754,o),
(337,756,o),
(399,756,cs),
(438,756,o),
(513,752,o),
(550,748,cs),
(566,747,o),
(571,755,o),
(571,762,cs),
(571,770,o),
(566,777,o),
(549,779,cs),
(519,783,o),
(453,787,o),
(371,787,cs),
(322,787,o),
(260,784,o),
(210,774,c),
(206,780,o),
(200,783,o),
(194,783,cs),
(188,783,o),
(182,779,o),
(181,769,cs)
);
}
);
userData = {
com.hugojourdan.ColorFlow = {
"0" = 0;
"1" = 0;
"10" = 0;
"11" = 0;
"2" = 0;
"3" = 0;
"4" = 0;
"5" = 0;
"6" = 0;
"7" = 0;
"8" = 0;
"9" = 0;
};
};
width = 639;
},
{
anchors = (
{
name = bottom;
pos = (336,10);
},
{
name = ogonek;
pos = (571,10);
},
{
name = top;
pos = (376,777);
},
{
name = topleft;
pos = (40,764);
}
);
layerId = m002;
shapes = (
{
closed = 1;
nodes = (
(124,511,o),
(105,274,o),
(90,36,cs),
(87,-10,o),
(120,-18,o),
(156,-14,cs),
(248,-3,o),
(341,4,o),
(513,-3,cs),
(539,-4,o),
(552,17,o),
(552,37,cs),
(552,58,o),
(539,76,o),
(513,76,cs),
(419,81,o),
(271,76,o),
(173,67,c),
(180,166,o),
(187,268,o),
(195,368,c),
(281,375,o),
(388,373,o),
(480,363,cs),
(506,360,o),
(521,382,o),
(521,403,cs),
(521,422,o),
(507,436,o),
(479,441,cs),
(413,453,o),
(268,449,o),
(201,445,c),
(223,700,l),
(280,706,o),
(337,709,o),
(393,709,cs),
(432,709,o),
(507,704,o),
(544,700,cs),
(576,697,o),
(590,716,o),
(590,740,cs),
(590,759,o),
(581,774,o),
(543,779,cs),
(513,783,o),
(447,787,o),
(365,787,cs),
(316,787,o),
(254,784,o),
(219,775,c),
(212,782,o),
(202,788,o),
(188,788,cs),
(167,788,o),
(150,775,o),
(147,749,cs)
);
}
);
userData = {
com.hugojourdan.ColorFlow = {
"0" = 0;
"1" = 0;
"10" = 0;
"11" = 0;
"2" = 0;
"3" = 0;
"4" = 0;
"5" = 0;
"6" = 0;
"7" = 0;
"8" = 0;
"9" = 0;
};
};
width = 647;
},
{
anchors = (
{
name = bottom;
pos = (316,4);
},
{
name = ogonek;
pos = (499,14);
},
{
name = top;
pos = (367,779);
},
{
name = topleft;
pos = (51,764);
}
);
layerId = m003;
shapes = (
{
closed = 1;
nodes = (
(85,511,o),
(66,274,o),
(52,56,cs),
(48,-10,o),
(104,-21,o),
(167,-14,cs),
(259,-3,o),
(352,4,o),
(504,-2,cs),
(557,-4,o),
(573,37,o),
(573,77,cs),
(573,120,o),
(558,156,o),
(509,158,cs),
(449,160,o),
(323,156,o),
(239,147,c),
(244,207,o),
(249,268,o),
(254,328,c),
(325,335,o),
(413,331,o),
(489,323,cs),
(529,318,o),
(552,361,o),
(552,403,cs),
(552,442,o),
(533,474,o),
(492,481,cs),
(438,491,o),
(319,489,o),
(264,485,c),
(277,620,l),
(317,626,o),
(357,629,o),
(397,629,cs),
(433,629,o),
(503,624,o),
(538,620,cs),
(589,615,o),
(611,651,o),
(611,700,cs),
(611,738,o),
(599,772,o),
(544,779,cs),
(516,783,o),
(453,787,o),
(376,787,cs),
(337,787,o),
(288,784,o),
(260,775,c),
(249,782,o),
(214,791,o),
(179,791,cs),
(132,791,o),
(111,775,o),
(106,729,cs)
);
}
);
userData = {
com.hugojourdan.ColorFlow = {
"0" = 0;
"1" = 0;
"10" = 0;
"11" = 0;
"2" = 0;
"3" = 0;
"4" = 0;
"5" = 0;
"6" = 0;
"7" = 0;
"8" = 0;
"9" = 0;
};
};
width = 641;
}
);
metricLeft = E;
metricRight = E;
},
{
glyphname = E.alt3;
lastChange = "2023-03-06 08:23:20 +0000";
layers = (
{
anchors = (
{
name = bottom;
pos = (322,4);
},
{
name = ogonek;
pos = (497,3);
},
{
name = top;
pos = (354,768);
},
{
name = topleft;
pos = (45,764);
}
);
layerId = m01;
shapes = (
{
closed = 1;
nodes = (
(144,492,o),
(133,254,o),
(120,-2,cs),
(119,-13,o),
(125,-18,o),
(133,-18,cs),
(141,-18,o),
(151,-11,o),
(152,3,cs),
(165,254,o),
(176,492,o),
(184,749,cs),
(184,765,o),
(176,768,o),
(167,768,cs),
(159,768,o),
(151,765,o),
(151,749,cs)
);
},
{
closed = 1;
nodes = (
(332,746,o),
(425,743,o),
(518,740,cs),
(533,739,o),
(539,746,o),
(539,756,cs),
(539,763,o),
(536,770,o),
(518,771,cs),
(425,775,o),
(331,777,o),
(182,777,cs),
(166,777,o),
(157,769,o),
(157,761,cs),
(157,754,o),
(166,746,o),
(182,746,cs)
);
},
{
closed = 1;
nodes = (
(271,385,o),
(394,386,o),
(447,384,cs),
(462,383,o),
(466,392,o),
(466,400,cs),
(466,407,o),
(462,413,o),
(447,414,cs),
(394,416,o),
(271,415,o),
(164,405,cs),
(151,403,o),
(143,398,o),
(143,391,cs),
(143,379,o),
(151,372,o),
(164,374,cs)
);
},
{
closed = 1;
nodes = (
(263,-6,o),
(377,-3,o),
(490,-3,cs),
(504,-3,o),
(509,7,o),
(509,15,cs),
(509,22,o),
(505,28,o),
(490,28,cs),
(377,28,o),
(263,25,o),
(150,19,cs),
(137,19,o),
(133,13,o),
(133,6,cs),
(133,-3,o),
(140,-13,o),
(150,-12,cs)
);
}
);
userData = {
com.hugojourdan.ColorFlow = {
"0" = 0;
"1" = 0;
"10" = 0;
"11" = 0;
"2" = 0;
"3" = 0;
"4" = 0;
"5" = 0;
"6" = 0;
"7" = 0;
"8" = 0;
"9" = 0;
};
};
width = 607;
},
{
anchors = (
{
name = bottom;
pos = (329,5);
},
{
name = ogonek;
pos = (543,10);
},
{
name = top;
pos = (325,759);
},
{
name = topleft;
pos = (40,764);
}
);
layerId = m002;
shapes = (
{
closed = 1;
nodes = (
(113,492,o),
(102,254,o),
(89,18,cs),
(88,-8,o),
(109,-21,o),
(129,-21,cs),
(150,-21,o),
(169,-8,o),
(170,18,cs),
(183,254,o),
(194,492,o),
(201,729,cs),
(202,755,o),
(181,768,o),
(161,768,cs),
(141,768,o),
(120,755,o),
(120,729,cs)
);
},
{
closed = 1;
nodes = (
(326,698,o),
(419,696,o),
(512,693,cs),
(544,692,o),
(559,710,o),
(559,734,cs),
(559,759,o),
(544,770,o),
(512,771,cs),
(419,775,o),
(325,777,o),
(176,777,cs),
(145,777,o),
(129,762,o),
(129,738,cs),
(129,713,o),
(145,698,o),
(176,698,cs)
);
},
{
closed = 1;
nodes = (
(266,361,o),
(390,362,o),
(444,360,cs),
(470,360,o),
(483,380,o),
(483,400,cs),
(483,421,o),
(470,438,o),
(444,438,cs),
(390,440,o),
(266,439,o),
(168,429,cs),
(146,428,o),
(127,413,o),
(127,391,cs),
(128,371,o),
(145,349,o),
(168,351,cs)
);
},
{
closed = 1;
nodes = (
(256,-6,o),
(369,-3,o),
(481,-3,cs),
(507,-3,o),
(520,17,o),
(520,38,cs),
(520,58,o),
(507,75,o),
(481,75,cs),
(369,75,o),
(256,72,o),
(144,66,cs),
(123,65,o),
(103,51,o),
(104,28,cs),
(105,7,o),
(122,-13,o),
(144,-12,cs)
);
}
);
userData = {
com.hugojourdan.ColorFlow = {
"0" = 0;
"1" = 0;
"10" = 0;
"11" = 0;
"2" = 0;
"3" = 0;
"4" = 0;
"5" = 0;
"6" = 0;
"7" = 0;
"8" = 0;
"9" = 0;
};
};
width = 616;
},
{
anchors = (
{
name = bottom;
pos = (290,0);
},
{
name = ogonek;
pos = (460,4);
},
{
name = top;
pos = (335,768);
},
{
name = topleft;
pos = (51,764);
}
);
layerId = m003;
shapes = (
{
closed = 1;
nodes = (
(74,492,o),
(63,254,o),
(53,58,cs),
(49,-8,o),
(89,-26,o),
(134,-26,cs),
(181,-26,o),
(230,-8,o),
(232,38,cs),
(244,254,o),
(255,492,o),
(262,709,cs),
(263,755,o),
(217,768,o),
(172,768,cs),
(128,768,o),
(81,755,o),
(80,709,cs)
);
},
{
closed = 1;
nodes = (
(304,618,o),
(430,616,o),
(513,613,cs),
(555,612,o),
(570,646,o),
(570,694,cs),
(570,746,o),
(555,770,o),
(503,772,cs),
(430,775,o),
(303,777,o),
(174,777,cs),
(123,777,o),
(107,747,o),
(107,698,cs),
(107,648,o),
(123,618,o),
(174,618,cs)
);
},
{
closed = 1;
nodes = (
(277,321,o),
(401,322,o),
(435,321,cs),
(481,320,o),
(494,360,o),
(494,400,cs),
(494,443,o),
(477,478,o),
(431,479,cs),
(397,480,o),
(277,479,o),
(199,472,cs),
(157,468,o),
(138,436,o),
(138,391,cs),
(140,351,o),
(156,309,o),
(199,313,cs)
);
},
{
closed = 1;
nodes = (
(267,-6,o),
(380,-3,o),
(472,-3,cs),
(518,-3,o),
(531,37,o),
(531,78,cs),
(531,120,o),
(518,155,o),
(472,155,cs),
(380,155,o),
(267,152,o),
(175,147,cs),
(134,145,o),
(113,115,o),
(115,68,cs),
(117,27,o),
(133,-13,o),
(175,-11,cs)
);
}
);
userData = {
com.hugojourdan.ColorFlow = {
"0" = 0;
"1" = 0;
"10" = 0;
"11" = 0;
"2" = 0;
"3" = 0;
"4" = 0;
"5" = 0;
"6" = 0;
"7" = 0;
"8" = 0;
"9" = 0;
};
};
width = 600;
}
);
metricLeft = E;
metricRight = E;
},
{
glyphname = E.alt4;
lastChange = "2023-03-06 08:23:20 +0000";
layers = (
{
anchors = (
{
name = bottom;
pos = (325,12);
},
{
name = ogonek;
pos = (509,8);
},
{
name = top;
pos = (344,758);
},
{
name = topleft;
pos = (45,764);
}
);
layerId = m01;
shapes = (
{
closed = 1;
nodes = (
(136,511,o),
(126,311,o),
(126,22,cs),
(126,13,o),
(133,1,o),
(148,2,cs),
(243,6,o),
(384,8,o),
(500,3,cs),
(515,2,o),
(523,12,o),
(523,20,cs),
(523,27,o),
(517,34,o),
(505,34,cs),
(389,36,o),
(281,38,o),
(157,31,c),
(157,174,o),
(160,284,o),
(164,384,c),
(227,389,o),
(288,391,o),
(351,391,cs),
(382,391,o),
(412,390,o),
(443,389,cs),
(454,388,o),
(461,394,o),
(461,404,cs),
(461,412,o),
(456,418,o),
(443,419,cs),
(412,421,o),
(382,421,o),
(351,421,cs),
(290,421,o),
(227,419,o),
(166,415,c),
(171,516,o),
(176,609,o),
(191,735,c),
(526,735,ls),
(540,735,o),
(544,743,o),
(544,750,cs),
(544,758,o),
(540,765,o),
(525,765,cs),
(186,765,ls),
(170,765,o),
(160,746,o),
(159,735,cs)
);
}
);
userData = {
com.hugojourdan.ColorFlow = {
"0" = 0;
"1" = 0;
"10" = 0;
"11" = 0;
"2" = 0;
"3" = 0;
"4" = 0;
"5" = 0;
"6" = 0;
"7" = 0;
"8" = 0;
"9" = 0;
};
};
width = 616;
},
{
anchors = (
{
name = bottom;
pos = (322,20);
},
{
name = ogonek;
pos = (548,10);
},
{
name = top;
pos = (338,772);
},
{
name = topleft;
pos = (40,764);
}
);
layerId = m002;
shapes = (
{
closed = 1;
nodes = (
(106,514,o),
(96,317,o),
(96,42,cs),
(96,21,o),
(115,0,o),
(137,1,cs),
(238,6,o),
(379,8,o),
(495,3,cs),
(523,2,o),
(540,17,o),
(540,44,cs),
(540,67,o),
(523,80,o),
(500,81,cs),
(392,83,o),
(292,85,o),
(177,78,c),
(177,191,o),
(179,278,o),
(182,357,c),
(237,362,o),
(291,364,o),
(346,364,cs),
(377,364,o),
(407,363,o),
(438,362,cs),
(459,361,o),
(479,379,o),
(478,401,cs),
(477,423,o),
(463,438,o),
(438,440,cs),
(407,442,o),
(377,442,o),
(346,442,cs),
(293,442,o),
(239,440,o),
(186,436,c),
(190,515,o),
(197,588,o),
(204,687,c),
(521,687,ls),
(552,687,o),
(564,702,o),
(564,727,cs),
(564,751,o),
(551,765,o),
(520,765,cs),
(181,765,ls),
(152,765,o),
(130,746,o),
(127,715,cs)
);
}
);
userData = {
com.hugojourdan.ColorFlow = {
"0" = 0;
"1" = 0;
"10" = 0;
"11" = 0;
"2" = 0;
"3" = 0;
"4" = 0;
"5" = 0;
"6" = 0;
"7" = 0;
"8" = 0;
"9" = 0;
};
};
width = 621;
},
{
anchors = (
{
name = bottom;
pos = (309,10);
},
{
name = ogonek;
pos = (486,13);
},
{
name = top;
pos = (340,759);
},
{
name = topleft;
pos = (52,764);
}
);
layerId = m003;
shapes = (
{
closed = 1;
nodes = (
(68,514,o),
(58,317,o),
(58,82,cs),
(58,31,o),
(109,-1,o),
(149,1,cs),
(250,6,o),
(391,8,o),
(487,4,cs),
(542,2,o),
(562,31,o),
(562,84,cs),
(562,132,o),
(542,160,o),
(492,161,cs),
(421,163,o),
(336,165,o),
(239,158,c),
(239,222,o),
(241,272,o),
(243,317,c),
(281,322,o),
(315,324,o),
(353,324,cs),
(384,324,o),
(417,323,o),
(448,322,cs),
(486,320,o),
(510,351,o),
(508,401,cs),
(506,446,o),
(483,477,o),
(450,480,cs),
(419,482,o),
(387,482,o),
(356,482,cs),
(320,482,o),
(286,480,o),
(250,476,c),
(252,517,o),
(257,555,o),
(261,607,c),
(528,607,ls),
(568,607,o),
(584,637,o),
(584,687,cs),
(584,736,o),
(569,765,o),
(532,765,cs),
(193,765,ls),
(137,765,o),
(92,746,o),
(87,695,cs)
);
}
);
userData = {
com.hugojourdan.ColorFlow = {
"0" = 0;
"1" = 0;
"10" = 0;
"11" = 0;
"2" = 0;
"3" = 0;
"4" = 0;
"5" = 0;
"6" = 0;
"7" = 0;
"8" = 0;
"9" = 0;
};
};
width = 615;
}
);
metricLeft = E;
metricRight = E;
},
{
glyphname = E.alt5;
lastChange = "2023-03-06 08:23:20 +0000";
layers = (
{
anchors = (
{
name = bottom;
pos = (329,4);
},
{
name = ogonek;
pos = (486,3);
},
{
name = top;
pos = (345,770);
},
{
name = topleft;
pos = (45,764);
}
);
layerId = m01;
shapes = (
{
closed = 1;
nodes = (
(131,-6,o),
(139,-12,o),
(152,-11,cs),
(277,-1,o),
(371,-2,o),
(479,-5,cs),
(495,-6,o),
(499,2,o),
(500,10,cs),
(500,17,o),
(497,26,o),
(479,26,cs),
(375,29,o),
(269,30,o),
(164,21,c),
(170,383,l),
(275,390,o),
(350,390,o),
(451,387,cs),
(464,387,o),
(468,395,o),
(468,402,cs),
(468,410,o),
(464,417,o),
(451,417,cs),
(348,420,o),
(279,420,o),
(172,413,c),
(177,739,l),
(289,740,o),
(404,741,o),
(516,741,cs),
(533,741,o),
(538,750,o),
(538,758,cs),
(538,766,o),
(533,772,o),
(516,772,cs),
(405,772,o),
(294,770,o),
(170,770,cs),
(149,770,o),
(146,763,o),
(146,745,cs),
(146,600,o),
(136,191,o),
(131,17,cs)
);
}
);
userData = {
com.hugojourdan.ColorFlow = {
"0" = 0;
"1" = 0;
"10" = 0;
"11" = 0;
"2" = 0;
"3" = 0;
"4" = 0;
"5" = 0;
"6" = 0;
"7" = 0;
"8" = 0;
"9" = 0;
};
};
width = 606;
},
{
anchors = (
{
name = bottom;
pos = (294,10);
},
{
name = ogonek;
pos = (540,10);
},
{
name = top;
pos = (340,754);
},
{
name = topleft;
pos = (40,764);
}
);
layerId = m002;
shapes = (
{
closed = 1;
nodes = (
(99,1,o),
(117,-13,o),
(145,-11,cs),
(270,-1,o),
(364,-2,o),
(472,-5,cs),
(499,-5,o),
(512,15,o),
(512,35,cs),
(512,56,o),
(499,73,o),
(472,73,cs),
(376,76,o),
(279,76,o),
(182,70,c),
(188,359,l),
(284,366,o),
(352,366,o),
(444,363,cs),
(470,363,o),
(483,380,o),
(483,401,cs),
(483,421,o),
(470,441,o),
(444,441,cs),
(350,444,o),
(287,444,o),
(190,437,c),
(195,692,l),
(299,693,o),
(405,694,o),
(509,694,cs),
(541,694,o),
(556,709,o),
(556,734,cs),
(556,758,o),
(541,772,o),
(509,772,cs),
(398,772,o),
(287,770,o),
(153,770,cs),
(122,770,o),
(114,753,o),
(114,728,cs),
(114,600,o),
(104,191,o),
(100,27,cs)
);
}
);
userData = {
com.hugojourdan.ColorFlow = {
"0" = 0;
"1" = 0;
"10" = 0;
"11" = 0;
"2" = 0;
"3" = 0;
"4" = 0;
"5" = 0;
"6" = 0;
"7" = 0;
"8" = 0;
"9" = 0;
};
};
width = 613;
},
{
anchors = (
{
name = bottom;
pos = (309,0);
},
{
name = ogonek;
pos = (472,6);
},
{
name = top;
pos = (325,768);
},
{
name = topleft;
pos = (51,764);
}
);
layerId = m003;
shapes = (
{
closed = 1;
nodes = (
(60,1,o),
(117,-15,o),
(156,-11,cs),
(281,2,o),
(375,-2,o),
(473,-4,cs),
(517,-5,o),
(533,35,o),
(533,75,cs),
(533,118,o),
(517,153,o),
(473,154,cs),
(404,155,o),
(323,156,o),
(243,150,c),
(249,319,l),
(326,326,o),
(381,325,o),
(455,323,cs),
(494,323,o),
(514,358,o),
(514,401,cs),
(514,441,o),
(494,481,o),
(455,481,cs),
(379,483,o),
(329,484,o),
(251,477,c),
(256,612,l),
(343,613,o),
(433,614,o),
(510,614,cs),
(559,614,o),
(577,644,o),
(577,694,cs),
(577,743,o),
(559,772,o),
(510,772,cs),
(409,772,o),
(298,770,o),
(164,770,cs),
(93,770,o),
(75,753,o),
(75,698,cs),
(75,600,o),
(65,191,o),
(62,77,cs)
);
}
);
userData = {
com.hugojourdan.ColorFlow = {
"0" = 0;
"1" = 0;
"10" = 0;
"11" = 0;
"2" = 0;
"3" = 0;
"4" = 0;
"5" = 0;
"6" = 0;
"7" = 0;
"8" = 0;
"9" = 0;
};
};
width = 607;
}
);
metricLeft = E;
metricRight = E;
},
{
glyphname = E.alt6;
lastChange = "2023-03-06 08:23:20 +0000";
layers = (
{
anchors = (
{
name = bottom;
pos = (314,2);
},
{
name = ogonek;
pos = (487,-4);
},
{
name = top;
pos = (353,770);
},
{
name = topleft;
pos = (46,764);
}
);
layerId = m01;
shapes = (
{
closed = 1;
nodes = (
(453,773,o),
(380,777,o),
(311,777,cs),
(264,777,o),
(217,776,o),
(176,772,cs),
(161,771,o),
(155,765,o),
(154,731,cs),
(145,523,o),
(130,232,o),
(120,4,cs),
(119,-12,o),
(132,-17,o),
(140,-16,cs),
(263,1,o),
(363,-2,o),
(475,-14,cs),
(487,-16,o),
(494,-10,o),
(494,0,cs),
(494,8,o),
(487,13,o),
(476,15,cs),
(377,32,o),
(249,27,o),
(153,17,c),
(158,136,o),
(162,248,o),
(170,367,c),
(288,367,o),
(383,370,o),
(477,376,cs),
(490,377,o),
(496,384,o),
(496,392,cs),
(496,401,o),
(490,407,o),
(477,406,cs),
(384,400,o),
(289,397,o),
(171,397,c),
(187,743,l),
(260,749,o),
(402,750,o),
(512,737,cs),
(528,735,o),
(534,742,o),
(534,751,cs),
(534,761,o),
(529,764,o),
(516,765,cs)
);
}
);
userData = {
com.hugojourdan.ColorFlow = {
"0" = 0;
"1" = 0;
"10" = 0;
"11" = 0;
"2" = 0;
"3" = 0;
"4" = 0;
"5" = 0;
"6" = 0;
"7" = 0;
"8" = 0;
"9" = 0;
};
};
width = 602;
},
{
anchors = (
{
name = bottom;
pos = (316,6);
},
{
name = ogonek;
pos = (538,10);
},
{
name = top;
pos = (342,782);
},
{
name = topleft;
pos = (40,764);
}
);
layerId = m002;
shapes = (
{
closed = 1;
nodes = (
(447,773,o),
(374,777,o),
(305,777,cs),
(258,777,o),
(211,776,o),
(164,772,cs),
(141,770,o),
(124,755,o),
(123,731,cs),
(114,523,o),
(99,232,o),
(89,24,cs),
(88,-2,o),
(112,-19,o),
(144,-15,cs),
(257,1,o),
(357,-2,o),
(474,-15,cs),
(506,-18,o),
(518,-2,o),
(518,24,cs),
(518,44,o),
(502,58,o),
(470,64,cs),
(378,80,o),
(261,76,o),
(172,66,c),
(177,160,o),
(181,249,o),
(186,343,c),
(302,343,o),
(391,346,o),
(480,352,cs),
(502,354,o),
(521,370,o),
(521,392,cs),
(520,412,o),
(503,432,o),
(480,430,cs),
(391,424,o),
(302,421,o),
(190,421,c),
(202,697,l),
(271,701,o),
(403,700,o),
(506,688,cs),
(540,684,o),
(553,704,o),
(553,725,cs),
(553,745,o),
(542,762,o),
(516,765,cs)
);
}
);
userData = {
com.hugojourdan.ColorFlow = {
"0" = 0;
"1" = 0;
"10" = 0;
"11" = 0;
"2" = 0;
"3" = 0;
"4" = 0;
"5" = 0;
"6" = 0;
"7" = 0;
"8" = 0;
"9" = 0;
};
};
width = 610;
},
{
anchors = (
{
name = bottom;
pos = (297,2);
},
{
name = ogonek;
pos = (481,0);
},
{
name = top;
pos = (320,774);
},
{
name = topleft;
pos = (51,764);
}
);
layerId = m003;
shapes = (
{
closed = 1;
nodes = (
(458,773,o),
(385,777,o),
(316,777,cs),
(269,777,o),
(222,776,o),
(175,772,cs),
(124,768,o),
(85,755,o),
(83,701,cs),
(75,523,o),
(60,232,o),
(52,54,cs),
(49,-2,o),
(91,-23,o),
(152,-15,cs),
(265,1,o),
(368,-2,o),
(475,-14,cs),
(524,-19,o),
(539,14,o),
(539,64,cs),
(539,104,o),
(522,137,o),
(476,145,cs),
(409,157,o),
(312,156,o),
(238,146,c),
(241,199,o),
(244,250,o),
(247,303,c),
(343,303,o),
(413,309,o),
(487,314,cs),
(520,317,o),
(550,350,o),
(548,394,cs),
(546,452,o),
(521,475,o),
(477,472,cs),
(413,467,o),
(344,461,o),
(251,461,c),
(258,617,l),
(316,621,o),
(426,618,o),
(502,609,cs),
(557,603,o),
(574,640,o),
(574,685,cs),
(574,725,o),
(560,761,o),
(517,766,cs)
);
}
);
userData = {
com.hugojourdan.ColorFlow = {
"0" = 0;
"1" = 0;
"10" = 0;
"11" = 0;
"2" = 0;
"3" = 0;
"4" = 0;
"5" = 0;
"6" = 0;
"7" = 0;
"8" = 0;
"9" = 0;
};
};
width = 605;
}
);
metricLeft = E;
metricRight = E;
},
{
glyphname = F;
lastChange = "2023-03-06 08:23:37 +0000";
layers = (
{
anchors = (
{
name = top;
pos = (358,759);
}
);
layerId = m01;
shapes = (
{
closed = 1;
nodes = (
(125,-5,o),
(133,-9,o),
(143,-9,cs),
(153,-9,o),
(156,-1,o),
(159,12,cs),
(173,100,o),
(172,212,o),
(172,352,c),
(250,345,o),
(348,346,o),
(421,350,cs),
(435,351,o),
(441,358,o),
(441,367,cs),
(441,374,o),
(436,381,o),
(421,380,cs),
(358,374,o),
(240,376,o),
(172,382,c),
(172,495,o),
(175,616,o),
(190,727,c),
(317,721,o),
(358,721,o),
(486,724,cs),
(503,724,o),
(509,730,o),
(509,738,cs),
(509,747,o),
(504,753,o),
(494,753,cs),
(420,750,o),
(279,752,o),
(173,758,cs),
(157,759,o),
(152,751,o),
(152,743,cs),
(152,736,o),
(154,730,o),
(157,728,c),
(141,615,o),
(139,499,o),
(139,383,cs),
(139,270,o),
(138,130,o),
(127,19,cs)
);
}
);
userData = {
com.hugojourdan.ColorFlow = {
"0" = 0;
"1" = 0;
"10" = 0;
"11" = 0;
"2" = 0;
"3" = 0;
"4" = 0;
"5" = 0;
"6" = 0;
"7" = 0;
"8" = 0;
"9" = 0;
};
};
width = 552;
},
{
anchors = (
{
name = top;
pos = (345,761);
}
);
layerId = m002;
shapes = (
{
closed = 1;
nodes = (
(97,18,o),
(110,-9,o),
(138,-9,cs),
(159,-9,o),
(176,8,o),
(180,32,cs),
(190,95,o),
(190,198,o),
(190,328,c),
(261,321,o),
(357,322,o),
(424,326,cs),
(445,328,o),
(466,344,o),
(465,367,cs),
(464,386,o),
(447,406,o),
(424,404,cs),
(367,399,o),
(252,400,o),
(190,406,c),
(190,495,o),
(192,591,o),
(202,679,c),
(323,673,o),
(350,673,o),
(470,676,cs),
(504,677,o),
(539,676,o),
(539,714,cs),
(539,737,o),
(521,755,o),
(499,754,cs),
(409,750,o),
(256,752,o),
(153,758,cs),
(127,758,o),
(114,738,o),
(114,718,cs),
(114,708,o),
(117,699,o),
(122,691,c),
(110,590,o),
(109,486,o),
(109,383,cs),
(109,270,o),
(108,130,o),
(100,48,cs)
);
}
);
userData = {
com.hugojourdan.ColorFlow = {
"0" = 0;
"1" = 0;
"10" = 0;
"11" = 0;
"2" = 0;
"3" = 0;
"4" = 0;
"5" = 0;
"6" = 0;
"7" = 0;
"8" = 0;
"9" = 0;
};
};
width = 576;
},
{
anchors = (
{
name = top;
pos = (329,764);
}
);
layerId = m003;
shapes = (
{
closed = 1;
nodes = (
(61,18,o),
(74,-9,o),
(162,-9,cs),
(233,-9,o),
(250,12,o),
(256,52,cs),
(264,99,o),
(264,168,o),
(264,298,c),
(335,291,o),
(381,292,o),
(448,296,cs),
(469,298,o),
(496,314,o),
(495,383,cs),
(495,426,o),
(472,446,o),
(441,444,cs),
(384,440,o),
(326,440,o),
(264,446,c),
(264,492,o),
(269,536,o),
(276,599,c),
(397,593,o),
(441,592,o),
(494,596,cs),
(527,598,o),
(568,611,o),
(568,687,cs),
(568,742,o),
(545,755,o),
(523,754,cs),
(433,750,o),
(220,754,o),
(117,758,cs),
(90,759,o),
(65,733,o),
(65,690,cs),
(65,651,o),
(74,630,o),
(86,611,c),
(74,510,o),
(73,486,o),
(73,383,cs),
(73,270,o),
(72,130,o),
(64,48,cs)
);
}
);
userData = {
com.hugojourdan.ColorFlow = {
"0" = 0;
"1" = 0;
"10" = 0;
"11" = 0;
"2" = 0;
"3" = 0;
"4" = 0;
"5" = 0;
"6" = 0;
"7" = 0;
"8" = 0;
"9" = 0;
};
};
width = 588;
}
);
unicode = 70;
},
{
glyphname = F.alt1;
lastChange = "2023-03-06 08:23:53 +0000";
layers = (
{
anchors = (
{
name = top;
pos = (364,759);
}
);
layerId = m01;
shapes = (
{
closed = 1;
nodes = (
(142,504,o),
(137,267,o),
(123,13,cs),
(122,-2,o),
(129,-9,o),
(138,-9,cs),
(146,-9,o),
(155,-2,o),
(156,13,cs),
(161,139,o),
(167,248,o),
(172,357,c),
(268,359,o),
(364,362,o),
(462,366,cs),
(483,367,o),
(486,374,o),
(486,382,cs),
(486,390,o),
(482,397,o),
(459,396,cs),
(362,392,o),
(268,389,o),
(172,387,c),
(176,501,o),
(181,620,o),
(186,732,c),
(520,735,ls),
(532,735,o),
(537,743,o),
(537,749,cs),
(538,758,o),
(531,766,o),
(520,766,cs),
(182,763,ls),
(163,763,o),
(154,757,o),
(154,742,cs)
);
}
);
userData = {
com.hugojourdan.ColorFlow = {
"0" = 0;
"1" = 0;
"10" = 0;
"11" = 0;
"2" = 0;
"3" = 0;
"4" = 0;
"5" = 0;
"6" = 0;
"7" = 0;
"8" = 0;
"9" = 0;
};
};
width = 580;
},
{
anchors = (
{
name = top;
pos = (339,747);
}
);
layerId = m002;
shapes = (
{
closed = 1;
nodes = (
(109,491,o),
(104,260,o),
(90,30,cs),
(89,4,o),
(110,-9,o),
(130,-9,cs),
(150,-9,o),
(171,4,o),
(171,30,cs),
(177,131,o),
(182,232,o),
(186,333,c),
(277,335,o),
(369,338,o),
(462,342,cs),
(483,343,o),
(503,360,o),
(502,383,cs),
(501,404,o),
(484,421,o),
(462,420,cs),
(370,416,o),
(280,413,o),
(189,411,c),
(192,501,o),
(196,596,o),
(200,685,c),
(513,688,ls),
(534,688,o),
(554,703,o),
(553,725,cs),
(552,747,o),
(535,766,o),
(513,766,cs),
(178,763,ls),
(149,763,o),
(121,751,o),
(121,722,cs)
);
}
);
userData = {
com.hugojourdan.ColorFlow = {
"0" = 0;
"1" = 0;
"10" = 0;
"11" = 0;
"2" = 0;
"3" = 0;
"4" = 0;
"5" = 0;
"6" = 0;
"7" = 0;
"8" = 0;
"9" = 0;
};
};
width = 590;
},
{
anchors = (
{
name = top;
pos = (312,764);
}
);
layerId = m003;
shapes = (
{
closed = 1;
nodes = (
(59,491,o),
(54,260,o),
(42,50,cs),
(39,4,o),
(85,-9,o),
(130,-9,cs),
(174,-9,o),
(221,4,o),
(223,50,cs),
(226,120,o),
(232,206,o),
(236,293,c),
(311,295,o),
(386,299,o),
(452,302,cs),
(495,304,o),
(524,338,o),
(522,383,cs),
(520,427,o),
(508,461,o),
(456,459,cs),
(406,457,o),
(321,453,o),
(239,451,c),
(242,502,o),
(243,555,o),
(247,605,c),
(493,608,ls),
(541,609,o),
(565,639,o),
(563,685,cs),
(561,728,o),
(541,766,o),
(503,766,cs),
(178,763,ls),
(124,763,o),
(71,751,o),
(69,702,cs)
);
}
);
userData = {
com.hugojourdan.ColorFlow = {
"0" = 0;
"1" = 0;
"10" = 0;
"11" = 0;
"2" = 0;
"3" = 0;
"4" = 0;
"5" = 0;
"6" = 0;
"7" = 0;
"8" = 0;
"9" = 0;
};
};
width = 583;
}
);
metricLeft = F;
metricRight = F;
},
{
glyphname = F.alt2;
lastChange = "2023-03-06 08:23:53 +0000";
layers = (
{
anchors = (
{
name = top;
pos = (365,764);
}
);
layerId = m01;
shapes = (
{
closed = 1;
nodes = (
(148,-12,o),
(153,-8,o),
(155,10,cs),
(167,142,o),
(175,240,o),
(183,346,c),
(259,350,o),
(335,352,o),
(447,352,cs),
(462,352,o),
(468,359,o),
(468,369,cs),
(468,378,o),
(460,384,o),
(444,384,cs),
(334,384,o),
(260,380,o),
(185,376,c),
(192,488,o),
(197,610,o),
(197,721,c),
(297,728,o),
(393,733,o),
(492,735,cs),
(510,736,o),
(514,742,o),
(514,750,cs),
(514,757,o),
(511,765,o),
(495,765,cs),
(393,763,o),
(292,758,o),
(191,748,cs),
(171,746,o),
(165,737,o),
(165,721,cs),
(162,482,o),
(148,255,o),
(123,10,cs),
(121,-5,o),
(127,-12,o),
(138,-12,cs)
);
}
);
userData = {
com.hugojourdan.ColorFlow = {
"0" = 0;
"1" = 0;
"10" = 0;
"11" = 0;
"2" = 0;
"3" = 0;
"4" = 0;
"5" = 0;
"6" = 0;
"7" = 0;
"8" = 0;
"9" = 0;
};
};
width = 557;
},
{
anchors = (
{
name = top;
pos = (324,768);
}
);
layerId = m002;
shapes = (
{
closed = 1;
nodes = (
(150,-12,o),
(169,2,o),
(171,28,cs),
(181,134,o),
(189,224,o),
(196,322,c),
(265,326,o),
(335,328,o),
(441,328,cs),
(462,328,o),
(482,347,o),
(481,369,cs),
(480,391,o),
(464,408,o),
(441,408,cs),
(337,408,o),
(269,404,o),
(201,400,c),
(206,489,o),
(210,584,o),
(211,673,c),
(303,680,o),
(394,685,o),
(486,687,cs),
(507,687,o),
(528,703,o),
(527,725,cs),
(526,747,o),
(509,765,o),
(486,765,cs),
(384,763,o),
(283,758,o),
(182,748,cs),
(143,744,o),
(131,736,o),
(130,698,cs),
(128,482,o),
(114,255,o),
(90,28,cs),
(89,15,o),
(99,-12,o),
(129,-12,cs)
);
}
);
userData = {
com.hugojourdan.ColorFlow = {
"0" = 0;
"1" = 0;
"10" = 0;
"11" = 0;
"2" = 0;
"3" = 0;
"4" = 0;
"5" = 0;
"6" = 0;
"7" = 0;
"8" = 0;
"9" = 0;
};
};
width = 564;
},
{
anchors = (
{
name = top;
pos = (299,764);
}
);
layerId = m003;
shapes = (
{
closed = 1;
nodes = (
(175,-12,o),
(219,2,o),
(223,48,cs),
(230,120,o),
(237,197,o),
(243,282,c),
(298,286,o),
(354,288,o),
(438,288,cs),
(471,288,o),
(503,326,o),
(501,369,cs),
(499,414,o),
(476,448,o),
(443,448,cs),
(361,448,o),
(307,444,o),
(253,440,c),
(257,490,o),
(260,543,o),
(261,593,c),
(336,600,o),
(411,605,o),
(476,606,cs),
(512,607,o),
(539,640,o),
(537,685,cs),
(535,729,o),
(515,765,o),
(476,764,cs),
(384,763,o),
(283,758,o),
(182,748,cs),
(106,740,o),
(81,736,o),
(80,678,cs),
(78,482,o),
(64,255,o),
(42,48,cs),
(39,15,o),
(61,-12,o),
(129,-12,cs)
);
}
);
userData = {
com.hugojourdan.ColorFlow = {
"0" = 0;
"1" = 0;
"10" = 0;
"11" = 0;
"2" = 0;
"3" = 0;
"4" = 0;
"5" = 0;
"6" = 0;
"7" = 0;
"8" = 0;
"9" = 0;
};
};
width = 557;
}
);
metricLeft = F;
metricRight = F;
},
{
glyphname = F.alt3;
lastChange = "2023-03-06 08:23:53 +0000";
layers = (
{
anchors = (
{
name = top;
pos = (352,755);
}
);
layerId = m01;
shapes = (
{
closed = 1;
nodes = (
(145,595,o),
(142,470,o),
(140,350,cs),
(138,245,o),
(136,140,o),
(123,16,cs),
(122,9,o),
(125,3,o),
(129,0,cs),
(132,-3,o),
(135,-4,o),
(140,-4,cs),
(148,-4,o),
(154,4,o),
(155,16,cs),
(168,142,o),
(170,248,o),
(172,354,cs),
(174,473,o),
(177,593,o),
(192,731,cs),
(194,744,o),
(186,751,o),
(176,751,cs),
(169,751,o),
(162,746,o),
(161,736,cs)
);
},
{
closed = 1;
nodes = (
(281,723,o),
(387,728,o),
(524,726,cs),
(541,726,o),
(546,735,o),
(546,742,cs),
(546,751,o),
(540,758,o),
(524,758,cs),
(500,758,o),
(385,757,o),
(352,755,cs),
(283,751,o),
(221,751,o),
(183,745,cs),
(174,744,o),
(170,734,o),
(169,726,cs),
(169,719,o),
(172,714,o),
(185,715,cs)
);
},
{
closed = 1;
nodes = (
(255,350,o),
(366,356,o),
(474,351,cs),
(492,349,o),
(497,355,o),
(497,365,cs),
(497,372,o),
(492,379,o),
(474,380,cs),
(407,385,o),
(234,382,o),
(165,373,cs),
(150,371,o),
(146,364,o),
(146,356,cs),
(146,350,o),
(152,344,o),
(158,344,cs)
);
}
);
userData = {
com.hugojourdan.ColorFlow = {
"0" = 0;
"1" = 0;
"10" = 0;
"11" = 0;
"2" = 0;
"3" = 0;
"4" = 0;
"5" = 0;
"6" = 0;
"7" = 0;
"8" = 0;
"9" = 0;
};
};
width = 589;
},
{
anchors = (
{
name = top;
pos = (342,755);
}
);
layerId = m002;
shapes = (
{
closed = 1;
nodes = (
(110,595,o),
(107,471,o),
(105,351,cs),
(103,246,o),
(101,140,o),
(90,36,cs),
(89,27,o),
(95,14,o),
(102,8,cs),
(110,0,o),
(120,-4,o),
(130,-4,cs),
(150,-4,o),
(168,12,o),
(171,36,cs),
(182,142,o),
(184,248,o),
(186,354,cs),
(188,473,o),
(191,593,o),
(204,711,cs),
(207,737,o),
(184,750,o),
(164,750,cs),
(144,750,o),
(126,737,o),
(123,711,cs)
);
},
{
closed = 1;
nodes = (
(274,675,o),
(377,682,o),
(514,680,cs),
(541,680,o),
(554,697,o),
(554,718,cs),
(554,738,o),
(541,758,o),
(514,758,cs),
(490,758,o),
(375,757,o),
(342,755,cs),
(273,751,o),
(209,751,o),
(163,744,cs),
(137,740,o),
(132,718,o),
(132,708,cs),
(132,687,o),
(148,664,o),
(172,666,cs)
);
},
{
closed = 1;
nodes = (
(274,331,o),
(356,332,o),
(474,325,cs),
(500,325,o),
(513,345,o),
(513,365,cs),
(513,386,o),
(500,401,o),
(474,403,cs),
(416,408,o),
(237,415,o),
(168,401,cs),
(133,394,o),
(111,384,o),
(115,363,c),
(116,343,o),
(133,321,o),
(156,323,cs)
);
}
);
userData = {
com.hugojourdan.ColorFlow = {
"0" = 0;
"1" = 0;
"10" = 0;
"11" = 0;
"2" = 0;
"3" = 0;
"4" = 0;
"5" = 0;
"6" = 0;
"7" = 0;
"8" = 0;
"9" = 0;
};
};
width = 591;
},
{
anchors = (
{
name = top;
pos = (314,764);
}
);
layerId = m003;
shapes = (
{
closed = 1;
nodes = (
(61,595,o),
(58,471,o),
(56,351,cs),
(54,246,o),
(52,150,o),
(43,66,cs),
(41,43,o),
(54,20,o),
(77,8,cs),
(96,-2,o),
(112,-4,o),
(131,-4,cs),
(175,-4,o),
(219,12,o),
(224,56,cs),
(233,142,o),
(235,248,o),
(237,354,cs),
(239,473,o),
(242,593,o),
(253,691,cs),
(259,745,o),
(201,760,o),
(156,760,cs),
(112,760,o),
(78,745,o),
(72,691,cs)
);
},
{
closed = 1;
nodes = (
(269,594,o),
(366,602,o),
(495,600,cs),
(542,600,o),
(565,635,o),
(565,678,cs),
(565,718,o),
(542,758,o),
(495,758,cs),
(474,758,o),
(372,757,o),
(343,755,cs),
(274,751,o),
(210,751,o),
(184,747,cs),
(138,740,o),
(133,689,o),
(133,668,cs),
(133,627,o),
(149,584,o),
(193,588,cs)
);
},
{
closed = 1;
nodes = (
(275,291,o),
(357,292,o),
(465,287,cs),
(508,285,o),
(524,325,o),
(524,365,cs),
(524,408,o),
(508,440,o),
(465,444,cs),
(417,448,o),
(238,455,o),
(169,441,cs),
(126,432,o),
(105,406,o),
(106,363,cs),
(107,323,o),
(128,281,o),
(157,283,cs)
);
}
);
userData = {
com.hugojourdan.ColorFlow = {
"0" = 0;
"1" = 0;
"10" = 0;
"11" = 0;
"2" = 0;
"3" = 0;
"4" = 0;
"5" = 0;
"6" = 0;
"7" = 0;
"8" = 0;
"9" = 0;
};
};
width = 585;
}
);
metricLeft = F;
metricRight = F;
},
{
glyphname = F.alt4;
lastChange = "2023-03-06 08:23:53 +0000";
layers = (
{
anchors = (
{
name = top;
pos = (347,748);
}
);
layerId = m01;
shapes = (
{
closed = 1;
nodes = (
(146,473,o),
(136,248,o),
(124,10,cs),
(123,-8,o),
(128,-15,o),
(140,-15,cs),
(149,-15,o),
(156,-8,o),
(157,10,cs),
(162,129,o),
(167,235,o),
(171,340,c),
(174,339,o),
(391,344,o),
(484,346,cs),
(502,346,o),
(507,352,o),
(507,362,cs),
(507,371,o),
(502,378,o),
(484,378,cs),
(390,375,o),
(285,370,o),
(174,370,c),
(177,481,o),
(179,596,o),
(180,707,c),
(287,710,o),
(398,714,o),
(496,717,cs),
(513,717,o),
(519,725,o),
(519,732,cs),
(519,741,o),
(513,749,o),
(496,748,cs),
(401,745,o),
(268,739,o),
(171,736,cs),
(154,735,o),
(148,728,o),
(148,710,cs)
);
}
);
userData = {
com.hugojourdan.ColorFlow = {
"0" = 0;
"1" = 0;
"10" = 0;
"11" = 0;
"2" = 0;
"3" = 0;
"4" = 0;
"5" = 0;
"6" = 0;
"7" = 0;
"8" = 0;
"9" = 0;
};
};
width = 564;
},
{
anchors = (
{
name = top;
pos = (330,755);
}
);
layerId = m002;
shapes = (
{
closed = 1;
nodes = (
(112,473,o),
(104,248,o),
(90,24,cs),
(88,-2,o),
(110,-15,o),
(131,-15,cs),
(151,-15,o),
(171,-2,o),
(171,24,cs),
(177,121,o),
(182,220,o),
(186,317,c),
(189,316,o),
(391,321,o),
(488,323,cs),
(510,323,o),
(530,339,o),
(529,361,cs),
(528,383,o),
(511,402,o),
(488,401,cs),
(391,399,o),
(293,394,o),
(189,394,c),
(192,481,o),
(194,570,o),
(195,657,c),
(294,660,o),
(395,664,o),
(495,667,cs),
(516,668,o),
(537,685,o),
(536,708,cs),
(535,729,o),
(518,749,o),
(495,748,cs),
(390,745,o),
(259,739,o),
(149,736,cs),
(131,734,o),
(114,721,o),
(114,697,cs)
);
}
);
userData = {
com.hugojourdan.ColorFlow = {
"0" = 0;
"1" = 0;
"10" = 0;
"11" = 0;
"2" = 0;
"3" = 0;
"4" = 0;
"5" = 0;
"6" = 0;
"7" = 0;
"8" = 0;
"9" = 0;
};
};
width = 579;
},
{
anchors = (
{
name = top;
pos = (308,764);
}
);
layerId = m003;
shapes = (
{
closed = 1;
nodes = (
(63,473,o),
(55,248,o),
(42,44,cs),
(39,-2,o),
(85,-15,o),
(132,-15,cs),
(177,-15,o),
(222,-2,o),
(224,44,cs),
(227,110,o),
(232,194,o),
(236,277,c),
(239,276,o),
(407,281,o),
(468,282,cs),
(516,283,o),
(542,327,o),
(540,372,cs),
(538,416,o),
(518,442,o),
(470,441,cs),
(409,439,o),
(328,434,o),
(241,434,c),
(244,481,o),
(245,530,o),
(246,577,c),
(329,580,o),
(413,584,o),
(486,587,cs),
(522,588,o),
(549,623,o),
(547,668,cs),
(545,709,o),
(525,749,o),
(486,748,cs),
(391,745,o),
(260,739,o),
(150,736,cs),
(107,731,o),
(65,721,o),
(65,667,cs)
);
}
);
userData = {
com.hugojourdan.ColorFlow = {
"0" = 0;
"1" = 0;
"10" = 0;
"11" = 0;
"2" = 0;
"3" = 0;
"4" = 0;
"5" = 0;
"6" = 0;
"7" = 0;
"8" = 0;
"9" = 0;
};
};
width = 571;
}
);
metricLeft = F;
metricRight = F;
},
{
glyphname = F.alt5;
lastChange = "2023-03-06 08:23:53 +0000";
layers = (
{
anchors = (
{
name = top;
pos = (349,750);
}
);
layerId = m01;
shapes = (
{
closed = 1;
nodes = (
(150,474,o),
(137,241,o),
(123,-5,cs),
(122,-21,o),
(128,-31,o),
(138,-31,cs),
(147,-31,o),
(154,-21,o),
(155,-5,cs),
(174,340,l),
(284,344,o),
(375,344,o),
(473,341,cs),
(486,340,o),
(493,346,o),
(493,356,cs),
(493,364,o),
(486,370,o),
(473,371,cs),
(376,373,o),
(286,374,o),
(179,370,c),
(198,727,ls),
(199,738,o),
(192,746,o),
(181,746,cs),
(173,746,o),
(167,738,o),
(166,727,cs)
);
},
{
closed = 1;
nodes = (
(295,713,o),
(388,713,o),
(475,720,cs),
(487,721,o),
(494,727,o),
(494,736,cs),
(494,745,o),
(487,751,o),
(475,750,cs),
(388,746,o),
(295,743,o),
(208,741,cs),
(193,740,o),
(184,734,o),
(184,726,cs),
(184,717,o),
(193,711,o),
(208,711,cs)
);
}
);
userData = {
com.hugojourdan.ColorFlow = {
"0" = 0;
"1" = 0;
"10" = 0;
"11" = 0;
"2" = 0;
"3" = 0;
"4" = 0;
"5" = 0;
"6" = 0;
"7" = 0;
"8" = 0;
"9" = 0;
};
};
width = 550;
},
{
anchors = (
{
name = top;
pos = (332,740);
}
);
layerId = m002;
shapes = (
{
closed = 1;
nodes = (
(116,474,o),
(103,241,o),
(89,8,cs),
(88,-18,o),
(109,-31,o),
(129,-31,cs),
(149,-31,o),
(168,-18,o),
(170,8,cs),
(188,316,l),
(290,320,o),
(372,320,o),
(472,317,cs),
(493,316,o),
(513,335,o),
(512,356,cs),
(511,379,o),
(494,394,o),
(472,395,cs),
(373,397,o),
(292,398,o),
(193,394,c),
(211,707,ls),
(212,733,o),
(191,746,o),
(171,746,cs),
(151,746,o),
(132,733,o),
(130,707,cs)
);
},
{
closed = 1;
nodes = (
(305,665,o),
(385,667,o),
(465,672,cs),
(486,673,o),
(507,689,o),
(506,711,cs),
(505,732,o),
(488,751,o),
(465,750,cs),
(385,745,o),
(305,743,o),
(225,741,cs),
(199,740,o),
(186,721,o),
(186,701,cs),
(186,681,o),
(199,663,o),
(225,663,cs)
);
}
);
userData = {
com.hugojourdan.ColorFlow = {
"0" = 0;
"1" = 0;
"10" = 0;
"11" = 0;
"2" = 0;
"3" = 0;
"4" = 0;
"5" = 0;
"6" = 0;
"7" = 0;
"8" = 0;
"9" = 0;
};
};
width = 562;
},
{
anchors = (
{
name = top;
pos = (298,764);
}
);
layerId = m003;
shapes = (
{
closed = 1;
nodes = (
(66,474,o),
(53,241,o),
(41,28,cs),
(38,-18,o),
(84,-31,o),
(129,-31,cs),
(173,-31,o),
(218,-18,o),
(221,28,cs),
(236,276,l),
(320,280,o),
(388,279,o),
(460,277,cs),
(506,276,o),
(529,313,o),
(527,356,cs),
(525,403,o),
(509,434,o),
(464,435,cs),
(393,437,o),
(326,438,o),
(245,434,c),
(260,687,ls),
(263,740,o),
(216,756,o),
(171,756,cs),
(127,756,o),
(83,740,o),
(80,687,cs)
);
},
{
closed = 1;
nodes = (
(372,585,o),
(396,587,o),
(475,591,cs),
(512,593,o),
(539,626,o),
(537,671,cs),
(535,713,o),
(514,751,o),
(465,748,cs),
(398,745,o),
(364,743,o),
(285,741,cs),
(236,739,o),
(216,701,o),
(216,661,cs),
(216,620,o),
(244,583,o),
(293,584,cs)
);
}
);
userData = {
com.hugojourdan.ColorFlow = {
"0" = 0;
"1" = 0;
"10" = 0;
"11" = 0;
"2" = 0;
"3" = 0;
"4" = 0;
"5" = 0;
"6" = 0;
"7" = 0;
"8" = 0;
"9" = 0;
};
};
width = 558;
}
);
metricLeft = F;
metricRight = F;
},
{
glyphname = F.alt6;
lastChange = "2023-03-06 08:23:53 +0000";
layers = (
{
anchors = (
{
name = top;
pos = (354,764);
}
);
layerId = m01;
shapes = (
{
closed = 1;
nodes = (
(162,481,o),
(152,252,o),
(135,15,cs),
(134,-3,o),
(139,-14,o),
(150,-14,cs),
(159,-14,o),
(166,-3,o),
(167,15,cs),
(176,130,o),
(181,237,o),
(186,342,c),
(278,354,o),
(354,353,o),
(445,344,cs),
(458,343,o),
(467,349,o),
(467,359,cs),
(467,367,o),
(458,374,o),
(445,375,cs),
(363,384,o),
(261,383,o),
(188,372,c),
(192,484,o),
(195,597,o),
(196,729,cs),
(196,742,o),
(188,748,o),
(179,748,cs),
(171,748,o),
(163,742,o),
(163,729,cs)
);
},
{
closed = 1;
nodes = (
(218,725,o),
(271,722,o),
(322,722,cs),
(386,722,o),
(451,724,o),
(515,728,cs),
(531,729,o),
(539,736,o),
(539,743,cs),
(539,751,o),
(531,759,o),
(515,758,cs),
(449,754,o),
(382,752,o),
(316,752,cs),
(267,752,o),
(216,755,o),
(168,759,cs),
(155,760,o),
(149,753,o),
(149,745,cs),
(149,738,o),
(155,730,o),
(168,729,cs)
);
}
);
userData = {
com.hugojourdan.ColorFlow = {
"0" = 0;
"1" = 0;
"10" = 0;
"11" = 0;
"2" = 0;
"3" = 0;
"4" = 0;
"5" = 0;
"6" = 0;
"7" = 0;
"8" = 0;
"9" = 0;
};
};
width = 582;
},
{
anchors = (
{
name = top;
pos = (367,749);
}
);
layerId = m002;
shapes = (
{
closed = 1;
nodes = (
(145,481,o),
(135,252,o),
(118,25,cs),
(117,-1,o),
(138,-14,o),
(158,-14,cs),
(178,-14,o),
(197,-1,o),
(199,25,cs),
(206,121,o),
(212,220,o),
(217,316,c),
(301,328,o),
(370,329,o),
(455,321,cs),
(472,319,o),
(495,335,o),
(495,358,cs),
(495,378,o),
(479,396,o),
(455,399,cs),
(417,403,o),
(287,407,o),
(220,396,c),
(224,500,o),
(227,605,o),
(227,709,cs),
(228,735,o),
(207,748,o),
(187,748,cs),
(167,748,o),
(146,735,o),
(146,709,cs)
);
},
{
closed = 1;
nodes = (
(218,677,o),
(284,674,o),
(350,674,cs),
(408,674,o),
(466,676,o),
(524,680,cs),
(550,682,o),
(563,699,o),
(563,720,cs),
(563,740,o),
(550,758,o),
(524,758,cs),
(464,754,o),
(404,752,o),
(344,752,cs),
(280,752,o),
(216,754,o),
(153,759,cs),
(127,760,o),
(114,741,o),
(114,721,cs),
(114,700,o),
(127,681,o),
(153,681,cs)
);
}
);
userData = {
com.hugojourdan.ColorFlow = {
"0" = 0;
"1" = 0;
"10" = 0;
"11" = 0;
"2" = 0;
"3" = 0;
"4" = 0;
"5" = 0;
"6" = 0;
"7" = 0;
"8" = 0;
"9" = 0;
};
};
width = 600;
},
{
anchors = (
{
name = top;
pos = (397,749);
}
);
layerId = m003;
shapes = (
{
closed = 1;
nodes = (
(125,461,o),
(115,252,o),
(100,45,cs),
(97,-1,o),
(143,-14,o),
(188,-14,cs),
(232,-14,o),
(277,-1,o),
(280,45,cs),
(285,108,o),
(291,193,o),
(295,276,c),
(337,284,o),
(412,284,o),
(464,279,cs),
(510,275,o),
(546,289,o),
(546,355,cs),
(546,402,o),
(523,428,o),
(484,436,cs),
(429,447,o),
(353,447,o),
(302,436,c),
(305,527,o),
(307,598,o),
(308,669,cs),
(308,715,o),
(262,728,o),
(217,728,cs),
(173,728,o),
(126,715,o),
(126,669,cs)
);
},
{
closed = 1;
nodes = (
(185,596,o),
(282,594,o),
(380,594,cs),
(438,594,o),
(496,596,o),
(534,599,cs),
(587,603,o),
(603,638,o),
(603,680,cs),
(603,721,o),
(587,758,o),
(534,756,cs),
(494,754,o),
(434,752,o),
(374,752,cs),
(278,752,o),
(182,753,o),
(143,756,cs),
(77,760,o),
(64,716,o),
(64,675,cs),
(64,633,o),
(77,601,o),
(133,599,cs)
);
}
);
userData = {
com.hugojourdan.ColorFlow = {
"0" = 0;
"1" = 0;
"10" = 0;
"11" = 0;
"2" = 0;
"3" = 0;
"4" = 0;
"5" = 0;
"6" = 0;
"7" = 0;
"8" = 0;
"9" = 0;
};
};
width = 623;
}
);
metricLeft = F;
metricRight = F;
},
{
glyphname = G;
lastChange = "2023-03-03 13:17:05 +0000";
layers = (
{
anchors = (
{
name = bottom;
pos = (404,-7);
},
{
name = top;
pos = (473,771);
}
);
layerId = m01;
shapes = (
{
closed = 1;
nodes = (
(610,764,o),
(540,780,o),
(473,780,cs),
(267,780,o),
(73,569,o),
(73,338,cs),
(73,140,o),
(219,-19,o),
(400,-19,cs),
(580,-19,o),
(754,159,o),
(754,372,cs),
(754,382,o),
(746,391,o),
(733,391,cs),
(628,392,o),
(554,393,o),
(470,393,cs),
(448,393,o),
(439,388,o),
(440,376,cs),
(441,364,o),
(447,362,o),
(470,362,cs),
(541,362,o),
(651,361,o),
(722,361,c),
(715,168,o),
(564,11,o),
(399,11,cs),
(197,11,o),
(106,198,o),
(106,346,cs),
(106,503,o),
(250,750,o),
(466,750,cs),
(529,750,o),
(598,736,o),
(684,665,cs),
(693,658,o),
(698,655,o),
(702,655,cs),
(709,655,o),
(719,661,o),
(719,670,cs),
(719,677,o),
(715,683,o),
(701,694,cs)
);
}
);
userData = {
com.hugojourdan.ColorFlow = {
"0" = 0;
"1" = 0;
"10" = 0;
"11" = 0;
"2" = 0;
"3" = 0;
"4" = 0;
"5" = 0;
"6" = 0;
"7" = 0;
"8" = 0;
"9" = 0;
};
};
width = 823;
},
{
anchors = (
{
name = bottom;
pos = (411,0);
},
{
name = top;
pos = (476,771);
}
);
layerId = m002;
shapes = (
{
closed = 1;
nodes = (
(653,748,o),
(565,780,o),
(481,780,cs),
(265,780,o),
(71,579,o),
(71,348,cs),
(71,150,o),
(217,-19,o),
(408,-19,cs),
(598,-19,o),
(772,159,o),
(772,347,cs),
(772,376,o),
(764,402,o),
(730,403,cs),
(646,403,o),
(562,404,o),
(478,404,cs),
(456,404,o),
(438,388,o),
(439,366,cs),
(440,344,o),
(455,326,o),
(478,326,cs),
(548,326,o),
(619,325,o),
(689,325,c),
(676,191,o),
(557,59,o),
(407,59,cs),
(229,59,o),
(152,247,o),
(152,346,cs),
(152,453,o),
(246,699,o),
(474,699,cs),
(537,699,o),
(599,676,o),
(659,630,cs),
(671,621,o),
(684,603,o),
(705,603,cs),
(728,603,o),
(745,624,o),
(745,646,cs),
(745,656,o),
(741,666,o),
(733,673,cs)
);
}
);
userData = {
com.hugojourdan.ColorFlow = {
"0" = 0;
"1" = 0;
"10" = 0;
"11" = 0;
"2" = 0;
"3" = 0;
"4" = 0;
"5" = 0;
"6" = 0;
"7" = 0;
"8" = 0;
"9" = 0;
};
};
width = 840;
},
{
anchors = (
{
name = bottom;
pos = (403,0);
},
{
name = top;
pos = (442,766);
}
);
layerId = m003;
shapes = (
{
closed = 1;
nodes = (
(654,755,o),
(557,780,o),
(466,780,cs),
(227,780,o),
(43,579,o),
(43,348,cs),
(43,150,o),
(189,-19,o),
(400,-19,cs),
(623,-19,o),
(766,180,o),
(766,361,cs),
(766,397,o),
(753,430,o),
(707,430,cs),
(640,430,o),
(554,432,o),
(489,432,cs),
(448,432,o),
(421,399,o),
(421,352,cs),
(421,295,o),
(447,274,o),
(484,274,cs),
(522,274,o),
(551,273,o),
(579,273,c),
(554,215,o),
(508,141,o),
(408,141,cs),
(296,141,o),
(230,247,o),
(230,346,cs),
(230,453,o),
(293,621,o),
(466,621,cs),
(529,621,o),
(574,604,o),
(634,566,cs),
(646,558,o),
(659,543,o),
(680,543,cs),
(703,543,o),
(752,587,o),
(752,631,cs),
(752,652,o),
(742,673,o),
(734,680,cs)
);
}
);
userData = {
com.hugojourdan.ColorFlow = {
"0" = 0;
"1" = 0;
"10" = 0;
"11" = 0;
"2" = 0;
"3" = 0;
"4" = 0;
"5" = 0;
"6" = 0;
"7" = 0;
"8" = 0;
"9" = 0;
};
};
width = 818;
}
);
unicode = 71;
},
{
glyphname = G.alt1;
lastChange = "2023-03-03 13:17:10 +0000";
layers = (
{
anchors = (
{
name = bottom;
pos = (408,-6);
},
{
name = top;
pos = (461,785);
}
);
layerId = m01;
shapes = (
{
closed = 1;
nodes = (
(632,761,o),
(546,793,o),
(460,793,cs),
(215,793,o),
(73,559,o),
(73,343,cs),
(73,153,o),
(183,-24,o),
(408,-16,cs),
(623,-8,o),
(720,243,o),
(720,394,c),
(767,395,ls),
(791,396,o),
(797,399,o),
(797,407,cs),
(797,417,o),
(791,420,o),
(779,421,cs),
(734,423,o),
(702,423,o),
(666,422,cs),
(599,420,o),
(528,414,o),
(472,408,cs),
(447,405,o),
(442,400,o),
(443,390,cs),
(444,379,o),
(450,377,o),
(480,380,cs),
(535,385,o),
(628,390,o),
(687,393,c),
(675,192,o),
(564,14,o),
(391,14,cs),
(206,14,o),
(106,169,o),
(106,339,cs),
(106,548,o),
(239,763,o),
(461,763,cs),
(525,763,o),
(604,745,o),
(669,688,cs),
(678,681,o),
(681,679,o),
(686,679,cs),
(692,679,o),
(701,685,o),
(701,694,cs),
(701,699,o),
(700,702,o),
(690,711,cs)
);
}
);
userData = {
com.hugojourdan.ColorFlow = {
"0" = 0;
"1" = 0;
"10" = 0;
"11" = 0;
"2" = 0;
"3" = 0;
"4" = 0;
"5" = 0;
"6" = 0;
"7" = 0;
"8" = 0;
"9" = 0;
};
};
width = 865;
},
{
anchors = (
{
name = bottom;
pos = (418,0);
},
{
name = top;
pos = (468,780);
}
);
background = {
shapes = (
{
closed = 1;
nodes = (
(646,760,o),
(556,792,o),
(465,792,cs),
(195,792,o),
(66,545,o),
(66,295,cs),
(66,138,o),
(201,-15,o),
(398,-15,cs),
(623,-15,o),
(733,220,o),
(733,344,c),
(770,343,ls),
(792,342,o),
(812,362,o),
(811,383,cs),
(810,406,o),
(793,419,o),
(770,421,cs),
(711,426,o),
(563,423,o),
(477,417,cs),
(450,415,o),
(437,399,o),
(437,379,cs),
(437,358,o),
(452,335,o),
(482,338,cs),
(537,343,o),
(595,345,o),
(654,345,c),
(620,170,o),
(544,63,o),
(395,63,cs),
(278,63,o),
(147,141,o),
(147,308,cs),
(147,476,o),
(228,714,o),
(468,714,cs),
(535,714,o),
(599,689,o),
(655,638,cs),
(664,630,o),
(673,626,o),
(682,626,cs),
(704,626,o),
(724,646,o),
(724,668,cs),
(724,677,o),
(720,687,o),
(712,695,cs)
);
}
);
};
layerId = m002;
shapes = (
{
closed = 1;
nodes = (
(640,764,o),
(554,793,o),
(468,793,cs),
(213,793,o),
(71,559,o),
(71,343,cs),
(71,153,o),
(181,-24,o),
(416,-16,cs),
(641,-8,o),
(743,230,o),
(738,354,c),
(775,355,ls),
(795,356,o),
(815,373,o),
(815,393,cs),
(815,417,o),
(797,431,o),
(773,433,cs),
(752,434,o),
(720,433,o),
(684,432,cs),
(617,430,o),
(536,424,o),
(480,418,cs),
(453,415,o),
(441,399,o),
(441,379,cs),
(442,358,o),
(458,336,o),
(488,340,cs),
(543,346,o),
(600,350,o),
(659,353,c),
(631,171,o),
(555,62,o),
(399,62,cs),
(229,62,o),
(152,193,o),
(152,339,cs),
(152,516,o),
(266,715,o),
(469,715,cs),
(533,715,o),
(594,692,o),
(650,645,cs),
(659,638,o),
(669,634,o),
(678,634,cs),
(699,635,o),
(718,655,o),
(718,676,cs),
(718,686,o),
(714,697,o),
(705,704,cs)
);
}
);
userData = {
com.hugojourdan.ColorFlow = {
"0" = 0;
"1" = 0;
"10" = 0;
"11" = 0;
"2" = 0;
"3" = 0;
"4" = 0;
"5" = 0;
"6" = 0;
"7" = 0;
"8" = 0;
"9" = 0;
};
};
width = 882;
},
{
anchors = (
{
name = bottom;
pos = (400,-4);
},
{
name = top;
pos = (439,782);
}
);
background = {
shapes = (
{
closed = 0;
nodes = (
(235,374,ls)
);
}
);
};
layerId = m003;
shapes = (
{
closed = 1;
nodes = (
(647,770,o),
(534,794,o),
(447,794,cs),
(222,794,o),
(43,602,o),
(43,344,cs),
(43,150,o),
(175,-15,o),
(389,-15,cs),
(630,-15,o),
(726,220,o),
(735,304,c),
(776,305,ls),
(796,305,o),
(826,329,o),
(826,384,cs),
(826,434,o),
(798,451,o),
(774,453,cs),
(753,454,o),
(721,453,o),
(685,452,cs),
(618,450,o),
(537,444,o),
(481,438,cs),
(454,435,o),
(432,411,o),
(432,358,cs),
(432,323,o),
(459,286,o),
(489,290,cs),
(521,294,o),
(545,295,o),
(565,295,c),
(559,253,o),
(506,154,o),
(400,154,cs),
(294,154,o),
(235,240,o),
(235,344,cs),
(235,557,o),
(366,636,o),
(459,636,cs),
(528,636,o),
(573,622,o),
(630,581,cs),
(643,571,o),
(657,568,o),
(665,568,cs),
(696,568,o),
(739,624,o),
(739,665,cs),
(739,682,o),
(736,695,o),
(721,708,cs)
);
}
);
userData = {
com.hugojourdan.ColorFlow = {
"0" = 0;
"1" = 0;
"10" = 0;
"11" = 0;
"2" = 0;
"3" = 0;
"4" = 0;
"5" = 0;
"6" = 0;
"7" = 0;
"8" = 0;
"9" = 0;
};
};
width = 877;
}
);
metricLeft = G;
metricRight = G;
},
{
glyphname = G.alt2;
lastChange = "2023-03-03 13:17:20 +0000";
layers = (
{
anchors = (
{
name = bottom;
pos = (387,-6);
},
{
name = top;
pos = (435,772);
}
);
layerId = m01;
shapes = (
{
closed = 1;
nodes = (
(625,749,o),
(539,783,o),
(448,783,cs),
(215,783,o),
(74,606,o),
(74,363,cs),
(74,149,o),
(216,-19,o),
(376,-19,cs),
(559,-19,o),
(695,156,o),
(707,376,c),
(737,376,ls),
(750,376,o),
(763,375,o),
(762,389,cs),
(761,403,o),
(751,404,o),
(738,405,cs),
(658,409,o),
(524,401,o),
(435,394,cs),
(424,393,o),
(413,391,o),
(413,376,cs),
(413,363,o),
(424,364,o),
(435,365,cs),
(514,372,o),
(610,375,o),
(674,376,c),
(662,194,o),
(552,11,o),
(378,11,cs),
(245,11,o),
(107,157,o),
(107,359,cs),
(107,585,o),
(230,753,o),
(448,753,cs),
(524,753,o),
(615,716,o),
(653,678,cs),
(663,668,o),
(665,666,o),
(670,666,cs),
(678,666,o),
(687,672,o),
(687,681,cs),
(687,685,o),
(686,689,o),
(677,698,cs)
);
}
);
userData = {
com.hugojourdan.ColorFlow = {
"0" = 0;
"1" = 0;
"10" = 0;
"11" = 0;
"2" = 0;
"3" = 0;
"4" = 0;
"5" = 0;
"6" = 0;
"7" = 0;
"8" = 0;
"9" = 0;
};
};
width = 831;
},
{
anchors = (
{
name = bottom;
pos = (391,-8);
},
{
name = top;
pos = (445,778);
}
);
layerId = m002;
shapes = (
{
closed = 1;
nodes = (
(636,752,o),
(547,783,o),
(456,783,cs),
(213,783,o),
(72,606,o),
(72,363,cs),
(72,149,o),
(214,-19,o),
(384,-19,cs),
(577,-19,o),
(713,153,o),
(725,337,c),
(740,337,ls),
(761,337,o),
(781,356,o),
(780,378,cs),
(779,400,o),
(762,414,o),
(740,415,cs),
(676,419,o),
(524,411,o),
(450,405,cs),
(424,403,o),
(411,388,o),
(411,368,cs),
(411,347,o),
(424,325,o),
(450,327,cs),
(514,333,o),
(582,336,o),
(646,337,c),
(634,214,o),
(546,59,o),
(386,59,cs),
(269,59,o),
(154,173,o),
(154,359,cs),
(154,563,o),
(255,705,o),
(456,705,cs),
(532,705,o),
(593,679,o),
(641,626,cs),
(650,616,o),
(659,614,o),
(668,614,cs),
(690,614,o),
(710,634,o),
(710,657,cs),
(710,666,o),
(706,675,o),
(698,684,cs)
);
}
);
userData = {
com.hugojourdan.ColorFlow = {
"0" = 0;
"1" = 0;
"10" = 0;
"11" = 0;
"2" = 0;
"3" = 0;
"4" = 0;
"5" = 0;
"6" = 0;
"7" = 0;
"8" = 0;
"9" = 0;
};
};
width = 847;
},
{
anchors = (
{
name = bottom;
pos = (406,-4);
},
{
name = top;
pos = (427,773);
}
);
layerId = m003;
shapes = (
{
closed = 1;
nodes = (
(690,728,o),
(563,783,o),
(444,783,cs),
(204,783,o),
(43,606,o),
(43,363,cs),
(43,159,o),
(191,-19,o),
(397,-19,cs),
(574,-19,o),
(701,135,o),
(726,287,c),
(744,287,ls),
(772,287,o),
(791,319,o),
(791,363,cs),
(791,411,o),
(773,434,o),
(741,436,cs),
(687,439,o),
(515,431,o),
(447,426,cs),
(415,423,o),
(391,394,o),
(391,346,cs),
(391,309,o),
(415,273,o),
(457,279,cs),
(484,283,o),
(518,287,o),
(557,287,c),
(535,204,o),
(499,139,o),
(397,139,cs),
(304,139,o),
(230,233,o),
(230,359,cs),
(230,493,o),
(293,625,o),
(437,625,cs),
(508,625,o),
(572,596,o),
(600,565,cs),
(613,551,o),
(631,545,o),
(652,545,cs),
(690,545,o),
(730,593,o),
(730,632,cs),
(730,644,o),
(726,658,o),
(720,670,cs)
);
}
);
userData = {
com.hugojourdan.ColorFlow = {
"0" = 0;
"1" = 0;
"10" = 0;
"11" = 0;
"2" = 0;
"3" = 0;
"4" = 0;
"5" = 0;
"6" = 0;
"7" = 0;
"8" = 0;
"9" = 0;
};
};
width = 843;
}
);
metricLeft = G;
metricRight = G;
},
{
glyphname = G.alt3;
lastChange = "2023-03-03 13:17:29 +0000";
layers = (
{
anchors = (
{
name = bottom;
pos = (382,-2);
},
{
name = top;
pos = (415,770);
}
);
layerId = m01;
shapes = (
{
closed = 1;
nodes = (
(594,740,o),
(510,780,o),
(423,780,cs),
(232,780,o),
(74,577,o),
(74,369,cs),
(74,180,o),
(192,-15,o),
(377,-15,cs),
(560,-15,o),
(699,178,o),
(699,381,cs),
(699,397,o),
(694,402,o),
(677,402,cs),
(587,399,o),
(519,396,o),
(445,395,cs),
(423,394,o),
(416,389,o),
(416,377,cs),
(416,365,o),
(423,363,o),
(445,364,cs),
(666,372,l),
(668,189,o),
(527,15,o),
(378,15,cs),
(226,15,o),
(107,176,o),
(107,372,cs),
(107,578,o),
(268,750,o),
(419,750,cs),
(498,750,o),
(590,707,o),
(637,666,cs),
(645,659,o),
(648,655,o),
(652,655,cs),
(659,655,o),
(669,662,o),
(669,673,cs),
(669,678,o),
(667,681,o),
(659,688,cs)
);
}
);
userData = {
com.hugojourdan.ColorFlow = {
"0" = 0;
"1" = 0;
"10" = 0;
"11" = 0;
"2" = 0;
"3" = 0;
"4" = 0;
"5" = 0;
"6" = 0;
"7" = 0;
"8" = 0;
"9" = 0;
};
};
width = 768;
},
{
anchors = (
{
name = bottom;
pos = (394,10);
},
{
name = top;
pos = (414,772);
}
);
layerId = m002;
shapes = (
{
closed = 1;
nodes = (
(596,750,o),
(511,780,o),
(431,780,cs),
(230,780,o),
(72,577,o),
(72,369,cs),
(72,180,o),
(190,-15,o),
(385,-15,cs),
(584,-15,o),
(717,188,o),
(717,373,cs),
(717,395,o),
(702,412,o),
(679,411,cs),
(605,409,o),
(527,406,o),
(453,405,cs),
(427,404,o),
(414,386,o),
(414,366,cs),
(414,346,o),
(427,325,o),
(453,326,cs),
(634,332,l),
(625,195,o),
(509,63,o),
(386,63,cs),
(255,63,o),
(155,204,o),
(155,372,cs),
(155,560,o),
(293,702,o),
(427,702,cs),
(492,702,o),
(569,663,o),
(611,627,cs),
(631,610,o),
(646,603,o),
(656,603,cs),
(679,602,o),
(696,624,o),
(696,645,cs),
(696,656,o),
(691,667,o),
(683,674,cs)
);
}
);
userData = {
com.hugojourdan.ColorFlow = {
"0" = 0;
"1" = 0;
"10" = 0;
"11" = 0;
"2" = 0;
"3" = 0;
"4" = 0;
"5" = 0;
"6" = 0;
"7" = 0;
"8" = 0;
"9" = 0;
};
};
width = 785;
},
{
anchors = (
{
name = bottom;
pos = (386,0);
},
{
name = top;
pos = (416,766);
}
);
layerId = m003;
shapes = (
{
closed = 1;
nodes = (
(608,750,o),
(523,780,o),
(433,780,cs),
(202,780,o),
(44,577,o),
(44,369,cs),
(44,180,o),
(162,-15,o),
(387,-15,cs),
(593,-15,o),
(729,185,o),
(729,373,cs),
(729,403,o),
(714,432,o),
(681,431,cs),
(617,429,o),
(519,426,o),
(465,425,cs),
(419,424,o),
(406,388,o),
(406,346,cs),
(406,309,o),
(419,274,o),
(465,277,cs),
(540,282,l),
(510,183,o),
(456,143,o),
(388,143,cs),
(305,143,o),
(227,204,o),
(227,372,cs),
(227,510,o),
(316,622,o),
(429,622,cs),
(494,622,o),
(548,595,o),
(593,563,cs),
(613,549,o),
(625,545,o),
(638,545,cs),
(672,545,o),
(708,604,o),
(708,636,cs),
(708,654,o),
(703,667,o),
(688,680,cs)
);
}
);
userData = {
com.hugojourdan.ColorFlow = {
"0" = 0;
"1" = 0;
"10" = 0;
"11" = 0;
"2" = 0;
"3" = 0;
"4" = 0;
"5" = 0;
"6" = 0;
"7" = 0;
"8" = 0;
"9" = 0;
};
};
width = 781;
}
);
metricLeft = G;
metricRight = G;
},
{
glyphname = G.alt4;
lastChange = "2023-03-03 13:17:41 +0000";
layers = (
{
anchors = (
{
name = bottom;
pos = (408,-6);
},
{
name = top;
pos = (435,770);
}
);
layerId = m01;
shapes = (
{
closed = 1;
nodes = (
(590,755,o),
(522,778,o),
(445,778,cs),
(248,778,o),
(74,579,o),
(74,362,cs),
(74,173,o),
(214,-18,o),
(408,-18,cs),
(576,-18,o),
(728,143,o),
(723,375,cs),
(723,394,o),
(718,405,o),
(696,405,cs),
(606,405,o),
(542,400,o),
(458,398,cs),
(443,398,o),
(435,394,o),
(436,380,cs),
(437,369,o),
(445,368,o),
(458,368,cs),
(532,370,o),
(622,371,o),
(691,374,c),
(691,360,ls),
(691,177,o),
(572,12,o),
(406,12,cs),
(241,12,o),
(107,181,o),
(107,363,cs),
(107,576,o),
(281,748,o),
(441,748,cs),
(514,748,o),
(597,720,o),
(647,678,cs),
(655,672,o),
(658,670,o),
(662,670,cs),
(667,670,o),
(676,675,o),
(676,686,cs),
(676,691,o),
(675,693,o),
(665,700,cs)
);
}
);
userData = {
com.hugojourdan.ColorFlow = {
"0" = 0;
"1" = 0;
"10" = 0;
"11" = 0;
"2" = 0;
"3" = 0;
"4" = 0;
"5" = 0;
"6" = 0;
"7" = 0;
"8" = 0;
"9" = 0;
};
};
width = 793;
},
{
anchors = (
{
name = bottom;
pos = (427,0);
},
{
name = top;
pos = (443,761);
}
);
layerId = m002;
shapes = (
{
closed = 1;
nodes = (
(613,752,o),
(530,778,o),
(453,778,cs),
(246,778,o),
(72,579,o),
(72,362,cs),
(72,173,o),
(212,-18,o),
(416,-18,cs),
(594,-18,o),
(746,144,o),
(743,325,cs),
(742,359,o),
(743,416,o),
(699,415,cs),
(624,413,o),
(550,410,o),
(475,408,cs),
(454,408,o),
(433,390,o),
(434,368,cs),
(435,346,o),
(452,327,o),
(475,327,cs),
(538,329,o),
(600,330,o),
(662,333,c),
(662,310,ls),
(662,201,o),
(562,60,o),
(414,60,cs),
(267,60,o),
(154,205,o),
(154,363,cs),
(154,559,o),
(305,700,o),
(449,700,cs),
(519,700,o),
(584,669,o),
(636,628,cs),
(644,622,o),
(653,617,o),
(662,617,cs),
(684,617,o),
(704,636,o),
(704,659,cs),
(704,668,o),
(702,678,o),
(692,686,cs)
);
}
);
userData = {
com.hugojourdan.ColorFlow = {
"0" = 0;
"1" = 0;
"10" = 0;
"11" = 0;
"2" = 0;
"3" = 0;
"4" = 0;
"5" = 0;
"6" = 0;
"7" = 0;
"8" = 0;
"9" = 0;
};
};
width = 812;
},
{
anchors = (
{
name = bottom;
pos = (394,-3);
},
{
name = top;
pos = (414,764);
}
);
layerId = m003;
shapes = (
{
closed = 1;
nodes = (
(614,752,o),
(538,778,o),
(426,778,cs),
(207,778,o),
(43,579,o),
(43,362,cs),
(43,173,o),
(183,-18,o),
(407,-18,cs),
(615,-18,o),
(747,144,o),
(744,325,cs),
(743,359,o),
(740,456,o),
(676,455,cs),
(611,454,o),
(541,448,o),
(466,448,cs),
(425,448,o),
(405,420,o),
(405,368,cs),
(405,306,o),
(433,287,o),
(466,288,cs),
(529,290,o),
(501,290,o),
(563,293,c),
(563,270,ls),
(563,201,o),
(493,150,o),
(405,150,cs),
(325,150,o),
(225,225,o),
(225,363,cs),
(225,549,o),
(349,620,o),
(440,620,cs),
(494,620,o),
(538,611,o),
(585,574,cs),
(598,564,o),
(607,559,o),
(626,559,cs),
(667,559,o),
(705,603,o),
(705,651,cs),
(705,668,o),
(703,678,o),
(687,692,cs)
);
}
);
userData = {
com.hugojourdan.ColorFlow = {
"0" = 0;
"1" = 0;
"10" = 0;
"11" = 0;
"2" = 0;
"3" = 0;
"4" = 0;
"5" = 0;
"6" = 0;
"7" = 0;
"8" = 0;
"9" = 0;
};
};
width = 798;
}
);
metricLeft = G;
metricRight = G;
},
{
glyphname = G.alt5;
lastChange = "2023-03-03 13:17:45 +0000";
layers = (
{
anchors = (
{
name = bottom;
pos = (385,0);
},
{
name = top;
pos = (453,778);
}
);
layerId = m01;
shapes = (
{
closed = 1;
nodes = (
(603,759,o),
(527,788,o),
(445,788,cs),
(255,788,o),
(74,586,o),
(74,363,cs),
(74,198,o),
(181,-10,o),
(380,-10,cs),
(517,-10,o),
(659,116,o),
(708,295,cs),
(713,312,o),
(717,334,o),
(717,347,cs),
(717,358,o),
(711,362,o),
(703,364,cs),
(666,375,o),
(551,402,o),
(468,402,cs),
(401,402,o),
(377,402,o),
(378,381,cs),
(379,369,o),
(386,369,o),
(409,370,cs),
(486,374,o),
(578,369,o),
(685,335,c),
(645,158,o),
(515,20,o),
(374,20,cs),
(222,20,o),
(107,185,o),
(107,373,cs),
(107,574,o),
(282,758,o),
(445,758,cs),
(525,758,o),
(603,721,o),
(657,664,cs),
(664,657,o),
(668,655,o),
(672,655,cs),
(680,655,o),
(688,662,o),
(688,672,cs),
(688,676,o),
(686,679,o),
(680,685,cs)
);
}
);
userData = {
com.hugojourdan.ColorFlow = {
"0" = 0;
"1" = 0;
"10" = 0;
"11" = 0;
"2" = 0;
"3" = 0;
"4" = 0;
"5" = 0;
"6" = 0;
"7" = 0;
"8" = 0;
"9" = 0;
};
};
width = 787;
},
{
anchors = (
{
name = bottom;
pos = (403,10);
},
{
name = top;
pos = (439,764);
}
);
layerId = m002;
shapes = (
{
closed = 1;
nodes = (
(620,757,o),
(535,788,o),
(453,788,cs),
(253,788,o),
(72,586,o),
(72,363,cs),
(72,198,o),
(179,-10,o),
(388,-10,cs),
(535,-10,o),
(677,116,o),
(724,283,cs),
(729,300,o),
(735,325,o),
(735,339,cs),
(735,358,o),
(728,374,o),
(706,380,cs),
(673,387,o),
(560,412,o),
(476,412,cs),
(420,412,o),
(376,401,o),
(376,367,cs),
(377,346,o),
(394,325,o),
(417,326,cs),
(488,330,o),
(581,324,o),
(647,310,c),
(609,167,o),
(506,68,o),
(382,68,cs),
(245,68,o),
(154,207,o),
(154,373,cs),
(154,558,o),
(306,710,o),
(453,710,cs),
(522,710,o),
(585,678,o),
(639,619,cs),
(648,610,o),
(657,607,o),
(667,607,cs),
(689,607,o),
(709,627,o),
(709,649,cs),
(709,658,o),
(705,668,o),
(697,676,cs)
);
}
);
userData = {
com.hugojourdan.ColorFlow = {
"0" = 0;
"1" = 0;
"10" = 0;
"11" = 0;
"2" = 0;
"3" = 0;
"4" = 0;
"5" = 0;
"6" = 0;
"7" = 0;
"8" = 0;
"9" = 0;
};
};
width = 804;
},
{
anchors = (
{
name = bottom;
pos = (391,1);
},
{
name = top;
pos = (431,774);
}
);
layerId = m003;
shapes = (
{
closed = 1;
nodes = (
(631,767,o),
(536,788,o),
(454,788,cs),
(224,788,o),
(43,586,o),
(43,363,cs),
(43,198,o),
(150,-10,o),
(389,-10,cs),
(563,-10,o),
(688,116,o),
(735,283,cs),
(740,300,o),
(746,339,o),
(746,358,cs),
(746,384,o),
(746,412,o),
(703,423,cs),
(684,427,o),
(561,452,o),
(477,452,cs),
(421,452,o),
(377,441,o),
(377,367,cs),
(377,306,o),
(402,292,o),
(426,294,cs),
(463,297,o),
(507,292,o),
(548,283,c),
(510,174,o),
(440,158,o),
(383,158,cs),
(311,158,o),
(230,207,o),
(230,373,cs),
(230,558,o),
(357,630,o),
(454,630,cs),
(504,630,o),
(558,622,o),
(598,580,cs),
(611,565,o),
(620,562,o),
(635,562,cs),
(682,562,o),
(720,598,o),
(720,649,cs),
(720,663,o),
(716,678,o),
(707,687,cs)
);
}
);
userData = {
com.hugojourdan.ColorFlow = {
"0" = 0;
"1" = 0;
"10" = 0;
"11" = 0;
"2" = 0;
"3" = 0;
"4" = 0;
"5" = 0;
"6" = 0;
"7" = 0;
"8" = 0;
"9" = 0;
};
};
width = 798;
}
);
metricLeft = G;
metricRight = G;
},
{
glyphname = G.alt6;
lastChange = "2023-03-03 13:17:53 +0000";
layers = (
{
anchors = (
{
name = bottom;
pos = (405,6);
},
{
name = top;
pos = (438,786);
}
);
layerId = m01;
shapes = (
{
closed = 1;
nodes = (
(625,757,o),
(537,794,o),
(439,794,cs),
(222,794,o),
(74,596,o),
(74,376,cs),
(74,108,o),
(253,-12,o),
(401,-12,cs),
(627,-12,o),
(747,269,o),
(747,382,cs),
(747,395,o),
(744,400,o),
(733,401,cs),
(662,407,o),
(465,408,o),
(370,392,cs),
(356,389,o),
(351,384,o),
(351,373,cs),
(351,364,o),
(356,362,o),
(370,363,cs),
(463,373,o),
(534,377,o),
(714,373,c),
(680,180,o),
(556,18,o),
(397,18,cs),
(259,18,o),
(107,142,o),
(107,378,cs),
(107,585,o),
(248,764,o),
(437,764,cs),
(545,764,o),
(607,722,o),
(652,661,cs),
(656,655,o),
(661,652,o),
(666,652,cs),
(675,652,o),
(683,660,o),
(683,668,cs),
(683,672,o),
(682,674,o),
(680,677,cs)
);
}
);
userData = {
com.hugojourdan.ColorFlow = {
"0" = 0;
"1" = 0;
"10" = 0;
"11" = 0;
"2" = 0;
"3" = 0;
"4" = 0;
"5" = 0;
"6" = 0;
"7" = 0;
"8" = 0;
"9" = 0;
};
};
width = 816;
},
{
anchors = (
{
name = bottom;
pos = (407,10);
},
{
name = top;
pos = (443,784);
}
);
layerId = m002;
shapes = (
{
closed = 1;
nodes = (
(640,755,o),
(545,794,o),
(447,794,cs),
(220,794,o),
(72,596,o),
(72,376,cs),
(72,108,o),
(251,-12,o),
(409,-12,cs),
(645,-12,o),
(765,269,o),
(765,382,cs),
(765,395,o),
(753,411,o),
(726,413,cs),
(680,417,o),
(473,418,o),
(389,404,cs),
(366,400,o),
(349,389,o),
(349,368,cs),
(349,348,o),
(367,324,o),
(389,326,cs),
(466,334,o),
(543,338,o),
(675,337,c),
(635,188,o),
(536,66,o),
(405,66,cs),
(292,66,o),
(152,161,o),
(152,378,cs),
(152,559,o),
(277,716,o),
(445,716,cs),
(522,716,o),
(584,682,o),
(613,642,cs),
(630,618,o),
(644,607,o),
(663,607,cs),
(683,607,o),
(700,620,o),
(700,644,cs),
(700,651,o),
(700,660,o),
(695,667,cs)
);
}
);
userData = {
com.hugojourdan.ColorFlow = {
"0" = 0;
"1" = 0;
"10" = 0;
"11" = 0;
"2" = 0;
"3" = 0;
"4" = 0;
"5" = 0;
"6" = 0;
"7" = 0;
"8" = 0;
"9" = 0;
};
};
width = 832;
},
{
anchors = (
{
name = bottom;
pos = (393,4);
},
{
name = top;
pos = (425,784);
}
);
layerId = m003;
shapes = (
{
closed = 1;
nodes = (
(652,765,o),
(537,794,o),
(439,794,cs),
(192,794,o),
(44,596,o),
(44,376,cs),
(44,108,o),
(223,-12,o),
(401,-12,cs),
(637,-12,o),
(767,269,o),
(767,382,cs),
(767,420,o),
(755,451,o),
(713,454,cs),
(682,457,o),
(465,458,o),
(381,444,cs),
(346,438,o),
(331,412,o),
(331,368,cs),
(331,307,o),
(359,282,o),
(394,284,cs),
(458,287,o),
(506,289,o),
(567,287,c),
(536,179,o),
(471,149,o),
(397,149,cs),
(284,149,o),
(224,252,o),
(224,378,cs),
(224,559,o),
(321,636,o),
(449,636,cs),
(491,636,o),
(540,631,o),
(573,591,cs),
(583,579,o),
(596,567,o),
(615,567,cs),
(664,567,o),
(713,600,o),
(713,650,cs),
(713,658,o),
(712,670,o),
(705,681,cs)
);
}
);
userData = {
com.hugojourdan.ColorFlow = {
"0" = 0;
"1" = 0;
"10" = 0;
"11" = 0;
"2" = 0;
"3" = 0;
"4" = 0;
"5" = 0;
"6" = 0;
"7" = 0;
"8" = 0;
"9" = 0;
};
};
width = 818;
}
);
metricLeft = G;
metricRight = G;
},
{
glyphname = H;
lastChange = "2023-03-06 08:22:26 +0000";
layers = (
{
anchors = (
{
name = bottom;
pos = (384,0);
},
{
name = center;
pos = (400,605);
},
{
name = top;
pos = (410,764);
},
{
name = topleft;
pos = (52,764);
}
);
layerId = m01;
name = Regular;
shapes = (
{
closed = 1;
nodes = (
(106,514,o),
(115,258,o),
(99,11,cs),
(98,-4,o),
(111,-7,o),
(117,-7,cs),
(124,-7,o),
(132,-4,o),
(133,9,cs),
(151,259,o),
(139,514,o),
(167,762,cs),
(169,779,o),
(160,783,o),
(151,782,cs),
(139,781,o),
(133,775,o),
(132,761,cs)
);
},
{
closed = 1;
nodes = (
(369,390,o),
(547,396,o),
(635,393,cs),
(650,393,o),
(656,398,o),
(656,408,cs),
(656,419,o),
(650,423,o),
(636,423,cs),
(425,423,o),
(286,420,o),
(150,414,cs),
(130,413,o),
(123,411,o),
(123,397,cs),
(123,386,o),
(129,384,o),
(141,384,cs)
);
},
{
closed = 1;
nodes = (
(635,504,o),
(624,248,o),
(624,2,cs),
(624,-17,o),
(633,-20,o),
(642,-20,cs),
(648,-20,o),
(659,-17,o),
(659,1,cs),
(659,196,o),
(662,392,o),
(669,578,cs),
(671,630,o),
(674,693,o),
(679,748,cs),
(681,771,o),
(671,774,o),
(661,774,cs),
(649,774,o),
(643,769,o),
(642,748,cs)
);
}
);
userData = {
com.hugojourdan.ColorFlow = {
"0" = 0;
"1" = 0;
"10" = 0;
"11" = 0;
"2" = 0;
"3" = 0;
"4" = 0;
"5" = 0;
"6" = 0;
"7" = 0;
"8" = 0;
"9" = 0;
};
};
width = 773;
},
{
anchors = (
{
name = bottom;
pos = (378,0);
},
{
name = center;
pos = (391,605);
},
{
name = top;
pos = (404,764);
},
{
name = topleft;
pos = (40,764);
}
);
layerId = m002;
name = Regular;
shapes = (
{
closed = 1;
nodes = (
(88,505,o),
(97,268,o),
(81,32,cs),
(80,6,o),
(101,-7,o),
(121,-7,cs),
(142,-7,o),
(160,6,o),
(162,32,cs),
(179,269,o),
(167,507,o),
(194,743,cs),
(197,769,o),
(174,782,o),
(154,782,cs),
(134,782,o),
(116,769,o),
(113,743,cs)
);
},
{
closed = 1;
nodes = (
(383,368,o),
(502,369,o),
(584,367,cs),
(616,366,o),
(647,370,o),
(647,406,cs),
(647,428,o),
(629,444,o),
(606,444,cs),
(387,443,o),
(302,442,o),
(156,436,cs),
(136,435,o),
(114,426,o),
(114,396,cs),
(114,375,o),
(132,357,o),
(155,358,cs)
);
},
{
closed = 1;
nodes = (
(592,497,o),
(587,258,o),
(587,19,cs),
(587,-7,o),
(607,-20,o),
(628,-20,cs),
(648,-20,o),
(668,-7,o),
(668,19,cs),
(668,206,o),
(671,392,o),
(678,578,cs),
(680,630,o),
(682,683,o),
(685,735,cs),
(686,761,o),
(665,774,o),
(645,774,cs),
(624,774,o),
(604,761,o),
(604,735,cs)
);
}
);
userData = {
com.hugojourdan.ColorFlow = {
"0" = 0;
"1" = 0;
"10" = 0;
"11" = 0;
"2" = 0;
"3" = 0;
"4" = 0;
"5" = 0;
"6" = 0;
"7" = 0;
"8" = 0;
"9" = 0;
};
};
width = 773;
},
{
anchors = (
{
name = bottom;
pos = (385,0);
},
{
name = center;
pos = (403,607);
},
{
name = top;
pos = (411,764);
},
{
name = topleft;
pos = (37,764);
}
);
layerId = m003;
shapes = (
{
closed = 1;
nodes = (
(61,485,o),
(70,288,o),
(55,60,cs),
(53,26,o),
(80,-7,o),
(151,-7,cs),
(226,-7,o),
(244,26,o),
(246,56,cs),
(263,289,o),
(251,494,o),
(277,718,cs),
(281,749,o),
(258,782,o),
(187,782,cs),
(113,782,o),
(90,749,o),
(87,718,cs)
);
},
{
closed = 1;
nodes = (
(387,308,o),
(491,309,o),
(573,307,cs),
(605,306,o),
(651,310,o),
(651,426,cs),
(651,455,o),
(633,471,o),
(610,471,cs),
(391,470,o),
(326,469,o),
(160,463,cs),
(140,462,o),
(118,446,o),
(118,416,cs),
(118,315,o),
(136,297,o),
(159,298,cs)
);
},
{
closed = 1;
nodes = (
(531,484,o),
(526,278,o),
(526,43,cs),
(526,13,o),
(546,-20,o),
(622,-20,cs),
(692,-20,o),
(717,13,o),
(717,43,cs),
(717,226,o),
(720,392,o),
(727,578,cs),
(729,630,o),
(731,663,o),
(733,709,cs),
(735,741,o),
(709,774,o),
(639,774,cs),
(563,774,o),
(544,741,o),
(542,709,cs)
);
}
);
userData = {
com.hugojourdan.ColorFlow = {
"0" = 0;
"1" = 0;
"10" = 0;
"11" = 0;
"2" = 0;
"3" = 0;
"4" = 0;
"5" = 0;
"6" = 0;
"7" = 0;
"8" = 0;
"9" = 0;
};
};
width = 788;
}
);
unicode = 72;
},
{
glyphname = H.alt1;
lastChange = "2023-03-06 08:22:46 +0000";
layers = (
{
anchors = (
{
name = bottom;
pos = (385,0);
},
{
name = center;
pos = (400,595);
},
{
name = top;
pos = (401,766);
},
{
name = topleft;
pos = (42,764);
}
);
background = {
shapes = (
{
closed = 1;
nodes = (
(653,-16,o),
(673,-3,o),
(673,23,cs),
(672,198,o),
(678,551,o),
(683,726,cs),
(684,752,o),
(663,765,o),
(643,765,cs),
(623,765,o),
(602,752,o),
(602,726,cs),
(599,636,o),
(597,542,o),
(595,451,c),
(462,448,o),
(196,444,o),
(171,444,c),
(175,538,o),
(178,635,o),
(181,729,cs),
(182,755,o),
(161,768,o),
(141,768,cs),
(120,768,o),
(100,755,o),
(100,729,cs),
(92,496,o),
(84,262,o),
(75,29,cs),
(75,3,o),
(95,-10,o),
(116,-10,cs),
(136,-10,o),
(156,3,o),
(156,29,cs),
(160,141,o),
(166,261,o),
(168,366,c),
(265,368,o),
(472,372,o),
(594,371,c),
(593,284,o),
(592,196,o),
(592,23,cs),
(592,-3,o),
(612,-16,o),
(633,-16,cs)
);
}
);
};
layerId = m01;
shapes = (
{
closed = 1;
nodes = (
(656,-16,o),
(664,-11,o),
(664,3,cs),
(663,178,o),
(669,551,o),
(675,746,cs),
(675,759,o),
(671,765,o),
(660,765,cs),
(650,765,o),
(642,759,o),
(642,746,cs),
(639,629,o),
(637,525,o),
(635,427,c),
(483,428,o),
(177,424,o),
(150,420,c),
(149,521,o),
(158,636,o),
(161,737,cs),
(162,763,o),
(155,768,o),
(144,768,cs),
(132,768,o),
(124,763,o),
(124,737,cs),
(116,504,o),
(112,252,o),
(99,13,cs),
(98,0,o),
(103,-10,o),
(114,-10,cs),
(128,-10,o),
(131,-3,o),
(132,13,cs),
(140,138,o),
(146,279,o),
(148,390,c),
(254,396,o),
(495,400,o),
(634,395,c),
(632,303,o),
(631,188,o),
(632,5,cs),
(632,-11,o),
(638,-16,o),
(649,-16,cs)
);
}
);
userData = {
com.hugojourdan.ColorFlow = {
"0" = 0;
"1" = 0;
"10" = 0;
"11" = 0;
"2" = 0;
"3" = 0;
"4" = 0;
"5" = 0;
"6" = 0;
"7" = 0;
"8" = 0;
"9" = 0;
};
};
width = 778;
},
{
anchors = (
{
name = bottom;
pos = (380,5);
},
{
name = center;
pos = (401,605);
},
{
name = top;
pos = (399,754);
},
{
name = topleft;
pos = (40,764);
}
);
layerId = m002;
shapes = (
{
closed = 1;
nodes = (
(659,-16,o),
(679,-3,o),
(679,23,cs),
(678,198,o),
(684,551,o),
(689,726,cs),
(690,752,o),
(669,765,o),
(649,765,cs),
(629,765,o),
(608,752,o),
(608,726,cs),
(605,636,o),
(603,542,o),
(601,451,c),
(468,448,o),
(202,444,o),
(177,444,c),
(181,538,o),
(184,635,o),
(187,729,cs),
(188,755,o),
(167,768,o),
(147,768,cs),
(126,768,o),
(106,755,o),
(106,729,cs),
(98,496,o),
(90,262,o),
(81,29,cs),
(81,3,o),
(101,-10,o),
(122,-10,cs),
(142,-10,o),
(162,3,o),
(162,29,cs),
(166,141,o),
(172,261,o),
(174,366,c),
(271,368,o),
(478,372,o),
(600,371,c),
(599,284,o),
(598,196,o),
(598,23,cs),
(598,-3,o),
(618,-16,o),
(639,-16,cs)
);
}
);
userData = {
com.hugojourdan.ColorFlow = {
"0" = 0;
"1" = 0;
"10" = 0;
"11" = 0;
"2" = 0;
"3" = 0;
"4" = 0;
"5" = 0;
"6" = 0;
"7" = 0;
"8" = 0;
"9" = 0;
};
};
width = 784;
},
{
anchors = (
{
name = bottom;
pos = (386,0);
},
{
name = center;
pos = (403,626);
},
{
name = top;
pos = (402,764);
},
{
name = topleft;
pos = (43,764);
}
);
background = {
shapes = (
{
closed = 1;
nodes = (
(57,485,o),
(66,288,o),
(51,60,cs),
(49,26,o),
(76,-7,o),
(147,-7,cs),
(222,-7,o),
(240,26,o),
(242,56,cs),
(259,289,o),
(247,494,o),
(273,718,cs),
(277,749,o),
(254,782,o),
(183,782,cs),
(109,782,o),
(86,749,o),
(83,718,cs)
);
},
{
closed = 1;
nodes = (
(383,328,o),
(487,329,o),
(569,327,cs),
(601,326,o),
(647,330,o),
(647,446,cs),
(647,475,o),
(629,491,o),
(606,491,cs),
(387,490,o),
(322,489,o),
(156,483,cs),
(136,482,o),
(114,466,o),
(114,436,cs),
(114,335,o),
(132,317,o),
(155,318,cs)
);
},
{
closed = 1;
nodes = (
(527,484,o),
(522,278,o),
(522,43,cs),
(522,13,o),
(542,-20,o),
(618,-20,cs),
(688,-20,o),
(713,13,o),
(713,43,cs),
(713,226,o),
(716,392,o),
(723,578,cs),
(725,630,o),
(727,663,o),
(729,709,cs),
(731,741,o),
(705,774,o),
(635,774,cs),
(559,774,o),
(540,741,o),
(538,709,cs)
);
}
);
};
layerId = m003;
shapes = (
{
closed = 1;
nodes = (
(677,-16,o),
(712,4,o),
(712,45,cs),
(711,198,o),
(717,551,o),
(721,706,cs),
(723,754,o),
(694,775,o),
(622,775,cs),
(562,775,o),
(534,754,o),
(530,706,cs),
(526,647,o),
(524,568,o),
(524,491,c),
(441,488,o),
(276,484,o),
(260,484,c),
(262,564,o),
(265,646,o),
(269,709,cs),
(272,757,o),
(246,778,o),
(180,778,cs),
(110,778,o),
(79,757,o),
(77,709,cs),
(70,496,o),
(62,262,o),
(56,49,cs),
(55,10,o),
(89,-10,o),
(155,-10,cs),
(214,-10,o),
(246,10,o),
(246,49,cs),
(246,129,o),
(252,234,o),
(257,326,c),
(318,328,o),
(447,332,o),
(523,331,c),
(522,255,o),
(521,177,o),
(521,53,cs),
(521,4,o),
(553,-16,o),
(612,-16,cs)
);
}
);
userData = {
com.hugojourdan.ColorFlow = {
"0" = 0;
"1" = 0;
"10" = 0;
"11" = 0;
"2" = 0;
"3" = 0;
"4" = 0;
"5" = 0;
"6" = 0;
"7" = 0;
"8" = 0;
"9" = 0;
};
};
width = 783;
}
);
metricLeft = H;
metricRight = H;
},
{
glyphname = H.alt2;
lastChange = "2023-03-07 13:11:58 +0000";
layers = (
{
anchors = (
{
name = bottom;
pos = (390,10);
},
{
name = center;
pos = (400,591);
},
{
name = top;
pos = (402,767);
},
{
name = topleft;
pos = (40,764);
}
);
background = {
shapes = (
{
closed = 1;
nodes = (
(101,493,o),
(92,261,o),
(79,29,cs),
(78,3,o),
(99,-10,o),
(119,-10,cs),
(139,-10,o),
(159,3,o),
(160,29,cs),
(173,261,o),
(182,493,o),
(186,725,cs),
(187,751,o),
(166,764,o),
(146,764,cs),
(125,764,o),
(105,751,o),
(105,725,cs)
);
},
{
closed = 1;
nodes = (
(265,368,o),
(480,368,cs),
(539,368,o),
(599,366,o),
(659,362,cs),
(685,362,o),
(698,382,o),
(698,402,cs),
(698,422,o),
(686,438,o),
(659,440,cs),
(599,444,o),
(540,446,o),
(480,446,cs),
(357,446,o),
(235,437,o),
(120,421,cs),
(98,418,o),
(85,402,o),
(85,384,cs),
(85,362,o),
(103,344,o),
(126,344,cs),
(155,344,o)
);
},
{
closed = 1;
nodes = (
(606,516,o),
(602,252,o),
(594,35,cs),
(594,9,o),
(614,-4,o),
(635,-4,cs),
(655,-4,o),
(675,9,o),
(675,35,cs),
(683,252,o),
(687,516,o),
(687,733,cs),
(688,759,o),
(667,772,o),
(647,772,cs),
(626,772,o),
(606,759,o),
(606,733,cs)
);
}
);
};
layerId = m01;
shapes = (
{
closed = 1;
nodes = (
(132,490,o),
(123,261,o),
(109,9,cs),
(108,-4,o),
(114,-10,o),
(124,-10,cs),
(133,-10,o),
(139,-6,o),
(140,9,cs),
(154,261,o),
(163,490,o),
(168,742,cs),
(168,755,o),
(164,764,o),
(152,764,cs),
(140,764,o),
(136,759,o),
(136,742,cs)
);
},
{
closed = 1;
nodes = (
(276,391,o),
(491,391,cs),
(550,391,o),
(610,388,o),
(670,384,cs),
(683,384,o),
(689,392,o),
(689,402,cs),
(689,409,o),
(683,414,o),
(670,415,cs),
(610,419,o),
(551,421,o),
(491,421,cs),
(368,421,o),
(243,412,o),
(128,396,cs),
(116,394,o),
(111,389,o),
(111,383,cs),
(111,373,o),
(115,367,o),
(134,367,cs),
(163,367,o)
);
},
{
closed = 1;
nodes = (
(647,520,o),
(643,252,o),
(635,15,cs),
(635,2,o),
(639,-4,o),
(651,-4,cs),
(660,-4,o),
(667,2,o),
(667,15,cs),
(675,252,o),
(679,522,o),
(680,749,cs),
(680,767,o),
(674,772,o),
(663,772,cs),
(651,772,o),
(647,765,o),
(647,747,cs)
);
}
);
userData = {
com.hugojourdan.ColorFlow = {
"0" = 0;
"1" = 0;
"10" = 0;
"11" = 0;
"2" = 0;
"3" = 0;
"4" = 0;
"5" = 0;
"6" = 0;
"7" = 0;
"8" = 0;
"9" = 0;
};
};
width = 789;
},
{
anchors = (
{
name = bottom;
pos = (380,0);
},
{
name = center;
pos = (394,598);
},
{
name = top;
pos = (419,769);
},
{
name = topleft;
pos = (40,764);
}
);
layerId = m002;
shapes = (
{
closed = 1;
nodes = (
(109,493,o),
(100,261,o),
(87,29,cs),
(86,3,o),
(107,-10,o),
(127,-10,cs),
(147,-10,o),
(167,3,o),
(168,29,cs),
(181,261,o),
(190,493,o),
(194,725,cs),
(195,751,o),
(174,764,o),
(154,764,cs),
(133,764,o),
(113,751,o),
(113,725,cs)
);
},
{
closed = 1;
nodes = (
(273,368,o),
(488,368,cs),
(547,368,o),
(607,366,o),
(667,362,cs),
(693,362,o),
(706,382,o),
(706,402,cs),
(706,422,o),
(694,438,o),
(667,440,cs),
(607,444,o),
(548,446,o),
(488,446,cs),
(365,446,o),
(243,437,o),
(128,421,cs),
(106,418,o),
(93,402,o),
(93,384,cs),
(93,362,o),
(111,344,o),
(134,344,cs),
(163,344,o)
);
},
{
closed = 1;
nodes = (
(614,516,o),
(610,252,o),
(602,35,cs),
(602,9,o),
(622,-4,o),
(643,-4,cs),
(663,-4,o),
(683,9,o),
(683,35,cs),
(691,252,o),
(695,516,o),
(695,733,cs),
(696,759,o),
(675,772,o),
(655,772,cs),
(634,772,o),
(614,759,o),
(614,733,cs)
);
}
);
userData = {
com.hugojourdan.ColorFlow = {
"0" = 0;
"1" = 0;
"10" = 0;
"11" = 0;
"2" = 0;
"3" = 0;
"4" = 0;
"5" = 0;
"6" = 0;
"7" = 0;
"8" = 0;
"9" = 0;
};
};
width = 797;
},
{
anchors = (
{
name = bottom;
pos = (418,0);
},
{
name = center;
pos = (433,622);
},
{
name = top;
pos = (434,771);
},
{
name = topleft;
pos = (68,764);
}
);
background = {
shapes = (
{
closed = 1;
nodes = (
(92,485,o),
(101,288,o),
(86,60,cs),
(84,26,o),
(111,-7,o),
(182,-7,cs),
(257,-7,o),
(275,26,o),
(277,56,cs),
(294,289,o),
(282,494,o),
(308,718,cs),
(312,749,o),
(289,782,o),
(218,782,cs),
(144,782,o),
(121,749,o),
(118,718,cs)
);
},
{
closed = 1;
nodes = (
(418,308,o),
(522,309,o),
(604,307,cs),
(636,306,o),
(682,310,o),
(682,426,cs),
(682,455,o),
(664,471,o),
(641,471,cs),
(422,470,o),
(357,469,o),
(191,463,cs),
(171,462,o),
(149,446,o),
(149,416,cs),
(149,315,o),
(167,297,o),
(190,298,cs)
);
},
{
closed = 1;
nodes = (
(562,484,o),
(557,278,o),
(557,43,cs),
(557,13,o),
(577,-20,o),
(653,-20,cs),
(723,-20,o),
(748,13,o),
(748,43,cs),
(748,226,o),
(751,392,o),
(758,578,cs),
(760,630,o),
(762,663,o),
(764,709,cs),
(766,741,o),
(740,774,o),
(670,774,cs),
(594,774,o),
(575,741,o),
(573,709,cs)
);
}
);
};
layerId = m003;
shapes = (
{
closed = 1;
nodes = (
(107,503,o),
(98,261,o),
(86,49,cs),
(84,3,o),
(130,-10,o),
(175,-10,cs),
(224,-10,o),
(275,3,o),
(277,49,cs),
(289,261,o),
(298,503,o),
(302,715,cs),
(303,761,o),
(252,774,o),
(202,774,cs),
(155,774,o),
(111,761,o),
(110,715,cs)
);
},
{
closed = 1;
nodes = (
(281,332,o),
(496,332,cs),
(574,332,o),
(678,327,o),
(731,324,cs),
(777,322,o),
(790,362,o),
(790,402,cs),
(790,443,o),
(778,478,o),
(731,481,cs),
(678,485,o),
(575,490,o),
(496,490,cs),
(373,490,o),
(216,477,o),
(121,464,cs),
(79,458,o),
(66,421,o),
(66,384,cs),
(66,340,o),
(84,304,o),
(127,304,cs),
(156,304,o)
);
},
{
closed = 1;
nodes = (
(562,526,o),
(558,252,o),
(552,55,cs),
(550,9,o),
(599,-4,o),
(651,-4,cs),
(696,-4,o),
(741,9,o),
(743,55,cs),
(749,252,o),
(753,526,o),
(754,723,cs),
(754,769,o),
(708,782,o),
(663,782,cs),
(611,782,o),
(562,769,o),
(562,723,cs)
);
}
);
userData = {
com.hugojourdan.ColorFlow = {
"0" = 0;
"1" = 0;
"10" = 0;
"11" = 0;
"2" = 0;
"3" = 0;
"4" = 0;
"5" = 0;
"6" = 0;
"7" = 0;
"8" = 0;
"9" = 0;
};
};
width = 849;
}
);
metricLeft = H;
metricRight = H;
},
{
glyphname = H.alt3;
lastChange = "2023-03-06 08:22:46 +0000";
layers = (
{
anchors = (
{
name = bottom;
pos = (383,10);
},
{
name = center;
pos = (398,599);
},
{
name = top;
pos = (409,764);
},
{
name = topleft;
pos = (46,764);
}
);
background = {
shapes = (
{
closed = 1;
nodes = (
(93,485,o),
(86,214,o),
(90,30,cs),
(90,4,o),
(110,-10,o),
(130,-10,cs),
(151,-10,o),
(171,4,o),
(171,30,cs),
(171,314,o),
(171,514,o),
(186,740,cs),
(188,766,o),
(166,779,o),
(145,779,cs),
(125,779,o),
(106,766,o),
(105,740,cs)
);
},
{
closed = 1;
nodes = (
(616,378,ls),
(642,379,o),
(655,400,o),
(655,421,cs),
(655,441,o),
(642,457,o),
(616,456,cs),
(157,444,ls),
(131,443,o),
(117,425,o),
(117,405,cs),
(117,384,o),
(131,365,o),
(157,366,cs)
);
},
{
closed = 1;
nodes = (
(579,490,o),
(570,265,o),
(575,25,cs),
(575,-1,o),
(596,-14,o),
(616,-14,cs),
(637,-14,o),
(657,-1,o),
(656,25,cs),
(651,270,o),
(664,483,o),
(690,736,cs),
(692,754,o),
(688,769,o),
(680,776,cs),
(672,784,o),
(662,787,o),
(652,787,cs),
(631,787,o),
(613,775,o),
(610,747,cs)
);
}
);
};
layerId = m01;
shapes = (
{
closed = 1;
nodes = (
(113,485,o),
(107,214,o),
(111,10,cs),
(111,-4,o),
(117,-10,o),
(128,-10,cs),
(139,-10,o),
(144,-5,o),
(144,10,cs),
(144,314,o),
(144,514,o),
(161,760,cs),
(161,772,o),
(157,779,o),
(144,779,cs),
(133,779,o),
(126,772,o),
(126,760,cs)
);
},
{
closed = 1;
nodes = (
(631,400,ls),
(644,400,o),
(648,410,o),
(648,421,cs),
(648,430,o),
(644,431,o),
(631,431,cs),
(144,415,ls),
(131,415,o),
(124,411,o),
(124,401,cs),
(124,391,o),
(131,384,o),
(144,384,cs)
);
},
{
closed = 1;
nodes = (
(623,495,o),
(615,255,o),
(620,15,cs),
(620,-7,o),
(623,-14,o),
(636,-14,cs),
(647,-14,o),
(652,-10,o),
(651,15,cs),
(646,260,o),
(659,483,o),
(687,756,cs),
(688,769,o),
(688,776,o),
(684,781,cs),
(680,786,o),
(674,787,o),
(669,787,cs),
(662,787,o),
(658,784,o),
(656,772,cs)
);
}
);
userData = {
com.hugojourdan.ColorFlow = {
"0" = 0;
"1" = 0;
"10" = 0;
"11" = 0;
"2" = 0;
"3" = 0;
"4" = 0;
"5" = 0;
"6" = 0;
"7" = 0;
"8" = 0;
"9" = 0;
};
};
width = 775;
},
{
anchors = (
{
name = bottom;
pos = (377,5);
},
{
name = center;
pos = (389,611);
},
{
name = top;
pos = (393,755);
},
{
name = topleft;
pos = (40,764);
}
);
layerId = m002;
shapes = (
{
closed = 1;
nodes = (
(95,485,o),
(88,214,o),
(92,30,cs),
(92,4,o),
(112,-10,o),
(132,-10,cs),
(153,-10,o),
(173,4,o),
(173,30,cs),
(173,314,o),
(173,514,o),
(188,740,cs),
(190,766,o),
(168,779,o),
(147,779,cs),
(127,779,o),
(108,766,o),
(107,740,cs)
);
},
{
closed = 1;
nodes = (
(618,378,ls),
(644,379,o),
(657,400,o),
(657,421,cs),
(657,441,o),
(644,457,o),
(618,456,cs),
(159,444,ls),
(133,443,o),
(119,425,o),
(119,405,cs),
(119,384,o),
(133,365,o),
(159,366,cs)
);
},
{
closed = 1;
nodes = (
(581,490,o),
(572,265,o),
(577,25,cs),
(577,-1,o),
(598,-14,o),
(618,-14,cs),
(639,-14,o),
(659,-1,o),
(658,25,cs),
(653,270,o),
(666,483,o),
(692,736,cs),
(694,754,o),
(690,769,o),
(682,776,cs),
(674,784,o),
(664,787,o),
(654,787,cs),
(633,787,o),
(615,775,o),
(612,747,cs)
);
}
);
userData = {
com.hugojourdan.ColorFlow = {
"0" = 0;
"1" = 0;
"10" = 0;
"11" = 0;
"2" = 0;
"3" = 0;
"4" = 0;
"5" = 0;
"6" = 0;
"7" = 0;
"8" = 0;
"9" = 0;
};
};
width = 772;
},
{
anchors = (
{
name = bottom;
pos = (380,0);
},
{
name = center;
pos = (403,633);
},
{
name = top;
pos = (402,770);
},
{
name = topleft;
pos = (43,764);
}
);
layerId = m003;
shapes = (
{
closed = 1;
nodes = (
(68,485,o),
(61,214,o),
(64,50,cs),
(65,4,o),
(110,-10,o),
(155,-10,cs),
(207,-10,o),
(256,4,o),
(256,50,cs),
(256,314,o),
(256,514,o),
(270,720,cs),
(273,766,o),
(222,779,o),
(170,779,cs),
(125,779,o),
(81,766,o),
(79,720,cs)
);
},
{
closed = 1;
nodes = (
(611,338,ls),
(657,339,o),
(670,380,o),
(670,421,cs),
(670,464,o),
(657,497,o),
(611,496,cs),
(152,484,ls),
(106,483,o),
(92,446,o),
(92,405,cs),
(92,362,o),
(106,325,o),
(152,326,cs)
);
},
{
closed = 1;
nodes = (
(504,490,o),
(495,265,o),
(499,45,cs),
(500,-1,o),
(552,-14,o),
(601,-14,cs),
(648,-14,o),
(692,-1,o),
(691,45,cs),
(686,270,o),
(699,483,o),
(723,716,cs),
(725,738,o),
(714,757,o),
(695,770,cs),
(680,781,o),
(660,787,o),
(637,787,cs),
(586,787,o),
(538,775,o),
(532,727,cs)
);
}
);
userData = {
com.hugojourdan.ColorFlow = {
"0" = 0;
"1" = 0;
"10" = 0;
"11" = 0;
"2" = 0;
"3" = 0;
"4" = 0;
"5" = 0;
"6" = 0;
"7" = 0;
"8" = 0;
"9" = 0;
};
};
width = 771;
}
);
metricLeft = H;
metricRight = H;
},
{
glyphname = H.alt4;
lastChange = "2023-03-06 08:22:46 +0000";
layers = (
{
anchors = (
{
name = bottom;
pos = (380,4);
},
{
name = center;
pos = (406,591);
},
{
name = top;
pos = (412,774);
},
{
name = topleft;
pos = (46,764);
}
);
background = {
shapes = (
{
closed = 1;
nodes = (
(79,36,ls),
(78,10,o),
(99,-3,o),
(119,-3,cs),
(139,-3,o),
(159,10,o),
(160,36,cs),
(190,742,ls),
(191,769,o),
(170,782,o),
(150,782,cs),
(129,782,o),
(110,769,o),
(109,742,cs)
);
},
{
closed = 1;
nodes = (
(342,376,o),
(439,379,o),
(635,368,cs),
(668,366,o),
(692,374,o),
(692,408,cs),
(692,431,o),
(675,445,o),
(652,447,cs),
(495,457,o),
(308,453,o),
(151,441,cs),
(123,439,o),
(102,427,o),
(102,399,cs),
(102,377,o),
(118,362,o),
(150,364,cs)
);
},
{
closed = 1;
nodes = (
(592,561,o),
(583,376,o),
(583,192,cs),
(583,136,o),
(584,81,o),
(585,25,cs),
(585,-1,o),
(605,-14,o),
(625,-14,cs),
(646,-14,o),
(666,-1,o),
(666,25,cs),
(664,81,o),
(663,138,o),
(663,194,cs),
(663,392,o),
(674,552,o),
(690,734,cs),
(693,762,o),
(677,780,o),
(652,780,cs),
(631,780,o),
(612,769,o),
(609,737,cs)
);
}
);
};
layerId = m01;
shapes = (
{
closed = 1;
nodes = (
(99,24,ls),
(98,2,o),
(106,-3,o),
(115,-3,cs),
(124,-3,o),
(131,-2,o),
(132,24,cs),
(162,752,ls),
(163,775,o),
(158,782,o),
(146,782,cs),
(133,782,o),
(130,775,o),
(129,762,cs)
);
},
{
closed = 1;
nodes = (
(321,395,o),
(439,406,o),
(646,394,cs),
(669,393,o),
(683,396,o),
(683,408,cs),
(683,418,o),
(676,424,o),
(663,425,cs),
(498,436,o),
(285,426,o),
(149,412,cs),
(132,410,o),
(120,406,o),
(120,392,cs),
(120,383,o),
(129,379,o),
(148,381,cs)
);
},
{
closed = 1;
nodes = (
(636,561,o),
(633,376,o),
(627,192,cs),
(625,136,o),
(626,80,o),
(627,11,cs),
(627,-4,o),
(631,-14,o),
(646,-14,cs),
(658,-14,o),
(662,-4,o),
(662,11,cs),
(660,80,o),
(657,138,o),
(659,194,cs),
(665,392,o),
(670,552,o),
(688,754,cs),
(690,773,o),
(684,780,o),
(674,780,cs),
(660,780,o),
(657,774,o),
(655,757,cs)
);
}
);
userData = {
com.hugojourdan.ColorFlow = {
"0" = 0;
"1" = 0;
"10" = 0;
"11" = 0;
"2" = 0;
"3" = 0;
"4" = 0;
"5" = 0;
"6" = 0;
"7" = 0;
"8" = 0;
"9" = 0;
};
};
width = 783;
},
{
anchors = (
{
name = bottom;
pos = (384,0);
},
{
name = center;
pos = (383,610);
},
{
name = top;
pos = (419,774);
},
{
name = topleft;
pos = (40,764);
}
);
layerId = m002;
shapes = (
{
closed = 1;
nodes = (
(81,36,ls),
(80,10,o),
(101,-3,o),
(121,-3,cs),
(141,-3,o),
(161,10,o),
(162,36,cs),
(192,742,ls),
(193,769,o),
(172,782,o),
(152,782,cs),
(131,782,o),
(112,769,o),
(111,742,cs)
);
},
{
closed = 1;
nodes = (
(344,376,o),
(441,379,o),
(637,368,cs),
(670,366,o),
(694,374,o),
(694,408,cs),
(694,431,o),
(677,445,o),
(654,447,cs),
(497,457,o),
(310,453,o),
(153,441,cs),
(125,439,o),
(104,427,o),
(104,399,cs),
(104,377,o),
(120,362,o),
(152,364,cs)
);
},
{
closed = 1;
nodes = (
(594,561,o),
(585,376,o),
(585,192,cs),
(585,136,o),
(586,81,o),
(587,25,cs),
(587,-1,o),
(607,-14,o),
(627,-14,cs),
(648,-14,o),
(668,-1,o),
(668,25,cs),
(666,81,o),
(665,138,o),
(665,194,cs),
(665,392,o),
(676,552,o),
(692,734,cs),
(695,762,o),
(679,780,o),
(654,780,cs),
(633,780,o),
(614,769,o),
(611,737,cs)
);
}
);
userData = {
com.hugojourdan.ColorFlow = {
"0" = 0;
"1" = 0;
"10" = 0;
"11" = 0;
"2" = 0;
"3" = 0;
"4" = 0;
"5" = 0;
"6" = 0;
"7" = 0;
"8" = 0;
"9" = 0;
};
};
width = 785;
},
{
anchors = (
{
name = bottom;
pos = (386,0);
},
{
name = center;
pos = (404,628);
},
{
name = top;
pos = (401,766);
},
{
name = topleft;
pos = (42,764);
}
);
layerId = m003;
shapes = (
{
closed = 1;
nodes = (
(54,56,ls),
(52,10,o),
(98,-3,o),
(143,-3,cs),
(192,-3,o),
(243,10,o),
(245,56,cs),
(273,722,ls),
(275,769,o),
(222,782,o),
(172,782,cs),
(126,782,o),
(84,769,o),
(82,722,cs)
);
},
{
closed = 1;
nodes = (
(360,337,o),
(480,340,o),
(669,330,cs),
(730,326,o),
(756,352,o),
(756,417,cs),
(756,464,o),
(735,485,o),
(686,488,cs),
(542,498,o),
(321,494,o),
(155,482,cs),
(117,479,o),
(96,454,o),
(96,399,cs),
(96,352,o),
(112,322,o),
(154,325,cs)
);
},
{
closed = 1;
nodes = (
(516,561,o),
(507,376,o),
(507,192,cs),
(507,136,o),
(508,81,o),
(508,45,cs),
(509,-1,o),
(559,-14,o),
(609,-14,cs),
(655,-14,o),
(700,-1,o),
(699,45,cs),
(698,81,o),
(697,138,o),
(697,194,cs),
(697,392,o),
(708,552,o),
(723,714,cs),
(727,762,o),
(692,780,o),
(634,780,cs),
(584,780,o),
(536,769,o),
(531,717,cs)
);
}
);
userData = {
com.hugojourdan.ColorFlow = {
"0" = 0;
"1" = 0;
"10" = 0;
"11" = 0;
"2" = 0;
"3" = 0;
"4" = 0;
"5" = 0;
"6" = 0;
"7" = 0;
"8" = 0;
"9" = 0;
};
};
width = 814;
}
);
metricLeft = H;
metricRight = H;
},
{
glyphname = I;
lastChange = "2023-03-03 13:19:35 +0000";
layers = (
{
anchors = (
{
name = bottom;
pos = (137,-3);
},
{
name = ogonek;
pos = (145,-2);
},
{
name = top;
pos = (176,764);
},
{
name = topleft;
pos = (45,764);
}
);
layerId = m01;
shapes = (
{
closed = 1;
nodes = (
(137,493,o),
(125,258,o),
(120,9,cs),
(120,-7,o),
(126,-14,o),
(136,-14,cs),
(145,-14,o),
(151,-7,o),
(151,9,cs),
(156,258,o),
(168,493,o),
(189,745,cs),
(190,762,o),
(185,768,o),
(174,768,cs),
(165,768,o),
(159,762,o),
(158,745,cs)
);
}
);
userData = {
com.hugojourdan.ColorFlow = {
"0" = 0;
"1" = 0;
"10" = 0;
"11" = 0;
"2" = 0;
"3" = 0;
"4" = 0;
"5" = 0;
"6" = 0;
"7" = 0;
"8" = 0;
"9" = 0;
};
};
width = 317;
},
{
anchors = (
{
name = bottom;
pos = (131,-10);
},
{
name = ogonek;
pos = (142,10);
},
{
name = top;
pos = (171,759);
},
{
name = topleft;
pos = (40,764);
}
);
layerId = m002;
shapes = (
{
closed = 1;
nodes = (
(107,493,o),
(95,258,o),
(90,22,cs),
(90,-4,o),
(110,-17,o),
(131,-17,cs),
(151,-17,o),
(171,-4,o),
(171,22,cs),
(176,258,o),
(188,493,o),
(209,728,cs),
(210,755,o),
(190,768,o),
(169,768,cs),
(149,768,o),
(129,755,o),
(128,728,cs)
);
}
);
userData = {
com.hugojourdan.ColorFlow = {
"0" = 0;
"1" = 0;
"10" = 0;
"11" = 0;
"2" = 0;
"3" = 0;
"4" = 0;
"5" = 0;
"6" = 0;
"7" = 0;
"8" = 0;
"9" = 0;
};
};
width = 307;
},
{
anchors = (
{
name = bottom;
pos = (163,0);
},
{
name = ogonek;
pos = (199,10);
},
{
name = top;
pos = (189,764);
},
{
name = topleft;
pos = (58,764);
}
);
layerId = m003;
shapes = (
{
closed = 1;
nodes = (
(75,493,o),
(63,258,o),
(59,51,cs),
(58,-4,o),
(97,-17,o),
(149,-17,cs),
(205,-17,o),
(249,-4,o),
(250,41,cs),
(254,258,o),
(266,493,o),
(284,708,cs),
(288,755,o),
(249,771,o),
(187,771,cs),
(137,771,o),
(97,755,o),
(94,714,cs)
);
}
);
userData = {
com.hugojourdan.ColorFlow = {
"0" = 0;
"1" = 0;
"10" = 0;
"11" = 0;
"2" = 0;
"3" = 0;
"4" = 0;
"5" = 0;
"6" = 0;
"7" = 0;
"8" = 0;
"9" = 0;
};
};
width = 329;
}
);
unicode = 73;
},
{
glyphname = I.alt1;
lastChange = "2023-03-03 13:19:47 +0000";
layers = (
{
anchors = (
{
name = bottom;
pos = (138,5);
},
{
name = ogonek;
pos = (145,-3);
},
{
name = top;
pos = (176,764);
},
{
name = topleft;
pos = (45,764);
}
);
layerId = m01;
shapes = (
{
closed = 1;
nodes = (
(138,500,o),
(125,258,o),
(120,9,cs),
(120,-7,o),
(126,-14,o),
(136,-14,cs),
(145,-14,o),
(151,-7,o),
(151,9,cs),
(156,258,o),
(169,500,o),
(189,748,cs),
(190,764,o),
(185,771,o),
(174,771,cs),
(165,771,o),
(159,764,o),
(158,748,cs)
);
}
);
userData = {
com.hugojourdan.ColorFlow = {
"0" = 0;
"1" = 0;
"10" = 0;
"11" = 0;
"2" = 0;
"3" = 0;
"4" = 0;
"5" = 0;
"6" = 0;
"7" = 0;
"8" = 0;
"9" = 0;
};
};
width = 317;
},
{
anchors = (
{
name = bottom;
pos = (145,0);
},
{
name = ogonek;
pos = (265,10);
},
{
name = top;
pos = (177,764);
},
{
name = topleft;
pos = (40,764);
}
);
layerId = m002;
shapes = (
{
closed = 1;
nodes = (
(108,496,o),
(95,261,o),
(90,25,cs),
(90,-1,o),
(110,-14,o),
(131,-14,cs),
(151,-14,o),
(171,-1,o),
(171,25,cs),
(176,261,o),
(189,496,o),
(209,731,cs),
(210,758,o),
(190,771,o),
(169,771,cs),
(149,771,o),
(129,758,o),
(128,731,cs)
);
}
);
userData = {
com.hugojourdan.ColorFlow = {
"0" = 0;
"1" = 0;
"10" = 0;
"11" = 0;
"2" = 0;
"3" = 0;
"4" = 0;
"5" = 0;
"6" = 0;
"7" = 0;
"8" = 0;
"9" = 0;
};
};
width = 307;
},
{
anchors = (
{
name = bottom;
pos = (155,-4);
},
{
name = ogonek;
pos = (200,10);
},
{
name = top;
pos = (191,764);
},
{
name = topleft;
pos = (60,764);
}
);
background = {
shapes = (
{
closed = 1;
nodes = (
(74,493,o),
(62,258,o),
(58,51,cs),
(57,-4,o),
(96,-17,o),
(148,-17,cs),
(204,-17,o),
(248,-4,o),
(249,41,cs),
(253,258,o),
(265,493,o),
(283,708,cs),
(287,755,o),
(248,771,o),
(186,771,cs),
(136,771,o),
(96,755,o),
(93,714,cs)
);
}
);
};
layerId = m003;
shapes = (
{
closed = 1;
nodes = (
(73,496,o),
(64,261,o),
(60,45,cs),
(59,-1,o),
(92,-14,o),
(141,-14,cs),
(189,-14,o),
(250,-1,o),
(251,45,cs),
(255,261,o),
(264,496,o),
(281,711,cs),
(285,758,o),
(232,771,o),
(182,771,cs),
(135,771,o),
(94,758,o),
(90,711,cs)
);
}
);
userData = {
com.hugojourdan.ColorFlow = {
"0" = 0;
"1" = 0;
"10" = 0;
"11" = 0;
"2" = 0;
"3" = 0;
"4" = 0;
"5" = 0;
"6" = 0;
"7" = 0;
"8" = 0;
"9" = 0;
};
};
width = 326;
}
);
metricLeft = I;
metricRight = I;
},
{
glyphname = I.alt2;
lastChange = "2023-03-03 13:20:00 +0000";
layers = (
{
anchors = (
{
name = bottom;
pos = (152,0);
},
{
name = ogonek;
pos = (164,3);
},
{
name = top;
pos = (162,783);
},
{
name = topleft;
pos = (47,764);
}
);
layerId = m01;
shapes = (
{
closed = 1;
nodes = (
(137,8,ls),
(137,-6,o),
(143,-13,o),
(152,-13,cs),
(162,-13,o),
(168,-6,o),
(168,8,cs),
(171,243,o),
(173,522,o),
(177,756,cs),
(177,770,o),
(171,777,o),
(161,777,cs),
(151,777,o),
(145,770,o),
(145,756,cs)
);
}
);
userData = {
com.hugojourdan.ColorFlow = {
"0" = 0;
"1" = 0;
"10" = 0;
"11" = 0;
"2" = 0;
"3" = 0;
"4" = 0;
"5" = 0;
"6" = 0;
"7" = 0;
"8" = 0;
"9" = 0;
};
};
width = 322;
},
{
anchors = (
{
name = bottom;
pos = (137,0);
},
{
name = ogonek;
pos = (266,10);
},
{
name = top;
pos = (161,764);
},
{
name = topleft;
pos = (40,764);
}
);
layerId = m002;
shapes = (
{
closed = 1;
nodes = (
(105,27,ls),
(105,1,o),
(125,-13,o),
(145,-13,cs),
(166,-13,o),
(186,1,o),
(186,27,cs),
(189,246,o),
(191,519,o),
(194,738,cs),
(195,764,o),
(174,777,o),
(154,777,cs),
(134,777,o),
(113,764,o),
(113,738,cs)
);
}
);
userData = {
com.hugojourdan.ColorFlow = {
"0" = 0;
"1" = 0;
"10" = 0;
"11" = 0;
"2" = 0;
"3" = 0;
"4" = 0;
"5" = 0;
"6" = 0;
"7" = 0;
"8" = 0;
"9" = 0;
};
};
width = 308;
},
{
anchors = (
{
name = bottom;
pos = (167,0);
},
{
name = ogonek;
pos = (210,10);
},
{
name = top;
pos = (183,761);
},
{
name = topleft;
pos = (62,764);
}
);
background = {
shapes = (
{
closed = 1;
nodes = (
(76,493,o),
(64,258,o),
(60,51,cs),
(59,-4,o),
(98,-17,o),
(150,-17,cs),
(206,-17,o),
(250,-4,o),
(251,41,cs),
(255,258,o),
(267,493,o),
(285,708,cs),
(289,755,o),
(250,771,o),
(188,771,cs),
(138,771,o),
(98,755,o),
(95,714,cs)
);
}
);
};
layerId = m003;
shapes = (
{
closed = 1;
nodes = (
(75,47,ls),
(75,9,o),
(108,-13,o),
(167,-13,cs),
(226,-13,o),
(261,9,o),
(262,47,cs),
(264,246,o),
(266,519,o),
(269,718,cs),
(270,755,o),
(235,777,o),
(176,777,cs),
(117,777,o),
(82,755,o),
(82,718,cs)
);
}
);
userData = {
com.hugojourdan.ColorFlow = {
"0" = 0;
"1" = 0;
"10" = 0;
"11" = 0;
"2" = 0;
"3" = 0;
"4" = 0;
"5" = 0;
"6" = 0;
"7" = 0;
"8" = 0;
"9" = 0;
};
};
width = 330;
}
);
metricLeft = I;
metricRight = I;
},
{
glyphname = I.alt3;
lastChange = "2023-03-03 13:20:12 +0000";
layers = (
{
anchors = (
{
name = bottom;
pos = (133,-7);
},
{
name = ogonek;
pos = (145,0);
},
{
name = top;
pos = (175,764);
},
{
name = topleft;
pos = (45,764);
}
);
layerId = m01;
shapes = (
{
closed = 1;
nodes = (
(119,10,ls),
(118,-6,o),
(124,-13,o),
(134,-13,cs),
(143,-13,o),
(150,-6,o),
(151,10,cs),
(160,236,o),
(176,514,o),
(187,742,cs),
(188,756,o),
(183,764,o),
(172,764,cs),
(163,764,o),
(157,756,o),
(156,742,cs)
);
}
);
userData = {
com.hugojourdan.ColorFlow = {
"0" = 0;
"1" = 0;
"10" = 0;
"11" = 0;
"2" = 0;
"3" = 0;
"4" = 0;
"5" = 0;
"6" = 0;
"7" = 0;
"8" = 0;
"9" = 0;
};
};
width = 315;
},
{
anchors = (
{
name = bottom;
pos = (134,-10);
},
{
name = ogonek;
pos = (263,10);
},
{
name = top;
pos = (170,744);
},
{
name = topleft;
pos = (40,764);
}
);
layerId = m002;
shapes = (
{
closed = 1;
nodes = (
(89,26,ls),
(88,0,o),
(109,-13,o),
(129,-13,cs),
(149,-13,o),
(170,0,o),
(170,26,cs),
(180,239,o),
(196,512,o),
(207,725,cs),
(208,751,o),
(187,764,o),
(167,764,cs),
(146,764,o),
(127,751,o),
(126,725,cs)
);
}
);
userData = {
com.hugojourdan.ColorFlow = {
"0" = 0;
"1" = 0;
"10" = 0;
"11" = 0;
"2" = 0;
"3" = 0;
"4" = 0;
"5" = 0;
"6" = 0;
"7" = 0;
"8" = 0;
"9" = 0;
};
};
width = 305;
},
{
anchors = (
{
name = bottom;
pos = (165,0);
},
{
name = ogonek;
pos = (190,6);
},
{
name = top;
pos = (191,764);
},
{
name = topleft;
pos = (61,764);
}
);
background = {
shapes = (
{
closed = 1;
nodes = (
(78,493,o),
(66,258,o),
(62,51,cs),
(61,-4,o),
(100,-17,o),
(152,-17,cs),
(208,-17,o),
(252,-4,o),
(253,41,cs),
(257,258,o),
(269,493,o),
(287,708,cs),
(291,755,o),
(252,771,o),
(190,771,cs),
(140,771,o),
(100,755,o),
(97,714,cs)
);
}
);
};
layerId = m003;
shapes = (
{
closed = 1;
nodes = (
(58,46,ls),
(56,0,o),
(114,-13,o),
(160,-13,cs),
(206,-13,o),
(244,0,o),
(246,46,cs),
(254,239,o),
(270,512,o),
(280,705,cs),
(282,751,o),
(242,764,o),
(196,764,cs),
(148,764,o),
(95,751,o),
(93,705,cs)
);
}
);
userData = {
com.hugojourdan.ColorFlow = {
"0" = 0;
"1" = 0;
"10" = 0;
"11" = 0;
"2" = 0;
"3" = 0;
"4" = 0;
"5" = 0;
"6" = 0;
"7" = 0;
"8" = 0;
"9" = 0;
};
};
width = 325;
}
);
metricLeft = I;
metricRight = I;
},
{
glyphname = I.alt4;
lastChange = "2023-03-03 13:20:35 +0000";
layers = (
{
anchors = (
{
name = bottom;
pos = (126,4);
},
{
name = ogonek;
pos = (145,2);
},
{
name = top;
pos = (171,761);
},
{
name = topleft;
pos = (45,764);
}
);
layerId = m01;
shapes = (
{
closed = 1;
nodes = (
(142,510,o),
(130,265,o),
(119,12,cs),
(118,-4,o),
(124,-10,o),
(134,-10,cs),
(143,-10,o),
(150,-4,o),
(151,12,cs),
(161,265,o),
(173,510,o),
(184,752,cs),
(185,768,o),
(179,774,o),
(169,774,cs),
(160,774,o),
(153,768,o),
(152,752,cs)
);
}
);
userData = {
com.hugojourdan.ColorFlow = {
"0" = 0;
"1" = 0;
"10" = 0;
"11" = 0;
"2" = 0;
"3" = 0;
"4" = 0;
"5" = 0;
"6" = 0;
"7" = 0;
"8" = 0;
"9" = 0;
};
};
width = 312;
},
{
anchors = (
{
name = bottom;
pos = (145,-6);
},
{
name = ogonek;
pos = (260,10);
},
{
name = top;
pos = (155,764);
},
{
name = topleft;
pos = (40,764);
}
);
layerId = m002;
shapes = (
{
closed = 1;
nodes = (
(112,505,o),
(100,269,o),
(89,29,cs),
(88,3,o),
(109,-10,o),
(129,-10,cs),
(150,-10,o),
(170,3,o),
(171,29,cs),
(181,269,o),
(193,505,o),
(204,735,cs),
(205,761,o),
(184,774,o),
(164,774,cs),
(143,774,o),
(123,761,o),
(123,735,cs)
);
}
);
userData = {
com.hugojourdan.ColorFlow = {
"0" = 0;
"1" = 0;
"10" = 0;
"11" = 0;
"2" = 0;
"3" = 0;
"4" = 0;
"5" = 0;
"6" = 0;
"7" = 0;
"8" = 0;
"9" = 0;
};
};
width = 302;
},
{
anchors = (
{
name = bottom;
pos = (140,-8);
},
{
name = ogonek;
pos = (186,10);
},
{
name = top;
pos = (186,764);
},
{
name = topleft;
pos = (58,764);
}
);
background = {
shapes = (
{
closed = 1;
nodes = (
(54,46,ls),
(52,0,o),
(100,-13,o),
(146,-13,cs),
(192,-13,o),
(240,0,o),
(242,46,cs),
(250,239,o),
(266,512,o),
(276,705,cs),
(278,751,o),
(230,764,o),
(184,764,cs),
(136,764,o),
(91,751,o),
(89,705,cs)
);
}
);
};
layerId = m003;
shapes = (
{
closed = 1;
nodes = (
(80,505,o),
(68,269,o),
(58,49,cs),
(56,3,o),
(102,-10,o),
(147,-10,cs),
(193,-10,o),
(238,3,o),
(240,49,cs),
(249,269,o),
(261,505,o),
(271,715,cs),
(273,761,o),
(227,774,o),
(182,774,cs),
(135,774,o),
(91,761,o),
(89,715,cs)
);
}
);
userData = {
com.hugojourdan.ColorFlow = {
"0" = 0;
"1" = 0;
"10" = 0;
"11" = 0;
"2" = 0;
"3" = 0;
"4" = 0;
"5" = 0;
"6" = 0;
"7" = 0;
"8" = 0;
"9" = 0;
};
};
width = 316;
}
);
metricLeft = I;
metricRight = I;
},
{
glyphname = I.alt5;
lastChange = "2023-03-03 13:20:41 +0000";
layers = (
{
anchors = (
{
name = bottom;
pos = (152,0);
},
{
name = ogonek;
pos = (163,-1);
},
{
name = top;
pos = (162,774);
},
{
name = topleft;
pos = (46,764);
}
);
layerId = m01;
shapes = (
{
closed = 1;
nodes = (
(140,620,o),
(131,391,o),
(131,265,cs),
(131,186,o),
(133,106,o),
(136,11,cs),
(137,-5,o),
(144,-13,o),
(153,-13,cs),
(164,-13,o),
(169,-5,o),
(168,11,cs),
(164,106,o),
(161,186,o),
(161,266,cs),
(161,391,o),
(171,614,o),
(181,755,cs),
(182,770,o),
(178,779,o),
(168,779,cs),
(160,779,o),
(154,776,o),
(152,759,cs)
);
}
);
userData = {
com.hugojourdan.ColorFlow = {
"0" = 0;
"1" = 0;
"10" = 0;
"11" = 0;
"2" = 0;
"3" = 0;
"4" = 0;
"5" = 0;
"6" = 0;
"7" = 0;
"8" = 0;
"9" = 0;
};
};
width = 322;
},
{
anchors = (
{
name = bottom;
pos = (146,14);
},
{
name = ogonek;
pos = (267,10);
},
{
name = top;
pos = (172,764);
},
{
name = topleft;
pos = (40,764);
}
);
layerId = m002;
shapes = (
{
closed = 1;
nodes = (
(109,623,o),
(100,394,o),
(100,268,cs),
(100,189,o),
(102,109,o),
(106,29,cs),
(106,3,o),
(127,-10,o),
(147,-10,cs),
(167,-10,o),
(188,3,o),
(187,29,cs),
(183,109,o),
(180,189,o),
(180,269,cs),
(180,394,o),
(190,617,o),
(199,732,cs),
(201,769,o),
(187,789,o),
(161,789,cs),
(140,789,o),
(122,773,o),
(120,749,cs)
);
}
);
userData = {
com.hugojourdan.ColorFlow = {
"0" = 0;
"1" = 0;
"10" = 0;
"11" = 0;
"2" = 0;
"3" = 0;
"4" = 0;
"5" = 0;
"6" = 0;
"7" = 0;
"8" = 0;
"9" = 0;
};
};
width = 309;
},
{
anchors = (
{
name = bottom;
pos = (165,-10);
},
{
name = ogonek;
pos = (200,10);
},
{
name = top;
pos = (188,774);
},
{
name = topleft;
pos = (59,764);
}
);
layerId = m003;
shapes = (
{
closed = 1;
nodes = (
(78,623,o),
(69,394,o),
(69,268,cs),
(69,189,o),
(71,109,o),
(73,49,cs),
(75,3,o),
(122,-10,o),
(166,-10,cs),
(211,-10,o),
(257,3,o),
(255,49,cs),
(252,109,o),
(249,189,o),
(249,269,cs),
(249,394,o),
(259,617,o),
(266,712,cs),
(270,769,o),
(240,789,o),
(180,789,cs),
(133,789,o),
(91,773,o),
(87,729,cs)
);
}
);
userData = {
com.hugojourdan.ColorFlow = {
"0" = 0;
"1" = 0;
"10" = 0;
"11" = 0;
"2" = 0;
"3" = 0;
"4" = 0;
"5" = 0;
"6" = 0;
"7" = 0;
"8" = 0;
"9" = 0;
};
};
width = 323;
}
);
metricLeft = I;
metricRight = I;
},
{
glyphname = I.alt6;
lastChange = "2023-03-03 13:20:50 +0000";
layers = (
{
anchors = (
{
name = bottom;
pos = (137,0);
},
{
name = ogonek;
pos = (146,5);
},
{
name = top;
pos = (173,764);
},
{
name = topleft;
pos = (45,764);
}
);
layerId = m01;
shapes = (
{
closed = 1;
nodes = (
(142,492,o),
(130,255,o),
(119,13,cs),
(118,-3,o),
(124,-10,o),
(134,-10,cs),
(143,-10,o),
(150,-3,o),
(151,13,cs),
(161,255,o),
(173,492,o),
(184,734,cs),
(185,750,o),
(179,758,o),
(169,758,cs),
(160,758,o),
(153,750,o),
(152,734,cs)
);
}
);
userData = {
com.hugojourdan.ColorFlow = {
"0" = 0;
"1" = 0;
"10" = 0;
"11" = 0;
"2" = 0;
"3" = 0;
"4" = 0;
"5" = 0;
"6" = 0;
"7" = 0;
"8" = 0;
"9" = 0;
};
};
width = 313;
},
{
anchors = (
{
name = bottom;
pos = (123,-28);
},
{
name = ogonek;
pos = (260,10);
},
{
name = top;
pos = (164,748);
},
{
name = topleft;
pos = (40,764);
}
);
layerId = m002;
shapes = (
{
closed = 1;
nodes = (
(112,489,o),
(100,259,o),
(89,29,cs),
(88,3,o),
(109,-10,o),
(129,-10,cs),
(150,-10,o),
(170,3,o),
(170,29,cs),
(181,259,o),
(193,489,o),
(204,719,cs),
(205,745,o),
(184,758,o),
(164,758,cs),
(143,758,o),
(123,745,o),
(123,719,cs)
);
}
);
userData = {
com.hugojourdan.ColorFlow = {
"0" = 0;
"1" = 0;
"10" = 0;
"11" = 0;
"2" = 0;
"3" = 0;
"4" = 0;
"5" = 0;
"6" = 0;
"7" = 0;
"8" = 0;
"9" = 0;
};
};
width = 302;
},
{
anchors = (
{
name = bottom;
pos = (150,-4);
},
{
name = ogonek;
pos = (189,13);
},
{
name = top;
pos = (183,754);
},
{
name = topleft;
pos = (58,764);
}
);
layerId = m003;
shapes = (
{
closed = 1;
nodes = (
(86,489,o),
(70,259,o),
(58,49,cs),
(55,3,o),
(102,-10,o),
(147,-10,cs),
(194,-10,o),
(238,3,o),
(240,49,cs),
(251,259,o),
(267,489,o),
(271,699,cs),
(272,745,o),
(227,758,o),
(182,758,cs),
(135,758,o),
(90,745,o),
(89,699,cs)
);
}
);
userData = {
com.hugojourdan.ColorFlow = {
"0" = 0;
"1" = 0;
"10" = 0;
"11" = 0;
"2" = 0;
"3" = 0;
"4" = 0;
"5" = 0;
"6" = 0;
"7" = 0;
"8" = 0;
"9" = 0;
};
};
width = 317;
}
);
metricLeft = I;
metricRight = I;
},
{
glyphname = J;
lastChange = "2023-03-03 13:21:09 +0000";
layers = (
{
anchors = (
{
name = bottom;
pos = (240,-8);
},
{
name = top;
pos = (448,782);
}
);
layerId = m01;
name = Regular;
shapes = (
{
closed = 1;
nodes = (
(412,693,o),
(409,622,o),
(409,551,cs),
(409,499,o),
(411,448,o),
(411,397,cs),
(411,202,o),
(390,14,o),
(235,14,cs),
(166,14,o),
(90,66,o),
(69,139,cs),
(65,154,o),
(59,157,o),
(51,157,cs),
(40,157,o),
(36,149,o),
(41,128,cs),
(62,43,o),
(158,-16,o),
(240,-16,cs),
(420,-16,o),
(443,206,o),
(443,420,cs),
(443,469,o),
(442,518,o),
(442,563,cs),
(442,640,o),
(450,708,o),
(460,769,cs),
(462,783,o),
(462,792,o),
(448,792,cs),
(437,792,o),
(434,786,o),
(431,775,cs)
);
}
);
userData = {
com.hugojourdan.ColorFlow = {
"0" = 0;
"1" = 0;
"10" = 0;
"11" = 0;
"2" = 0;
"3" = 0;
"4" = 0;
"5" = 0;
"6" = 0;
"7" = 0;
"8" = 0;
"9" = 0;
};
};
width = 550;
},
{
anchors = (
{
name = bottom;
pos = (274,0);
},
{
name = top;
pos = (467,781);
}
);
layerId = m002;
name = Regular;
shapes = (
{
closed = 1;
nodes = (
(412,693,o),
(409,622,o),
(409,551,cs),
(409,499,o),
(411,448,o),
(411,397,cs),
(411,202,o),
(390,62,o),
(262,62,cs),
(176,62,o),
(123,123,o),
(112,155,cs),
(105,176,o),
(100,197,o),
(68,197,cs),
(47,197,o),
(23,181,o),
(32,141,cs),
(58,33,o),
(168,-16,o),
(267,-16,cs),
(473,-16,o),
(492,206,o),
(492,420,cs),
(492,469,o),
(491,518,o),
(491,563,cs),
(491,640,o),
(499,708,o),
(506,751,cs),
(510,776,o),
(490,792,o),
(467,792,cs),
(450,792,o),
(432,781,o),
(427,763,cs)
);
}
);
userData = {
com.hugojourdan.ColorFlow = {
"0" = 0;
"1" = 0;
"10" = 0;
"11" = 0;
"2" = 0;
"3" = 0;
"4" = 0;
"5" = 0;
"6" = 0;
"7" = 0;
"8" = 0;
"9" = 0;
};
};
width = 601;
},
{
anchors = (
{
name = bottom;
pos = (255,4);
},
{
name = top;
pos = (479,764);
}
);
layerId = m003;
name = Regular;
shapes = (
{
closed = 1;
nodes = (
(374,683,o),
(371,612,o),
(371,551,cs),
(371,499,o),
(373,448,o),
(373,338,cs),
(373,206,o),
(333,139,o),
(264,139,cs),
(207,139,o),
(184,176,o),
(164,208,cs),
(152,227,o),
(136,238,o),
(113,238,cs),
(73,238,o),
(-4,188,o),
(13,135,cs),
(43,41,o),
(136,-16,o),
(262,-16,cs),
(529,-16,o),
(554,206,o),
(554,388,cs),
(554,469,o),
(552,505,o),
(552,550,cs),
(552,617,o),
(562,676,o),
(568,719,cs),
(572,749,o),
(552,782,o),
(482,782,cs),
(422,782,o),
(394,771,o),
(385,730,cs)
);
}
);
userData = {
com.hugojourdan.ColorFlow = {
"0" = 0;
"1" = 0;
"10" = 0;
"11" = 0;
"2" = 0;
"3" = 0;
"4" = 0;
"5" = 0;
"6" = 0;
"7" = 0;
"8" = 0;
"9" = 0;
};
};
width = 613;
}
);
unicode = 74;
},
